<svg width="866" height="814" viewBox="0 0 866 814" fill="none" xmlns="http://www.w3.org/2000/svg">
<g clip-path="url(#clip0_2292_23152)">
<path d="M217.978 1.28052C217.978 1.28052 204.068 2.32745 200.617 4.52601C197.27 6.72457 188.694 8.92313 185.556 10.7029C182.419 12.4827 175.098 21.9051 173.424 26.8257C171.751 31.7463 172.065 50.4864 172.692 52.3709C173.424 54.2553 176.562 57.1868 175.307 59.0712C174.052 60.9557 171.019 77.0785 183.674 86.7103C187.125 93.7247 188.38 97.8078 190.995 104.508C193.609 111.313 204.277 118.014 211.912 118.432C219.547 118.851 233.352 118.223 241.823 105.764C250.295 93.306 246.321 87.5478 251.864 84.5117C257.407 81.4756 259.498 73.3095 260.021 67.9702C260.544 62.5261 259.289 57.9196 255.942 56.9774C257.511 50.3817 259.498 41.5875 258.348 36.9809C257.197 32.3744 256.988 29.8618 256.361 24.8365C255.733 19.7065 246.739 10.1795 239.209 7.66681C231.679 4.94478 232.515 1.69929 217.978 1.28052Z" stroke="#282827" stroke-width="2" stroke-miterlimit="10"/>
<path d="M183.674 68.0734C183.674 68.0734 186.916 57.1852 175.516 57.9181" stroke="#282827" stroke-width="2" stroke-miterlimit="10"/>
<path d="M181.371 58.9665C181.371 58.9665 186.182 55.0929 186.182 48.8113C186.182 42.5297 188.797 33.8401 200.092 35.3058C211.387 36.7716 231.782 38.0279 237.534 35.0965C243.286 32.165 244.541 36.2481 246.528 40.1217C248.62 43.9954 249.77 55.0929 251.025 56.1398C252.28 57.0821 255.941 56.8727 255.941 56.8727" stroke="#282827" stroke-width="2" stroke-miterlimit="10"/>
<path d="M187.542 95.2952C187.542 95.2952 189.948 118.642 185.137 124.819C180.326 130.996 158.572 141.465 145.081 141.36C131.589 141.256 126.36 144.606 116.424 156.122C106.488 167.638 97.9124 181.667 107.116 225.638C104.397 231.396 99.1674 241.238 98.9582 257.046C98.6445 272.855 98.6445 286.779 92.3693 296.411C86.0942 306.043 79.2961 319.339 77.9365 337.346C76.5768 355.353 72.1842 396.079 61.5165 402.047C50.8487 408.014 46.5607 415.971 44.0507 424.974C41.5406 433.978 35.893 438.585 38.0893 445.494C40.2856 452.404 48.4433 441.097 48.757 436.805C49.0708 432.408 51.4763 431.047 53.6726 430.209C55.8689 429.372 68.4192 424.451 68.9421 412.411C70.8246 407.491 77.4135 412.725 79.6098 419.007C81.8061 425.289 81.8061 431.256 81.8061 431.256" stroke="#282827" stroke-width="2" stroke-miterlimit="10"/>
<path d="M54.7192 442.981C54.7192 442.981 75.4272 450.938 92.0564 442.144" stroke="#282827" stroke-width="2" stroke-miterlimit="10"/>
<path d="M58.4809 427.905C58.4809 427.905 59.9451 432.721 59.6313 434.291C59.3176 435.966 72.7046 427.486 87.1374 434.291" stroke="#282827" stroke-width="2" stroke-miterlimit="10"/>
<path d="M45.7237 433.35C45.7237 433.35 46.8741 435.025 49.0704 434.501" stroke="#282827" stroke-width="2" stroke-miterlimit="10"/>
<path d="M48.4431 422.566C48.4431 422.566 48.2339 430.313 53.6724 430.209C53.6724 430.209 48.2339 448.739 46.3514 454.811C44.4688 460.884 39.7624 473.656 46.3514 474.703C52.7311 475.75 57.4375 449.367 60.1567 445.284C60.1567 445.18 60.2613 445.284 60.2613 445.389C59.7383 448.425 55.1366 472.609 56.1824 477.739C57.2283 483.183 64.3401 487.895 66.8502 474.494C69.2557 461.093 70.929 445.808 70.929 445.808C70.929 445.808 71.2428 482.136 77.2042 481.822C83.1656 481.508 82.4335 445.598 82.4335 445.598C82.4335 445.598 82.7472 470.934 89.0224 473.97C95.2975 477.006 92.2645 442.248 92.2645 442.248C92.2645 442.248 99.0626 409.793 81.5968 402.884" stroke="#282827" stroke-width="2" stroke-miterlimit="10"/>
<path d="M90.6937 412.411C90.6937 412.411 106.068 376.082 112.866 367.288C119.664 358.493 126.462 343.732 129.286 332.215C132.11 320.699 130.959 298.818 131.901 294.316C132.842 289.815 137.444 280.602 145.183 276.519C145.183 276.519 145.497 319.548 145.183 330.959C144.869 342.371 142.673 353.678 148.111 359.75C153.55 365.822 168.192 367.497 178.441 382.154C188.691 396.811 190.887 395.031 190.887 395.031" stroke="#282827" stroke-width="2" stroke-miterlimit="10"/>
<path d="M146.754 357.866C146.754 357.866 145.604 362.682 142.989 368.755C140.375 374.722 132.322 395.765 131.38 418.589C130.439 441.412 128.975 492.711 139.12 532.076C149.264 571.441 149.474 557.307 150.31 573.849C151.147 590.39 155.958 609.968 150.31 626.405C144.663 642.842 140.166 657.499 149.16 685.033C158.154 712.463 171.646 733.401 171.646 743.243C171.646 753.084 171.018 763.763 169.763 771.51C168.508 779.257 165.057 788.051 162.651 792.449C160.246 796.846 156.899 802.918 162.861 805.326C168.822 807.734 171.227 804.488 171.646 798.311C172.064 792.134 175.306 793.6 175.306 793.6" stroke="#282827" stroke-width="2" stroke-miterlimit="10"/>
<path d="M168.823 805.326C168.823 805.326 176.667 812.759 179.804 805.326C182.837 797.892 179.177 796.845 181.896 794.752" stroke="#282827" stroke-width="2" stroke-miterlimit="10"/>
<path d="M179.806 805.325C179.806 805.325 182.525 814.747 188.8 808.989C191.728 803.022 189.009 796.949 191.205 796.007" stroke="#282827" stroke-width="2" stroke-miterlimit="10"/>
<path d="M188.798 808.99C188.798 808.99 195.178 815.481 198.211 810.874C201.244 806.268 197.165 795.065 198.211 794.856" stroke="#282827" stroke-width="2" stroke-miterlimit="10"/>
<path d="M198.209 810.873C198.209 810.873 199.883 811.711 202.602 812.549C206.994 813.91 215.989 806.79 215.989 803.65C215.989 800.509 211.073 798.31 211.073 794.751C211.073 791.191 211.387 781.664 207.099 778.314C202.916 775.068 202.916 766.588 202.916 763.343C202.916 760.097 194.235 727.014 195.804 710.891C197.373 694.769 201.556 658.963 197.477 645.877C193.398 632.79 193.294 623.472 195.595 612.584C198 601.696 201.765 574.895 202.079 567.252C202.393 559.609 210.237 514.277 210.76 506.111C211.282 497.945 217.348 456.905 215.989 454.497C214.629 452.089 221.741 454.497 221.741 454.497" stroke="#282827" stroke-width="2" stroke-miterlimit="10"/>
<path d="M140.796 394.298C140.796 394.298 133.056 400.056 131.592 414.818" stroke="#282827" stroke-width="2" stroke-miterlimit="10"/>
<path d="M188.064 478.159C188.064 478.159 198.941 496.167 199.36 510.928C199.778 525.69 205.53 540.452 204.171 550.293" stroke="#282827" stroke-width="2" stroke-miterlimit="10"/>
<path d="M154.807 582.015C154.807 582.015 170.39 600.441 179.803 599.813C189.216 599.185 192.248 591.856 190.889 585.47C189.529 579.084 187.019 574.372 180.221 569.033C173.423 563.694 185.346 568.614 185.973 566.416C186.601 564.112 188.797 575.629 192.562 577.513C196.327 579.398 199.57 579.084 201.347 575.629" stroke="#282827" stroke-width="2" stroke-miterlimit="10"/>
<path d="M158.363 585.887C158.363 585.887 170.39 607.139 179.908 606.93C189.425 606.721 189.425 597.926 190.262 593.006C191.098 588.085 195.491 578.663 200.616 580.547" stroke="#282827" stroke-width="2" stroke-miterlimit="10"/>
<path d="M184.824 556.888L185.974 566.415" stroke="#282827" stroke-width="2" stroke-miterlimit="10"/>
<path d="M179.804 663.465C179.804 663.465 174.47 644.62 168.718 636.664C162.966 628.707 156.168 618.133 158.364 618.133C160.56 618.133 168.509 633.418 175.307 631.534C182.105 629.649 190.263 617.924 190.577 620.855C190.89 623.891 183.465 629.545 182.105 637.501C180.746 645.458 183.778 664.303 179.804 663.465Z" stroke="#282827" stroke-width="2" stroke-miterlimit="10"/>
<path d="M153.763 659.069C153.763 659.069 151.567 678.647 161.817 716.441" stroke="#282827" stroke-width="2" stroke-miterlimit="10"/>
<path d="M170.704 763.658C170.704 763.658 174.155 754.131 181.79 756.748C185.45 758.004 171.54 743.242 171.54 743.242" stroke="#282827" stroke-width="2" stroke-miterlimit="10"/>
<path d="M190.578 756.746C190.578 756.746 201.56 765.331 203.338 770.775" stroke="#282827" stroke-width="2" stroke-miterlimit="10"/>
<path d="M159.722 798.833C159.722 798.833 167.671 801.032 171.436 800.404" stroke="#282827" stroke-width="2" stroke-miterlimit="10"/>
<path d="M171.332 800.51C171.332 800.51 178.34 800.195 180.745 802.499" stroke="#282827" stroke-width="2" stroke-miterlimit="10"/>
<path d="M180.952 801.45C180.952 801.45 186.495 798.833 190.26 802.497" stroke="#282827" stroke-width="2" stroke-miterlimit="10"/>
<path d="M190.264 801.453C190.264 801.453 196.434 799.568 199.154 803.442" stroke="#282827" stroke-width="2" stroke-miterlimit="10"/>
<path d="M198.525 798.833C198.525 798.833 201.558 802.184 205.323 802.498C210.447 802.812 209.297 797.682 213.167 799.148" stroke="#282827" stroke-width="2" stroke-miterlimit="10"/>
<path d="M131.906 294.422C131.906 294.422 117.368 308.765 110.675 307.299C103.981 305.834 100.844 288.664 101.471 286.57C102.099 284.476 107.851 305.31 122.388 302.484" stroke="#282827" stroke-width="2" stroke-miterlimit="10"/>
<path d="M107.116 225.638C107.116 225.638 107.429 233.805 110.253 238.516" stroke="#282827" stroke-width="2" stroke-miterlimit="10"/>
<path d="M107.116 226.791C107.116 226.791 123.222 207.527 138.596 214.437C153.97 221.346 155.33 242.285 176.038 245.531C196.746 248.776 206.368 245.531 206.368 245.531" stroke="#282827" stroke-width="2" stroke-miterlimit="10"/>
<path d="M130.858 212.97C130.858 212.97 143.304 222.497 143.722 238.41C144.14 254.324 137.865 273.587 140.689 279.66" stroke="#282827" stroke-width="2" stroke-miterlimit="10"/>
<path d="M145.919 219.565C145.919 219.565 148.743 247.728 147.279 260.814C145.814 273.901 145.187 276.623 145.187 276.623" stroke="#282827" stroke-width="2" stroke-miterlimit="10"/>
<path d="M203.23 246.367C203.23 246.367 180.431 251.183 160.768 242.179C153.761 237.259 148.741 245.425 153.029 253.277C157.317 261.129 161.396 265.003 156.794 264.793C152.192 264.584 152.82 274.634 157.945 276.624C163.069 278.717 147.172 274.739 151.46 283.01C155.748 291.176 156.899 292.432 149.787 288.977" stroke="#282827" stroke-width="2" stroke-miterlimit="10"/>
<path d="M103.138 192.451C103.138 192.451 107.008 200.827 108.681 207.318C110.355 213.913 120.186 211.924 128.134 206.271C136.083 200.617 144.659 191.509 147.692 182.505C150.725 173.502 156.791 162.3 160.033 161.253" stroke="#282827" stroke-width="2" stroke-miterlimit="10"/>
<path d="M163.593 147.014C163.593 147.014 196.015 149.212 201.767 154.133C207.519 159.054 196.538 136.335 196.538 136.335" stroke="#282827" stroke-width="2" stroke-miterlimit="10"/>
<path d="M194.654 116.129C194.654 116.129 193.294 125.447 196.536 130.368" stroke="#282827" stroke-width="2" stroke-miterlimit="10"/>
<path d="M192.979 138.219C192.979 138.219 187.541 144.71 188.064 149.84" stroke="#282827" stroke-width="2" stroke-miterlimit="10"/>
<path d="M201.242 114.873C201.242 114.873 201.138 128.378 206.367 132.775" stroke="#282827" stroke-width="2" stroke-miterlimit="10"/>
<path d="M208.044 142.931C208.044 142.931 211.391 162.299 216.202 161.252C220.908 160.205 223.837 152.144 224.778 148.689C225.824 144.71 224.778 142.931 224.778 142.931" stroke="#282827" stroke-width="2" stroke-miterlimit="10"/>
<path d="M179.697 255.161C179.697 255.161 186.286 278.717 214.106 265.735" stroke="#282827" stroke-width="2" stroke-miterlimit="10"/>
<path d="M180.952 258.198C180.952 258.198 181.057 279.032 185.45 286.465C189.842 293.898 191.725 297.981 190.574 304.891C189.528 311.696 189.005 330.331 190.888 337.66C192.771 344.989 192.561 352.841 190.888 357.971C189.215 363.101 190.783 370.429 192.248 373.465" stroke="#282827" stroke-width="2" stroke-miterlimit="10"/>
<path d="M194.653 300.18C194.653 300.18 209.609 305.624 214.002 296.934" stroke="#282827" stroke-width="2" stroke-miterlimit="10"/>
<path d="M192.145 338.707C192.145 338.707 200.093 352.736 214.003 344.465" stroke="#282827" stroke-width="2" stroke-miterlimit="10"/>
<path d="M218.186 253.277V384.877" stroke="#282827" stroke-width="2" stroke-miterlimit="10"/>
<path d="M161.813 226.685C161.813 226.685 165.16 223.963 169.343 226.685C173.527 229.407 175.096 234.328 172.272 235.165C169.553 236.003 164.323 234.851 163.173 232.339C162.127 229.826 159.826 228.779 161.813 226.685Z" stroke="#282827" stroke-width="2" stroke-miterlimit="10"/>
<path d="M171.623 233.057C171.909 231.405 170.386 229.762 168.223 229.388C166.061 229.014 164.076 230.05 163.791 231.703C163.506 233.355 165.028 234.998 167.191 235.372C169.354 235.746 171.338 234.709 171.623 233.057Z" fill="#282827"/>
<path d="M215.992 210.458V235.48" stroke="#282827" stroke-width="2" stroke-miterlimit="10"/>
<path d="M217.036 171.407V180.62" stroke="#282827" stroke-width="2" stroke-miterlimit="10"/>
<path d="M182.732 69.2256C182.732 69.2256 175.515 65.1426 178.13 73.6228C179.803 79.2762 183.045 76.2401 183.464 79.3809" stroke="#282827" stroke-width="2" stroke-miterlimit="10"/>
<path d="M183.673 63.3635C183.673 63.3635 178.026 58.757 175.516 62.2119C173.11 65.6668 174.261 70.1686 174.261 70.1686" stroke="#282827" stroke-width="2" stroke-miterlimit="10"/>
<path d="M172.273 48.8109C172.273 48.8109 178.025 49.5438 178.862 53.1033C179.698 56.6629 179.803 58.338 179.803 58.338" stroke="#282827" stroke-width="2" stroke-miterlimit="10"/>
<path d="M189.425 62.9439C189.425 62.9439 182.732 53.9402 190.68 52.8933C198.629 51.8464 210.97 48.7056 212.225 55.9294C213.585 63.1533 214.317 70.7959 212.225 73.6226C210.133 76.4493 205.741 83.045 211.388 83.7778C216.095 83.7778 216.095 83.7778 216.095 83.7778H218.918" stroke="#282827" stroke-width="2" stroke-miterlimit="10"/>
<path d="M201.874 95.2956C201.874 95.2956 207.208 95.6097 208.986 94.0393C210.764 92.4689 216.098 91.4219 218.608 92.0501C221.118 92.783 226.661 95.0862 228.857 95.2956C231.158 95.4003 230.426 96.7613 227.916 97.3895C225.511 98.0176 220.595 102.519 209.718 99.2739C198.946 96.0284 201.874 95.2956 201.874 95.2956Z" stroke="#282827" stroke-width="2" stroke-miterlimit="10"/>
<path d="M191.516 65.4576C191.516 65.4576 196.955 56.8728 206.367 61.7934C211.701 65.2483 205.321 66.0858 205.321 66.0858C205.321 66.0858 193.189 67.3421 191.516 65.4576Z" stroke="#282827" stroke-width="2" stroke-miterlimit="10"/>
<path d="M200.513 66.3996C201.784 66.3996 202.814 64.9935 202.814 63.2588C202.814 61.5242 201.784 60.118 200.513 60.118C199.242 60.118 198.212 61.5242 198.212 63.2588C198.212 64.9935 199.242 66.3996 200.513 66.3996Z" stroke="#282827" stroke-width="2" stroke-miterlimit="10"/>
<path d="M200.617 64.5158C201.31 64.5158 201.873 63.9531 201.873 63.2589C201.873 62.5647 201.31 62.002 200.617 62.002C199.924 62.002 199.361 62.5647 199.361 63.2589C199.361 63.9531 199.924 64.5158 200.617 64.5158Z" fill="#282827"/>
<path d="M247.997 94.7723C247.997 94.7723 245.591 118.119 250.402 124.296C255.213 130.473 276.967 140.942 290.459 140.837C303.95 140.733 309.18 144.083 319.115 155.599C329.051 167.115 337.627 181.144 328.423 225.116C331.143 230.874 336.372 240.715 336.581 256.524C336.895 272.332 336.895 286.256 343.17 295.888C349.445 305.52 356.243 318.816 357.603 336.823C358.963 354.831 363.355 395.556 374.023 401.524C384.691 407.491 388.979 415.448 391.489 424.452C393.894 433.455 399.646 438.062 397.45 444.972C395.254 451.777 387.096 440.574 386.782 436.282C386.469 431.99 384.063 430.524 381.867 429.686C379.671 428.849 367.12 423.928 366.597 411.888C364.715 406.968 358.126 412.203 355.93 418.484C353.733 424.766 353.733 430.733 353.733 430.733" stroke="#282827" stroke-width="2" stroke-miterlimit="10"/>
<path d="M380.82 442.459C380.82 442.459 360.112 450.416 343.483 441.621" stroke="#282827" stroke-width="2" stroke-miterlimit="10"/>
<path d="M377.057 427.278C377.057 427.278 375.593 432.094 375.906 433.664C376.22 435.235 362.833 426.859 348.4 433.664" stroke="#282827" stroke-width="2" stroke-miterlimit="10"/>
<path d="M389.816 432.827C389.816 432.827 388.665 434.502 386.469 433.979" stroke="#282827" stroke-width="2" stroke-miterlimit="10"/>
<path d="M387.095 422.043C387.095 422.043 387.304 429.791 381.865 429.686C381.865 429.686 387.304 448.217 389.186 454.289C391.069 460.256 395.775 473.134 389.186 474.181C382.598 475.227 377.473 446.856 374.754 443.819C374.754 443.819 380.506 471.668 379.355 477.112C378.31 482.556 371.198 487.267 368.688 473.866C366.282 460.466 364.609 445.18 364.609 445.18C364.609 445.18 364.295 481.509 358.334 481.195C352.372 480.881 353.104 444.343 353.104 444.343C353.104 444.343 352.791 470.307 346.515 473.343C340.24 476.379 343.273 441.621 343.273 441.621C343.273 441.621 336.475 409.166 353.941 402.256" stroke="#282827" stroke-width="2" stroke-miterlimit="10"/>
<path d="M344.844 411.888C344.844 411.888 329.47 375.559 322.672 366.765C315.874 357.971 309.075 343.209 306.252 331.693C303.428 320.176 304.578 298.295 303.637 293.794C302.696 289.292 298.094 280.079 290.355 275.996C290.355 275.996 290.041 319.025 290.355 330.436C290.668 341.953 292.865 353.155 287.426 359.227C281.988 365.299 267.346 366.974 257.096 381.631C246.847 396.288 244.651 394.509 244.651 394.509" stroke="#282827" stroke-width="2" stroke-miterlimit="10"/>
<path d="M288.784 357.343C288.784 357.343 289.935 362.159 292.549 368.231C295.164 374.303 303.217 395.242 304.158 418.065C305.1 440.888 306.564 492.188 296.419 531.553C286.379 570.918 286.065 556.784 285.228 573.326C284.392 589.867 279.581 609.445 285.228 625.882C290.876 642.318 295.373 656.975 286.379 684.51C277.384 711.939 263.893 732.878 263.893 742.719C263.893 752.561 264.52 763.239 265.775 770.987C267.03 778.734 270.482 787.528 272.887 791.925C275.293 796.322 278.639 802.395 272.678 804.802C266.717 807.21 264.311 803.965 263.893 797.788C263.475 791.611 260.232 793.077 260.232 793.077" stroke="#282827" stroke-width="2" stroke-miterlimit="10"/>
<path d="M266.613 804.803C266.613 804.803 258.769 812.236 255.632 804.803C252.599 797.37 256.259 796.323 253.54 794.229" stroke="#282827" stroke-width="2" stroke-miterlimit="10"/>
<path d="M255.735 804.802C255.735 804.802 253.016 814.225 246.741 808.467C243.812 802.499 246.532 796.427 244.335 795.485" stroke="#282827" stroke-width="2" stroke-miterlimit="10"/>
<path d="M246.742 808.466C246.742 808.466 240.363 814.956 237.33 810.35C234.297 805.743 238.376 794.541 237.33 794.332" stroke="#282827" stroke-width="2" stroke-miterlimit="10"/>
<path d="M237.329 810.351C237.329 810.351 235.655 811.189 232.936 812.026C228.544 813.387 219.549 806.268 219.549 803.127C219.549 799.986 224.465 797.788 224.465 794.228C224.465 790.669 224.151 781.142 228.439 777.791C232.622 774.546 232.622 766.066 232.622 762.82C232.622 759.575 241.303 726.492 239.734 710.369C238.165 694.246 233.982 658.441 238.061 645.354C242.14 632.268 242.244 622.95 239.943 612.062C237.538 601.174 233.773 574.372 233.459 566.73C233.145 559.087 225.301 513.755 224.778 505.589C224.256 497.423 218.19 456.383 219.549 453.975C220.909 451.567 213.797 453.975 213.797 453.975" stroke="#282827" stroke-width="2" stroke-miterlimit="10"/>
<path d="M294.748 393.777C294.748 393.777 302.488 399.535 303.952 414.297" stroke="#282827" stroke-width="2" stroke-miterlimit="10"/>
<path d="M247.37 477.532C247.37 477.532 236.493 495.539 236.075 510.301C235.657 525.063 229.904 539.824 231.264 549.665" stroke="#282827" stroke-width="2" stroke-miterlimit="10"/>
<path d="M280.734 581.386C280.734 581.386 265.15 599.812 255.738 599.184C246.325 598.556 243.292 591.227 244.652 584.841C246.116 578.455 248.521 573.744 255.319 568.404C262.117 563.065 250.195 567.986 249.567 565.787C248.94 563.588 246.743 575 242.978 576.884C239.318 578.769 235.971 578.455 234.193 575" stroke="#282827" stroke-width="2" stroke-miterlimit="10"/>
<path d="M277.18 585.365C277.18 585.365 265.153 606.618 255.636 606.408C246.118 606.199 246.118 597.405 245.282 592.484C244.445 587.564 239.425 578.246 234.3 580.235" stroke="#282827" stroke-width="2" stroke-miterlimit="10"/>
<path d="M250.719 556.364L249.568 565.891" stroke="#282827" stroke-width="2" stroke-miterlimit="10"/>
<path d="M255.634 662.838C255.634 662.838 260.968 643.994 266.72 636.037C272.472 628.08 279.27 617.506 277.074 617.506C274.878 617.506 266.929 632.791 260.131 630.907C253.333 629.022 245.175 617.297 244.861 620.228C244.548 623.264 251.973 628.918 253.333 636.874C254.797 644.831 251.66 663.676 255.634 662.838Z" stroke="#282827" stroke-width="2" stroke-miterlimit="10"/>
<path d="M281.78 658.547C281.78 658.547 283.976 678.124 273.727 715.919" stroke="#282827" stroke-width="2" stroke-miterlimit="10"/>
<path d="M264.835 763.135C264.835 763.135 261.384 753.608 253.749 756.225C250.089 757.482 263.999 742.72 263.999 742.72" stroke="#282827" stroke-width="2" stroke-miterlimit="10"/>
<path d="M244.965 756.12C244.965 756.12 233.984 764.704 232.206 770.148" stroke="#282827" stroke-width="2" stroke-miterlimit="10"/>
<path d="M275.815 798.312C275.815 798.312 267.866 800.511 264.101 799.882" stroke="#282827" stroke-width="2" stroke-miterlimit="10"/>
<path d="M264.102 799.882C264.102 799.882 257.095 799.568 254.689 801.871" stroke="#282827" stroke-width="2" stroke-miterlimit="10"/>
<path d="M254.584 800.93C254.584 800.93 249.041 798.312 245.276 801.977" stroke="#282827" stroke-width="2" stroke-miterlimit="10"/>
<path d="M245.173 800.929C245.173 800.929 239.003 799.044 236.284 802.918" stroke="#282827" stroke-width="2" stroke-miterlimit="10"/>
<path d="M237.016 798.312C237.016 798.312 233.983 801.662 230.218 801.976C225.093 802.29 226.243 797.16 222.374 798.626" stroke="#282827" stroke-width="2" stroke-miterlimit="10"/>
<path d="M303.637 293.793C303.637 293.793 318.174 308.136 324.868 306.671C331.666 305.205 334.699 288.035 334.071 285.941C333.444 283.847 327.378 304.472 312.84 301.541" stroke="#282827" stroke-width="2" stroke-miterlimit="10"/>
<path d="M328.421 225.116C328.421 225.116 328.107 233.282 325.283 237.993" stroke="#282827" stroke-width="2" stroke-miterlimit="10"/>
<path d="M328.317 226.268C328.317 226.268 312.211 207.004 296.837 213.914C281.463 220.824 280.103 241.762 259.395 245.008C238.687 248.253 229.065 245.008 229.065 245.008" stroke="#282827" stroke-width="2" stroke-miterlimit="10"/>
<path d="M304.581 212.447C304.581 212.447 292.135 221.974 291.717 237.888C291.298 253.906 297.574 273.064 294.75 279.137" stroke="#282827" stroke-width="2" stroke-miterlimit="10"/>
<path d="M289.617 219.044C289.617 219.044 286.793 247.206 288.258 260.293C289.722 273.379 290.349 276.101 290.349 276.101" stroke="#282827" stroke-width="2" stroke-miterlimit="10"/>
<path d="M232.312 245.845C232.312 245.845 255.112 250.661 274.774 241.657C281.781 236.736 286.801 244.903 282.513 252.755C278.225 260.502 274.147 264.48 278.748 264.271C283.35 264.061 282.723 274.112 277.598 276.101C272.473 278.195 288.37 274.217 284.082 282.487C279.794 290.654 278.644 291.91 285.756 288.455" stroke="#282827" stroke-width="2" stroke-miterlimit="10"/>
<path d="M332.396 191.822C332.396 191.822 328.527 200.303 326.853 206.794C325.18 213.389 315.349 211.4 307.4 205.747C299.452 199.989 290.876 190.985 287.843 181.981C284.81 172.978 278.744 161.775 275.502 160.729" stroke="#282827" stroke-width="2" stroke-miterlimit="10"/>
<path d="M271.946 146.387C271.946 146.387 239.525 148.585 233.773 153.506C228.02 158.426 239.002 135.708 239.002 135.708" stroke="#282827" stroke-width="2" stroke-miterlimit="10"/>
<path d="M240.884 115.606C240.884 115.606 242.243 124.924 239.001 129.845" stroke="#282827" stroke-width="2" stroke-miterlimit="10"/>
<path d="M242.451 137.697C242.451 137.697 247.89 144.188 247.367 149.318" stroke="#282827" stroke-width="2" stroke-miterlimit="10"/>
<path d="M234.19 114.35C234.19 114.35 234.295 127.856 229.065 132.253" stroke="#282827" stroke-width="2" stroke-miterlimit="10"/>
<path d="M255.839 254.534C255.839 254.534 249.25 278.09 221.43 265.108" stroke="#282827" stroke-width="2" stroke-miterlimit="10"/>
<path d="M254.584 257.675C254.584 257.675 254.479 278.509 250.087 285.943C245.694 293.376 243.812 297.459 244.962 304.369C246.008 311.174 246.531 329.809 244.648 337.138C242.766 344.466 242.975 352.318 244.648 357.448C246.322 362.578 244.753 369.907 243.289 372.943" stroke="#282827" stroke-width="2" stroke-miterlimit="10"/>
<path d="M240.882 299.657C240.882 299.657 225.926 305.101 221.533 296.411" stroke="#282827" stroke-width="2" stroke-miterlimit="10"/>
<path d="M243.288 338.184C243.288 338.184 235.34 352.213 221.43 343.942" stroke="#282827" stroke-width="2" stroke-miterlimit="10"/>
<path d="M273.725 226.162C273.725 226.162 270.378 223.44 266.195 226.162C262.011 228.884 260.442 233.805 263.266 234.642C265.986 235.48 271.215 234.328 272.365 231.816C273.411 229.198 275.712 228.151 273.725 226.162Z" stroke="#282827" stroke-width="2" stroke-miterlimit="10"/>
<path d="M268.381 234.683C270.486 234.319 271.963 232.684 271.677 231.032C271.392 229.379 269.454 228.335 267.348 228.699C265.242 229.063 263.766 230.698 264.051 232.35C264.336 234.003 266.275 235.047 268.381 234.683Z" fill="#282827"/>
<path d="M215.26 83.7797C215.26 83.7797 216.306 87.0252 215.26 88.0722C214.214 89.1191 214.946 91.0036 216.306 90.4801C217.665 89.852 217.038 90.6895 218.502 90.5848C219.966 90.4801 219.234 87.7581 218.816 87.2346C218.397 86.7112 218.816 83.8844 218.816 83.8844C218.816 83.8844 218.816 83.8844 223.627 83.8844C229.379 83.1516 224.882 76.4512 222.79 73.5198C220.698 70.5884 221.43 62.8411 222.79 55.5125C224.15 48.0793 236.7 51.3248 244.648 52.3717C252.597 53.4187 245.903 62.6317 245.903 62.6317" stroke="#282827" stroke-width="2" stroke-miterlimit="10"/>
<path d="M244.021 64.8298C244.021 64.8298 238.583 56.245 229.17 61.1656C223.836 64.6204 230.216 65.458 230.216 65.458C230.216 65.458 242.348 66.7143 244.021 64.8298Z" stroke="#282827" stroke-width="2" stroke-miterlimit="10"/>
<path d="M235.028 65.7735C236.299 65.7735 237.329 64.3674 237.329 62.6327C237.329 60.8981 236.299 59.4919 235.028 59.4919C233.758 59.4919 232.728 60.8981 232.728 62.6327C232.728 64.3674 233.758 65.7735 235.028 65.7735Z" stroke="#282827" stroke-width="2" stroke-miterlimit="10"/>
<path d="M234.924 63.9942C235.617 63.9942 236.179 63.4314 236.179 62.7373C236.179 62.0431 235.617 61.4803 234.924 61.4803C234.23 61.4803 233.668 62.0431 233.668 62.7373C233.668 63.4314 234.23 63.9942 234.924 63.9942Z" fill="#282827"/>
<path d="M203.858 95.2952C203.858 95.2952 211.388 96.1327 215.049 96.1327C218.709 96.1327 224.148 95.7139 226.135 95.7139C228.017 95.7139 229.795 95.7139 229.795 95.7139" stroke="#282827" stroke-width="2" stroke-miterlimit="10"/>
<path d="M209.713 77.7065C209.713 77.7065 215.465 74.2516 217.975 74.2516C220.485 74.2516 224.459 76.5548 225.401 77.4971" stroke="#282827" stroke-width="2" stroke-miterlimit="10"/>
<path d="M245.794 38.7603C245.794 38.7603 251.128 52.4751 257.717 48.8108" stroke="#282827" stroke-width="2" stroke-miterlimit="10"/>
<path d="M250.19 72.6817C250.19 72.6817 251.34 66.2955 254.164 68.7034C255.837 70.1691 252.491 76.8695 252.491 76.8695" stroke="#282827" stroke-width="2" stroke-miterlimit="10"/>
<path d="M250.188 67.0268C250.188 67.0268 249.979 58.1279 255.94 56.8716" stroke="#282827" stroke-width="2" stroke-miterlimit="10"/>
<path d="M251.023 79.1725L248.722 88.2808" stroke="#282827" stroke-width="2" stroke-miterlimit="10"/>
<path d="M183.467 80.9518C183.467 80.9518 182.839 85.0348 183.676 86.7099" stroke="#282827" stroke-width="2" stroke-miterlimit="10"/>
<path d="M250.709 62.8399C250.709 62.8399 255.31 58.1287 257.611 62.9446C259.912 67.8652 255.206 71.4248 255.833 74.2515C256.461 77.0782 250.081 82.4176 250.081 82.4176" stroke="#282827" stroke-width="2" stroke-miterlimit="10"/>
<path d="M641.58 0.891698C641.58 0.891698 633.736 2.56679 631.644 4.97474C629.552 7.38268 620.767 8.42962 617.106 11.1516C613.446 13.9784 608.74 24.7618 608.53 30.2058C608.321 35.6499 605.184 44.6535 607.275 49.9929C609.367 55.4369 611.668 58.0543 613.864 62.242C616.061 66.4297 618.257 72.0832 617.943 77.2131C617.629 82.3431 622.336 82.5525 624.637 89.0435C626.937 95.5345 630.389 98.1518 637.501 100.664C644.612 103.072 656.222 100.56 660.3 100.35C664.379 100.246 669.818 100.141 672.119 95.3251C674.419 90.5092 678.603 87.9966 680.381 81.9243C681.95 76.6897 687.179 63.3936 690.212 59.1012C693.036 55.1228 690.526 51.3539 692.199 46.1192C693.872 40.8845 693.454 28.112 689.48 20.4693C685.506 12.8267 687.388 11.8845 680.067 7.1733C672.746 2.56679 664.379 0.787004 659.987 0.0541509C655.594 -0.259929 641.58 0.891698 641.58 0.891698Z" stroke="#282827" stroke-width="2" stroke-miterlimit="10"/>
<path d="M617.945 78.7839C617.945 78.7839 616.481 87.2641 619.514 93.0222C622.547 98.7804 620.56 110.401 620.56 114.17C620.56 117.835 620.351 125.687 617.631 127.466" stroke="#282827" stroke-width="2" stroke-miterlimit="10"/>
<path d="M682.26 76.4795C682.26 76.4795 682.574 84.9597 679.436 90.7178C676.403 96.4759 678.391 108.097 678.391 111.866C678.391 115.635 678.6 123.382 681.319 125.162" stroke="#282827" stroke-width="2" stroke-miterlimit="10"/>
<path d="M492.545 422.492C492.545 422.492 485.538 431.286 485.642 432.333C485.747 433.38 486.898 437.463 484.91 441.441C482.923 445.42 482.923 445.42 482.923 445.42" stroke="#282827" stroke-width="2" stroke-miterlimit="10"/>
<path d="M484.91 447.095C484.91 447.095 491.395 447.933 492.545 449.817" stroke="#282827" stroke-width="2" stroke-miterlimit="10"/>
<path d="M481.77 459.553C481.77 459.553 484.071 462.485 487 462.066" stroke="#282827" stroke-width="2" stroke-miterlimit="10"/>
<path d="M628.615 103.073C628.615 103.073 623.909 121.29 619.516 125.791C615.124 130.293 607.175 132.806 600.168 135.423C593.161 138.04 595.461 141.181 586.885 140.134C578.309 139.087 571.511 144.636 566.177 142.752C560.844 140.867 558.856 148.929 555.3 152.174C551.849 155.42 541.809 163.69 539.926 174.264C538.044 184.943 533.337 188.398 535.848 201.903C538.253 215.409 540.972 222.633 547.143 221.167C553.313 219.701 551.222 215.409 554.464 216.246" stroke="#282827" stroke-width="2" stroke-miterlimit="10"/>
<path d="M540.133 217.189C540.133 217.189 540.97 226.298 537.937 232.475C534.904 238.652 533.44 250.901 533.858 259.904C534.277 268.908 536.159 278.959 533.754 282.832C531.348 286.706 528.524 299.374 522.563 302.724C516.602 305.969 513.569 322.616 513.15 327.746C512.732 332.876 509.908 350.255 509.699 357.06C509.49 363.865 507.084 370.356 505.829 373.287C504.574 376.114 501.96 395.587 497.253 401.764C492.547 407.941 487.422 415.06 483.971 417.991C480.52 420.818 477.068 428.67 476.022 432.334C474.872 435.999 472.257 436.627 472.153 442.594C472.048 448.562 471.316 454.32 474.558 454.32C477.8 454.32 479.997 445.944 483.03 445.735C486.063 445.526 485.226 450.865 483.971 454.739C482.716 458.612 478.323 466.046 476.964 470.861C475.604 475.677 476.545 478.609 479.265 479.132C481.879 479.656 484.808 477.562 486.167 473.688C487.527 469.814 492.442 459.869 493.593 458.508C494.848 457.147 494.952 450.97 495.475 451.284C495.998 451.598 495.162 463.219 493.907 467.092C492.652 470.861 490.455 481.226 491.083 484.053C491.71 486.879 497.881 489.183 499.345 487.822C500.914 486.461 502.483 483.634 502.273 477.771C502.064 471.908 503.319 468.663 503.424 465.417C503.528 462.172 504.574 454.634 505.725 454.11C506.875 453.587 507.921 458.403 507.189 464.37C506.457 470.338 508.235 476.515 508.13 480.074C508.026 483.529 509.804 485.833 512.418 485.728C515.033 485.623 517.125 480.074 516.811 476.62C516.497 473.165 515.137 464.789 515.347 461.753C515.556 458.717 516.497 452.435 517.857 453.901C519.216 455.367 521.308 460.916 520.89 465.731C520.471 470.547 519.425 476.724 522.458 477.771C525.387 478.923 529.257 476.934 528.838 471.594C528.42 466.255 526.851 453.587 526.851 450.551C526.851 447.619 528.838 435.999 529.989 431.287C531.139 426.576 527.583 417.573 526.328 412.443C525.073 407.313 525.91 405.219 528.838 403.544C531.767 401.869 553.311 361.876 556.867 354.128C560.423 346.486 564.502 325.966 564.502 318.637C564.502 311.309 567.744 298.955 564.502 296.233" stroke="#282827" stroke-width="2" stroke-miterlimit="10"/>
<path d="M558.748 302.619C558.748 302.619 569.624 291.103 571.612 286.496C573.494 281.89 575.69 270.897 575.69 270.897" stroke="#282827" stroke-width="2" stroke-miterlimit="10"/>
<path d="M540.238 262.94C540.238 262.94 545.991 255.297 548.396 249.853C550.802 244.409 553.834 244.409 556.345 252.052C558.75 259.694 561.26 266.814 563.979 267.023C566.699 267.337 571.3 259.904 573.81 256.449C576.32 252.994 576.843 256.449 576.843 256.449" stroke="#282827" stroke-width="2" stroke-miterlimit="10"/>
<path d="M567.221 207.557C567.221 207.557 570.777 218.864 573.182 221.377C575.588 223.889 571.509 227.239 576.738 233.207C581.968 239.175 582.7 244.409 583.327 250.377C583.85 256.344 583.327 264.824 585.21 267.023" stroke="#282827" stroke-width="2" stroke-miterlimit="10"/>
<path d="M574.542 229.542C574.542 229.542 576.529 250.69 576.216 257.705C575.902 264.719 572.66 279.586 576.739 286.705C580.818 293.824 585.419 306.387 583.328 316.752C581.131 327.117 580.085 330.676 583.85 347.846C587.616 365.016 573.183 360.723 569.104 386.373C565.025 412.023 561.992 414.745 562.515 427.099C563.038 439.348 562.201 490.229 569.104 507.922C575.902 525.72 580.608 538.492 582.7 551.579C584.792 564.666 580.818 583.511 582.386 592.305C584.06 600.994 585.106 612.825 580.504 629.471C575.902 646.117 575.065 668.836 580.19 681.399C585.315 693.962 603.617 726.731 606.127 753.219C608.533 779.706 607.173 784.627 603.931 791.222C600.689 797.818 590.021 801.901 595.773 809.02C601.526 816.139 640.536 814.255 642.419 811.742C644.301 809.334 650.367 804.099 645.138 796.771C639.909 789.442 636.98 784.731 639.386 779.811C641.791 774.89 643.255 774.576 638.34 765.049C633.424 755.522 632.065 747.565 632.378 743.482C632.692 739.399 627.986 688.832 631.019 683.702C634.052 678.467 635.098 671.453 635.62 656.168C636.143 640.883 633.424 612.197 608.637 609.789" stroke="#282827" stroke-width="2" stroke-miterlimit="10"/>
<path d="M625.161 617.327C625.161 617.327 629.449 605.182 635.097 600.262C640.849 595.341 642.732 562.886 643.045 558.699C643.359 554.511 641.163 509.493 644.405 504.886C647.647 500.28 650.157 455.052 650.157 450.132" stroke="#282827" stroke-width="2" stroke-miterlimit="10"/>
<path d="M588.765 447.096C588.765 447.096 583.536 437.255 597.76 439.14C611.983 441.024 643.882 442.385 642.732 416.212" stroke="#282827" stroke-width="2" stroke-miterlimit="10"/>
<path d="M594.725 443.746C594.725 443.746 623.382 446.468 629.971 443.746C636.56 441.024 647.123 435.789 650.156 428.147" stroke="#282827" stroke-width="2" stroke-miterlimit="10"/>
<path d="M587.824 383.127C587.824 383.127 592.426 361.875 604.872 358.524" stroke="#282827" stroke-width="2" stroke-miterlimit="10"/>
<path d="M581.862 323.976C581.862 323.976 587.405 335.283 593.367 339.157C599.328 343.031 596.295 345.753 596.295 345.753" stroke="#282827" stroke-width="2" stroke-miterlimit="10"/>
<path d="M589.498 296.337C589.498 296.337 609.265 289.218 609.474 277.492" stroke="#282827" stroke-width="2" stroke-miterlimit="10"/>
<path d="M576.738 205.882C576.738 205.882 584.059 222.529 599.433 227.763C614.912 232.998 618.991 229.229 623.592 221.377C628.194 213.525 627.985 203.16 625.998 200.124" stroke="#282827" stroke-width="2" stroke-miterlimit="10"/>
<path d="M625.161 139.82C625.161 139.82 641.686 142.019 647.334 170.914" stroke="#282827" stroke-width="2" stroke-miterlimit="10"/>
<path d="M665.951 150.708C665.951 150.708 656.12 162.748 659.989 170.914" stroke="#282827" stroke-width="2" stroke-miterlimit="10"/>
<path d="M647.334 209.757C647.334 209.757 640.431 239.804 642.836 253.414C645.242 267.024 646.601 279.587 644.823 286.706C643.046 293.825 635.62 306.389 625.161 305.865" stroke="#282827" stroke-width="2" stroke-miterlimit="10"/>
<path d="M653.925 286.706C653.925 286.706 654.134 300.316 662.501 302.515C670.868 304.713 679.026 305.76 677.352 311.204C675.679 316.648 669.194 311.204 669.194 311.204" stroke="#282827" stroke-width="2" stroke-miterlimit="10"/>
<path d="M650.156 363.236C650.156 363.236 638.757 367.633 642.835 377.474" stroke="#282827" stroke-width="2" stroke-miterlimit="10"/>
<path d="M650.156 416.212V456.1" stroke="#282827" stroke-width="2" stroke-miterlimit="10"/>
<path d="M591.379 620.991C591.379 620.991 577.888 645.175 582.385 664.858" stroke="#282827" stroke-width="2" stroke-miterlimit="10"/>
<path d="M603.199 675.118C603.199 675.118 611.357 679.62 619.619 677.945C627.777 676.269 622.443 670.197 630.705 670.197" stroke="#282827" stroke-width="2" stroke-miterlimit="10"/>
<path d="M582.597 686.529C582.597 686.529 599.121 693.858 603.2 705.793C607.279 717.623 609.789 720.136 615.019 712.389C620.248 704.641 619.934 701.71 628.092 701.71" stroke="#282827" stroke-width="2" stroke-miterlimit="10"/>
<path d="M610.941 740.656C610.941 740.656 626.106 775.938 616.902 797.609" stroke="#282827" stroke-width="2" stroke-miterlimit="10"/>
<path d="M625.162 749.241C625.162 749.241 624.116 765.259 630.6 777.508C637.084 789.758 633.842 792.27 633.842 792.27" stroke="#282827" stroke-width="2" stroke-miterlimit="10"/>
<path d="M606.648 784C606.648 784 611.355 788.397 615.434 787.769" stroke="#282827" stroke-width="2" stroke-miterlimit="10"/>
<path d="M604.036 791.223C604.036 791.223 608.22 790.699 611.043 797.609" stroke="#282827" stroke-width="2" stroke-miterlimit="10"/>
<path d="M642.627 530.956C642.627 530.956 633.528 530.432 628.194 545.717C622.86 561.003 616.48 582.884 599.956 571.891" stroke="#282827" stroke-width="2" stroke-miterlimit="10"/>
<path d="M507.083 422.598C507.083 422.598 499.449 423.54 497.252 431.706C495.056 439.872 493.801 441.966 497.252 442.804C500.704 443.641 508.548 441.757 511.371 442.804C514.195 443.851 512.94 423.854 510.953 423.121C508.966 422.388 507.083 422.598 507.083 422.598Z" stroke="#282827" stroke-width="2" stroke-miterlimit="10"/>
<path d="M509.388 422.074C509.388 422.074 502.067 430.345 503.427 442.803" stroke="#282827" stroke-width="2" stroke-miterlimit="10"/>
<path d="M517.124 430.241C517.438 430.45 520.993 437.046 519.843 441.548" stroke="#282827" stroke-width="2" stroke-miterlimit="10"/>
<path d="M497.774 449.295C497.774 449.295 499.761 451.807 502.69 450.76" stroke="#282827" stroke-width="2" stroke-miterlimit="10"/>
<path d="M506.976 450.132C506.976 450.132 512.833 451.597 513.984 450.132" stroke="#282827" stroke-width="2" stroke-miterlimit="10"/>
<path d="M526.954 448.457C526.954 448.457 523.502 450.76 520.992 449.295" stroke="#282827" stroke-width="2" stroke-miterlimit="10"/>
<path d="M495.056 464.894C495.056 464.894 501.436 465.312 503.214 467.511" stroke="#282827" stroke-width="2" stroke-miterlimit="10"/>
<path d="M507.085 463.219C507.085 463.219 510.432 467.093 515.347 465.313" stroke="#282827" stroke-width="2" stroke-miterlimit="10"/>
<path d="M491.922 474.734C491.922 474.734 496.105 472.849 499.243 475.781" stroke="#282827" stroke-width="2" stroke-miterlimit="10"/>
<path d="M507.085 471.698C507.085 471.698 509.804 477.038 516.393 474.211" stroke="#282827" stroke-width="2" stroke-miterlimit="10"/>
<path d="M520.367 459.555C520.367 459.555 524.028 457.88 526.956 459.555" stroke="#282827" stroke-width="2" stroke-miterlimit="10"/>
<path d="M520.891 465.312C520.891 465.312 523.715 464.894 526.957 467.511" stroke="#282827" stroke-width="2" stroke-miterlimit="10"/>
<path d="M671.911 102.34C671.911 102.34 676.617 120.557 681.01 125.059C685.403 129.561 693.351 132.073 700.358 134.691C707.366 137.308 705.065 140.449 713.641 139.402C722.217 138.355 729.015 143.904 734.349 142.019C739.683 140.135 741.67 148.196 745.226 151.442C748.677 154.687 758.717 162.958 760.6 173.532C762.482 184.211 767.189 187.665 764.679 201.171C762.273 214.676 759.554 221.9 753.383 220.434C747.213 218.969 749.305 214.676 746.062 215.514" stroke="#282827" stroke-width="2" stroke-miterlimit="10"/>
<path d="M760.283 216.455C760.283 216.455 759.447 225.564 762.48 231.74C765.513 237.917 766.977 250.166 766.558 259.17C766.14 268.174 764.258 278.224 766.663 282.098C769.069 285.972 771.892 298.639 777.854 301.99C783.815 305.235 786.848 321.881 787.266 327.011C787.685 332.141 790.509 349.52 790.718 356.325C790.927 363.131 793.332 369.622 794.587 372.553C795.842 375.38 798.457 394.853 803.164 401.03C807.87 407.206 812.995 414.326 816.446 417.257C819.897 420.188 823.349 427.936 824.394 431.6C825.545 435.264 828.16 435.892 828.264 441.86C828.369 447.827 829.101 453.586 825.859 453.586C822.616 453.586 820.42 445.21 817.387 445.001C814.354 444.791 815.191 450.131 816.446 454.004C817.701 457.878 822.094 465.311 823.453 470.127C824.813 474.943 823.872 477.874 821.152 478.398C818.433 478.921 815.609 476.828 814.25 472.954C812.89 469.08 807.974 459.134 806.824 457.773C805.569 456.412 805.464 450.235 804.941 450.55C804.419 450.864 805.255 462.485 806.51 466.358C807.765 470.232 809.962 480.492 809.334 483.319C808.707 486.145 802.536 488.449 801.072 487.087C799.503 485.726 797.934 482.9 798.143 477.037C798.353 471.174 797.098 467.929 796.993 464.683C796.888 461.438 795.843 453.9 794.692 453.376C793.542 452.853 792.496 457.669 793.228 463.636C793.96 469.604 792.182 475.781 792.287 479.34C792.391 482.9 790.613 485.098 787.999 484.994C785.384 484.889 783.292 479.34 783.606 475.885C783.92 472.43 785.279 464.055 785.07 461.019C784.861 457.983 783.92 451.701 782.56 453.167C781.2 454.633 779.109 460.181 779.527 464.997C779.945 469.813 780.991 475.99 777.958 477.037C775.03 478.189 771.16 476.199 771.579 470.86C771.997 465.521 773.566 452.853 773.566 449.817C773.566 446.885 771.579 435.264 770.428 430.553C769.173 425.842 772.834 416.838 774.089 411.708C775.344 406.578 774.507 404.484 771.579 402.809C768.65 401.134 747.106 361.141 743.55 353.394C739.994 345.751 735.915 325.232 735.915 317.903C735.915 310.575 732.673 298.221 735.915 295.499" stroke="#282827" stroke-width="2" stroke-miterlimit="10"/>
<path d="M741.772 301.885C741.772 301.885 730.895 290.368 728.908 285.762C727.025 281.155 724.829 270.163 724.829 270.163" stroke="#282827" stroke-width="2" stroke-miterlimit="10"/>
<path d="M760.281 262.311C760.281 262.311 754.529 254.668 752.124 249.224C749.718 243.78 746.685 243.78 744.175 251.422C741.77 259.065 739.26 266.184 736.54 266.394C733.821 266.603 729.219 259.274 726.709 255.82C724.304 252.469 723.676 255.82 723.676 255.82" stroke="#282827" stroke-width="2" stroke-miterlimit="10"/>
<path d="M733.304 206.823C733.304 206.823 729.748 218.13 727.343 220.643C724.937 223.155 729.016 226.506 723.787 232.473C718.558 238.441 717.825 243.675 717.198 249.643C716.57 255.61 717.198 264.09 715.315 266.289" stroke="#282827" stroke-width="2" stroke-miterlimit="10"/>
<path d="M725.98 228.913C725.98 228.913 723.993 250.062 724.307 257.076C724.621 264.195 727.863 278.957 723.784 286.076C719.705 293.195 715.103 305.758 717.195 316.123C719.391 326.488 720.437 330.047 716.672 347.217C712.907 364.387 727.34 360.094 731.419 385.744C735.498 411.394 738.531 414.116 738.008 426.47C737.485 438.719 738.321 489.6 731.419 507.293C724.621 525.091 719.914 537.864 717.823 550.95C715.626 564.037 719.705 582.882 718.136 591.676C716.463 600.365 715.417 612.196 720.019 628.842C724.621 645.488 725.457 668.207 720.333 680.77C715.103 693.333 696.905 726.102 694.395 752.59C691.99 779.077 693.349 783.998 696.592 790.593C699.834 797.189 710.502 801.272 704.749 808.391C698.997 815.51 659.987 813.626 658.104 811.113C656.222 808.705 650.156 803.471 655.385 796.142C660.614 788.813 663.543 784.102 661.137 779.182C658.732 774.261 657.267 773.947 662.183 764.42C667.098 754.893 668.458 746.936 668.144 742.853C667.831 738.77 672.537 688.203 669.504 683.073C666.471 677.839 665.425 670.824 664.902 655.539C664.379 640.254 667.098 611.568 691.885 609.16" stroke="#282827" stroke-width="2" stroke-miterlimit="10"/>
<path d="M675.361 616.698C675.361 616.698 671.073 604.553 665.425 599.633C659.673 594.712 657.79 562.257 657.477 558.07C657.163 553.882 659.359 508.864 656.117 504.257C652.875 499.651 650.365 454.423 650.365 449.503" stroke="#282827" stroke-width="2" stroke-miterlimit="10"/>
<path d="M711.753 446.362C711.753 446.362 716.982 436.521 702.758 438.405C688.535 440.29 656.636 441.651 657.786 415.477" stroke="#282827" stroke-width="2" stroke-miterlimit="10"/>
<path d="M705.692 443.116C705.692 443.116 677.036 445.838 670.447 443.116C663.858 440.394 653.295 435.159 650.262 427.517" stroke="#282827" stroke-width="2" stroke-miterlimit="10"/>
<path d="M712.595 382.393C712.595 382.393 707.993 361.14 695.547 357.79" stroke="#282827" stroke-width="2" stroke-miterlimit="10"/>
<path d="M718.553 323.242C718.553 323.242 713.01 334.549 707.049 338.423C701.087 342.296 704.12 345.018 704.12 345.018" stroke="#282827" stroke-width="2" stroke-miterlimit="10"/>
<path d="M711.021 295.603C711.021 295.603 691.255 288.484 691.046 276.758" stroke="#282827" stroke-width="2" stroke-miterlimit="10"/>
<path d="M723.679 205.149C723.679 205.149 716.358 221.795 700.984 227.03C685.506 232.265 681.427 228.496 676.825 220.644C672.223 212.792 672.432 202.427 674.42 199.391" stroke="#282827" stroke-width="2" stroke-miterlimit="10"/>
<path d="M675.358 139.087C675.358 139.087 658.834 141.285 653.186 170.18" stroke="#282827" stroke-width="2" stroke-miterlimit="10"/>
<path d="M650.365 362.503C650.365 362.503 661.765 366.9 657.686 376.741" stroke="#282827" stroke-width="2" stroke-miterlimit="10"/>
<path d="M650.365 415.477V455.366" stroke="#282827" stroke-width="2" stroke-miterlimit="10"/>
<path d="M709.142 620.362C709.142 620.362 722.634 644.546 718.136 664.229" stroke="#282827" stroke-width="2" stroke-miterlimit="10"/>
<path d="M697.218 674.384C697.218 674.384 689.06 678.885 680.798 677.21C672.64 675.535 677.974 669.463 669.712 669.463" stroke="#282827" stroke-width="2" stroke-miterlimit="10"/>
<path d="M717.825 685.9C717.825 685.9 701.3 693.228 697.221 705.163C693.142 716.994 690.632 719.506 685.403 711.759C680.069 704.012 680.488 701.08 672.33 701.08" stroke="#282827" stroke-width="2" stroke-miterlimit="10"/>
<path d="M689.479 739.923C689.479 739.923 674.314 775.204 683.517 796.876" stroke="#282827" stroke-width="2" stroke-miterlimit="10"/>
<path d="M675.362 748.507C675.362 748.507 676.408 764.525 669.924 776.774C663.335 789.023 666.682 791.536 666.682 791.536" stroke="#282827" stroke-width="2" stroke-miterlimit="10"/>
<path d="M693.769 783.37C693.769 783.37 689.062 787.767 684.983 787.139" stroke="#282827" stroke-width="2" stroke-miterlimit="10"/>
<path d="M696.485 790.488C696.485 790.488 692.301 789.965 689.477 796.875" stroke="#282827" stroke-width="2" stroke-miterlimit="10"/>
<path d="M657.895 530.221C657.895 530.221 666.994 529.698 672.328 544.983C677.662 560.268 684.041 582.149 700.566 571.156" stroke="#282827" stroke-width="2" stroke-miterlimit="10"/>
<path d="M793.437 421.864C793.437 421.864 801.072 422.806 803.268 430.972C805.464 439.138 806.719 441.232 803.268 442.069C799.817 442.907 791.973 441.022 789.149 442.069C786.325 443.116 787.58 423.12 789.567 422.387C791.555 421.654 793.437 421.864 793.437 421.864Z" stroke="#282827" stroke-width="2" stroke-miterlimit="10"/>
<path d="M791.033 421.341C791.033 421.341 798.354 429.612 796.994 442.07" stroke="#282827" stroke-width="2" stroke-miterlimit="10"/>
<path d="M783.293 429.506C782.979 429.716 779.424 436.312 780.574 440.813" stroke="#282827" stroke-width="2" stroke-miterlimit="10"/>
<path d="M802.744 448.56C802.744 448.56 800.757 451.072 797.829 450.025" stroke="#282827" stroke-width="2" stroke-miterlimit="10"/>
<path d="M793.541 449.4C793.541 449.4 787.684 450.865 786.534 449.4" stroke="#282827" stroke-width="2" stroke-miterlimit="10"/>
<path d="M773.565 447.723C773.565 447.723 777.016 450.026 779.526 448.56" stroke="#282827" stroke-width="2" stroke-miterlimit="10"/>
<path d="M805.359 464.159C805.359 464.159 798.979 464.578 797.201 466.777" stroke="#282827" stroke-width="2" stroke-miterlimit="10"/>
<path d="M793.331 462.485C793.331 462.485 789.985 466.359 785.069 464.579" stroke="#282827" stroke-width="2" stroke-miterlimit="10"/>
<path d="M808.606 474.107C808.606 474.107 804.422 472.222 801.285 475.154" stroke="#282827" stroke-width="2" stroke-miterlimit="10"/>
<path d="M793.333 470.964C793.333 470.964 790.614 476.303 784.025 473.477" stroke="#282827" stroke-width="2" stroke-miterlimit="10"/>
<path d="M780.154 458.82C780.154 458.82 776.493 457.145 773.565 458.82" stroke="#282827" stroke-width="2" stroke-miterlimit="10"/>
<path d="M779.631 464.682C779.631 464.682 776.807 464.264 773.565 466.881" stroke="#282827" stroke-width="2" stroke-miterlimit="10"/>
<path d="M478.005 467.51C478.005 467.51 481.248 470.232 485.954 470.651" stroke="#282827" stroke-width="2" stroke-miterlimit="10"/>
<path d="M471.941 439.766C472.359 439.766 480.203 444.791 486.06 437.149" stroke="#282827" stroke-width="2" stroke-miterlimit="10"/>
<path d="M807.665 421.445C807.665 421.445 814.672 430.24 814.568 431.286C814.463 432.333 813.313 436.416 815.3 440.395C817.287 444.373 817.287 444.373 817.287 444.373" stroke="#282827" stroke-width="2" stroke-miterlimit="10"/>
<path d="M828.271 438.616C827.853 438.616 820.009 443.641 814.152 435.999" stroke="#282827" stroke-width="2" stroke-miterlimit="10"/>
<path d="M622.548 71.8743C623.908 73.7587 626.627 78.1559 628.509 83.5999C630.392 89.044 632.275 91.5566 636.144 92.6036" stroke="#282827" stroke-width="2" stroke-miterlimit="10"/>
<path d="M625.16 60.5663C625.16 60.5663 625.893 67.6854 631.017 71.7685C636.247 75.8515 639.175 77.736 639.489 82.1331C639.802 86.5302 639.489 89.2523 642.731 90.6133" stroke="#282827" stroke-width="2" stroke-miterlimit="10"/>
<path d="M671.177 30.8346C671.177 30.8346 677.138 40.9898 674.21 48.6325C671.281 56.2751 671.177 53.8671 666.052 62.0332C660.823 70.1993 655.175 70.1993 655.907 75.6433" stroke="#282827" stroke-width="2" stroke-miterlimit="10"/>
<path d="M685.086 58.1592C685.086 58.1592 677.765 62.0328 677.138 67.4769C676.51 72.9209 676.301 74.282 672.745 78.7838C669.189 83.2856 662.809 86.3217 662.496 89.3578C662.182 92.3939 663.646 92.0798 659.044 94.2784" stroke="#282827" stroke-width="2" stroke-miterlimit="10"/>
<path d="M612.398 59.7283C612.398 59.7283 609.783 65.5911 611.979 69.6742C614.176 73.7572 615.117 79.3059 615.326 82.2374C615.431 84.3312 616.581 85.7969 617.209 86.4251C617.313 86.5298 617.209 86.7392 616.999 86.7392C615.431 86.5298 611.456 85.3782 610.62 80.7716C609.574 75.0135 608.633 74.8041 606.541 68.7319C604.449 62.7644 610.62 56.7969 610.62 56.7969" stroke="#282827" stroke-width="2" stroke-miterlimit="10"/>
<path d="M689.687 59.5206C689.687 59.5206 692.092 64.86 690.001 68.943C687.804 73.026 688.327 79.0983 686.654 81.5062C685.399 83.286 684.458 83.286 683.516 84.0188C681.32 85.5892 681.111 86.1127 681.32 86.1127C682.889 85.9033 690.524 84.7517 691.36 80.1452C692.406 74.387 693.347 74.1777 695.439 68.1054C697.531 62.0332 691.36 56.1704 691.36 56.1704" stroke="#282827" stroke-width="2" stroke-miterlimit="10"/>
</g>
<defs>
<clipPath id="clip0_2292_23152">
<rect width="866" height="814" fill="white"/>
</clipPath>
</defs>
</svg>
