<?xml version="1.0" standalone="no"?>
<!DOCTYPE svg PUBLIC "-//W3C//DTD SVG 20010904//EN"
 "http://www.w3.org/TR/2001/REC-SVG-20010904/DTD/svg10.dtd">
<svg version="1.0" xmlns="http://www.w3.org/2000/svg"
 width="512.000000pt" height="512.000000pt" viewBox="0 0 512.000000 512.000000"
 preserveAspectRatio="xMidYMid meet">

<g transform="translate(0.000000,512.000000) scale(0.100000,-0.100000)"
fill="#000000" stroke="none">
<path d="M2224 5006 c-83 -39 -133 -121 -134 -221 -3 -267 -265 -483 -531
-437 -89 15 -159 48 -229 108 -68 58 -122 83 -179 84 -97 0 -112 -10 -328
-223 -220 -218 -243 -250 -243 -339 0 -66 23 -117 84 -188 60 -70 93 -140 108
-229 46 -266 -170 -528 -437 -531 -100 -1 -182 -51 -221 -134 -23 -50 -24 -57
-24 -336 0 -279 1 -286 24 -336 39 -83 121 -133 221 -134 267 -3 483 -265 437
-531 -15 -89 -48 -159 -108 -229 -60 -70 -84 -122 -84 -186 0 -89 18 -115 223
-323 211 -212 251 -241 342 -241 63 0 115 24 185 84 149 127 326 150 508 64
146 -68 251 -232 252 -393 1 -100 51 -182 134 -221 50 -23 57 -24 336 -24 279
0 286 1 336 24 83 39 133 121 134 221 1 160 104 320 250 391 181 88 360 66
510 -62 70 -60 122 -84 185 -84 88 0 125 26 329 228 207 205 236 247 236 337
0 63 -24 115 -84 185 -128 150 -150 329 -62 510 71 146 231 249 391 250 100 1
182 51 221 134 23 50 24 57 24 336 0 279 -1 286 -24 336 -39 83 -121 133 -221
134 -160 1 -320 104 -391 250 -88 181 -66 360 62 510 60 70 84 122 84 185 0
88 -26 125 -228 329 -205 207 -247 236 -337 236 -63 0 -115 -24 -185 -84 -70
-60 -140 -93 -229 -108 -266 -46 -528 170 -531 437 -1 100 -51 182 -134 221
-50 23 -57 24 -336 24 -279 0 -286 -1 -336 -24z m631 -139 c24 -20 28 -34 36
-111 26 -253 172 -440 409 -522 197 -69 420 -25 583 116 47 40 66 50 95 50 34
0 49 -13 229 -193 180 -180 193 -195 193 -229 0 -29 -10 -48 -50 -95 -141
-163 -185 -386 -116 -583 82 -237 269 -383 522 -409 77 -8 91 -12 111 -36 23
-26 23 -29 23 -295 0 -266 0 -269 -23 -295 -20 -24 -34 -28 -111 -36 -254 -26
-440 -171 -522 -409 -69 -197 -25 -420 116 -583 40 -47 50 -66 50 -95 0 -34
-13 -49 -193 -229 -180 -180 -195 -193 -229 -193 -29 0 -48 10 -95 50 -163
141 -386 185 -583 116 -238 -82 -383 -268 -409 -522 -8 -77 -12 -91 -36 -111
-26 -23 -29 -23 -295 -23 -266 0 -269 0 -295 23 -24 20 -28 34 -36 111 -21
208 -120 368 -291 469 -224 133 -503 108 -701 -63 -47 -40 -66 -50 -95 -50
-34 0 -49 13 -229 193 -180 180 -193 195 -193 229 0 29 10 48 50 95 242 280
179 702 -134 905 -73 47 -164 76 -275 87 -74 8 -88 12 -108 36 -23 26 -23 29
-23 295 0 266 0 269 23 295 20 24 34 28 108 36 163 16 269 65 378 172 226 223
239 578 31 820 -40 47 -50 66 -50 95 0 34 13 49 193 229 180 180 195 193 229
193 29 0 48 -10 95 -50 242 -208 597 -195 820 31 106 108 156 218 172 379 8
73 12 87 36 107 26 23 29 23 295 23 266 0 269 0 295 -23z"/>
<path d="M2415 4023 c-224 -20 -476 -111 -676 -244 -125 -83 -315 -273 -398
-398 -437 -659 -285 -1533 349 -2003 379 -281 882 -362 1329 -212 804 269
1218 1153 905 1936 -241 606 -855 980 -1509 921z m435 -167 c259 -60 456 -170
646 -360 194 -194 306 -397 365 -667 34 -149 34 -389 0 -539 -29 -132 -67
-237 -126 -348 -45 -84 -152 -242 -164 -242 -3 0 -26 33 -51 73 -57 91 -233
269 -325 329 -200 129 -398 188 -635 188 -237 0 -435 -59 -635 -188 -92 -60
-268 -238 -325 -329 -25 -40 -48 -73 -51 -73 -13 0 -133 179 -174 260 -56 111
-88 203 -116 331 -31 136 -33 388 -6 519 121 570 566 991 1133 1069 116 16
344 5 464 -23z m-77 -1726 c258 -57 481 -211 628 -433 32 -50 59 -96 59 -102
0 -29 -164 -149 -297 -218 -458 -237 -1016 -182 -1423 140 -44 35 -80 69 -80
76 0 8 27 54 59 104 145 220 369 375 623 433 116 26 314 26 431 0z"/>
<path d="M2400 3551 c-89 -29 -154 -67 -221 -128 -78 -72 -121 -139 -155 -240
-34 -98 -38 -234 -10 -328 42 -141 151 -278 273 -343 76 -40 197 -72 273 -72
76 0 197 32 273 72 120 64 232 203 271 335 87 300 -90 618 -393 707 -75 22
-239 21 -311 -3z m343 -159 c266 -131 325 -476 118 -683 -171 -170 -431 -170
-602 0 -222 222 -135 597 163 703 41 14 75 18 154 16 90 -3 107 -7 167 -36z"/>
</g>
</svg>
