<?xml version="1.0" standalone="no"?>
<!DOCTYPE svg PUBLIC "-//W3C//DTD SVG 20010904//EN"
 "http://www.w3.org/TR/2001/REC-SVG-20010904/DTD/svg10.dtd">
<svg version="1.0" xmlns="http://www.w3.org/2000/svg"
 width="512.000000pt" height="512.000000pt" viewBox="0 0 512.000000 512.000000"
 preserveAspectRatio="xMidYMid meet">

<g transform="translate(0.000000,512.000000) scale(0.100000,-0.100000)"
fill="#000000" stroke="none">
<path d="M2505 4855 c-24 -23 -25 -29 -25 -159 l0 -135 -42 -5 c-24 -3 -74 -8
-112 -12 -335 -30 -743 -200 -1016 -424 -129 -106 -323 -309 -359 -377 -24
-46 21 -113 76 -113 27 0 45 17 153 145 128 152 328 310 520 412 187 100 438
178 635 198 33 3 79 8 103 11 l42 5 0 -136 c0 -131 1 -137 25 -160 15 -16 36
-25 55 -25 19 0 40 9 55 25 24 23 25 29 25 160 l0 136 53 -6 c231 -26 391 -65
561 -134 227 -93 415 -220 601 -406 324 -324 484 -668 540 -1162 l6 -53 -136
0 c-131 0 -137 -1 -160 -25 -33 -32 -33 -78 0 -110 23 -24 29 -25 158 -25
l134 0 -4 -52 c-25 -324 -132 -634 -309 -895 -36 -53 -81 -115 -100 -137 -44
-51 -47 -104 -8 -135 45 -35 76 -28 129 31 124 140 270 404 345 623 46 135 87
325 96 441 9 137 -6 124 150 124 130 0 136 1 159 25 16 15 25 36 25 55 0 19
-9 40 -25 55 -23 24 -29 25 -159 25 l-135 0 -6 58 c-39 371 -128 646 -297 916
-189 301 -458 552 -769 716 -239 125 -470 191 -791 225 l-58 6 0 135 c0 130
-1 136 -25 159 -15 16 -36 25 -55 25 -19 0 -40 -9 -55 -25z"/>
<path d="M799 3491 c-16 -16 -29 -39 -29 -51 0 -30 53 -80 85 -80 36 0 75 41
75 80 0 39 -39 80 -75 80 -16 0 -38 -12 -56 -29z"/>
<path d="M2443 3425 c-29 -8 -76 -26 -105 -41 -61 -31 -157 -119 -184 -169
-18 -35 -37 -44 -49 -25 -3 5 -38 19 -77 31 -137 42 -271 8 -374 -95 -133
-133 -150 -329 -42 -482 21 -31 38 -57 36 -58 -2 -2 -25 -15 -53 -31 -202
-114 -334 -319 -352 -546 -6 -73 -5 -78 20 -103 l26 -26 199 0 199 0 -5 -74
c-4 -70 -3 -76 21 -100 l26 -26 831 0 831 0 26 26 c24 24 25 30 21 100 l-5 74
199 0 199 0 26 26 c25 25 26 30 20 102 -7 96 -38 197 -85 282 -44 82 -176 215
-257 260 -33 18 -61 34 -63 35 -2 2 15 28 36 59 108 153 91 349 -42 482 -103
103 -237 137 -374 95 -39 -12 -74 -26 -77 -31 -12 -19 -31 -10 -49 25 -27 50
-123 138 -184 169 -108 55 -232 69 -339 41z m252 -176 c63 -30 123 -90 155
-154 35 -71 35 -197 0 -270 -31 -64 -91 -124 -155 -155 -73 -35 -199 -35 -270
0 -64 31 -124 91 -155 155 -35 71 -35 197 0 270 42 86 123 152 215 176 54 14
156 3 210 -22z m-697 -184 c63 -27 82 -52 83 -109 0 -28 8 -82 18 -121 21 -79
19 -86 -38 -138 -86 -77 -212 -73 -295 9 -40 40 -57 78 -63 140 -16 154 152
278 295 219z m1320 -22 c59 -36 102 -113 102 -183 0 -184 -230 -288 -363 -165
-54 51 -57 62 -37 140 11 39 19 93 19 121 1 39 6 55 24 72 64 60 172 67 255
15z m-1073 -443 c10 -11 13 -20 7 -20 -6 0 -16 -2 -24 -5 -7 -3 -19 -1 -27 4
-12 8 -12 12 -2 25 17 21 24 20 46 -4z m675 5 c18 -22 0 -38 -34 -29 -26 6
-26 7 -10 25 21 23 28 24 44 4z m-911 -134 c22 -6 21 -9 -31 -53 -93 -80 -211
-253 -242 -355 -7 -23 -10 -23 -168 -23 l-160 0 6 38 c4 20 23 71 43 112 64
132 198 240 339 274 62 15 172 19 213 7z m756 -21 c39 -12 102 -38 140 -58 92
-48 228 -181 280 -275 42 -76 85 -202 85 -247 l0 -30 -710 0 -710 0 0 30 c0
45 43 171 85 247 52 94 188 227 280 274 135 70 221 89 370 85 77 -3 131 -11
180 -26z m554 15 c147 -35 279 -140 344 -275 20 -41 39 -92 43 -112 l6 -38
-159 0 -159 0 -24 58 c-49 119 -140 245 -233 324 -49 41 -50 43 -26 49 43 12
142 9 208 -6z"/>
<path d="M713 3285 c-42 -30 -114 -283 -133 -474 -7 -58 -14 -121 -16 -138
l-5 -33 -135 0 c-130 0 -136 -1 -159 -25 -33 -32 -33 -78 0 -110 23 -24 29
-25 159 -25 l135 0 6 -57 c34 -319 101 -557 224 -788 316 -594 882 -982 1546
-1060 71 -8 133 -15 137 -15 5 0 8 -61 8 -135 0 -131 1 -137 25 -160 32 -33
78 -33 110 0 24 23 25 29 25 159 l0 135 43 5 c23 3 87 10 142 17 215 24 448
98 665 211 131 68 177 100 192 134 21 45 -24 104 -80 104 -9 0 -44 -16 -77
-36 -223 -135 -513 -236 -740 -259 -33 -3 -79 -8 -102 -11 l-43 -5 0 136 c0
131 -1 137 -25 160 -32 33 -78 33 -110 0 -24 -23 -25 -29 -25 -160 l0 -136
-52 6 c-386 44 -652 141 -938 343 -122 86 -336 300 -422 422 -202 286 -299
552 -343 938 l-6 52 136 0 c131 0 137 1 160 25 33 32 33 78 0 110 -23 24 -29
25 -160 25 l-135 0 5 38 c2 20 7 66 10 102 8 84 49 268 80 361 14 40 25 79 25
87 0 22 -56 72 -82 72 -13 0 -33 -7 -45 -15z"/>
<path d="M3834 1220 c-12 -5 -29 -19 -38 -32 -55 -78 52 -161 119 -93 31 30
32 66 3 99 -27 29 -55 38 -84 26z"/>
</g>
</svg>
