<?xml version="1.0" standalone="no"?>
<!DOCTYPE svg PUBLIC "-//W3C//DTD SVG 20010904//EN"
 "http://www.w3.org/TR/2001/REC-SVG-20010904/DTD/svg10.dtd">
<svg version="1.0" xmlns="http://www.w3.org/2000/svg"
 width="512.000000pt" height="512.000000pt" viewBox="0 0 512.000000 512.000000"
 preserveAspectRatio="xMidYMid meet">

<g transform="translate(0.000000,512.000000) scale(0.100000,-0.100000)"
fill="#000000" stroke="none">
<path d="M2430 5051 c-119 -38 -182 -99 -315 -303 l-89 -138 -145 0 c-80 0
-163 -5 -184 -11 -21 -6 -58 -30 -84 -55 l-47 -44 -245 0 c-217 0 -251 -3
-286 -19 -52 -23 -103 -74 -126 -126 -18 -38 -19 -126 -19 -2080 0 -1954 1
-2042 19 -2080 24 -53 99 -121 149 -134 28 -8 488 -10 1524 -9 1366 3 1485 4
1514 20 44 24 94 77 115 123 18 39 19 114 19 2080 0 1954 -1 2042 -19 2080
-23 52 -74 103 -126 126 -35 16 -69 19 -286 19 l-245 0 -47 44 c-26 25 -63 49
-84 55 -21 6 -104 11 -184 11 l-145 0 -89 138 c-134 206 -201 269 -324 306
-71 21 -182 20 -251 -3z m240 -162 c25 -11 55 -30 69 -42 22 -21 161 -220 161
-232 0 -3 -153 -5 -340 -5 -187 0 -340 2 -340 5 0 10 122 190 149 218 74 80
193 102 301 56z m736 -464 c13 -20 16 -43 12 -110 -6 -109 -37 -166 -117 -207
l-53 -28 -688 0 -688 0 -53 28 c-80 42 -113 100 -118 209 -2 65 1 89 13 108
l16 25 830 0 830 0 16 -25z m-1859 -159 c23 -172 123 -290 278 -331 89 -23
1381 -23 1470 0 154 41 255 160 278 332 l12 84 217 -3 218 -3 27 -28 28 -27 0
-2015 0 -2015 -28 -27 -27 -28 -1460 0 -1460 0 -27 28 -28 27 0 2014 c0 2000
0 2014 20 2036 11 12 29 26 40 31 11 4 112 8 225 8 l206 1 11 -84z"/>
<path d="M1695 3703 c-54 -9 -68 -16 -105 -49 -100 -91 -91 -261 19 -339 36
-26 52 -30 105 -30 82 0 133 32 170 106 65 132 -2 285 -134 309 -19 3 -44 4
-55 3z m43 -165 c7 -7 12 -26 12 -43 0 -57 -53 -78 -67 -27 -16 59 20 105 55
70z"/>
<path d="M2236 3439 c-20 -16 -26 -29 -26 -59 0 -30 6 -43 26 -59 26 -21 33
-21 756 -21 l729 0 24 25 c16 15 25 36 25 55 0 19 -9 40 -25 55 l-24 25 -729
0 c-723 0 -730 0 -756 -21z"/>
<path d="M1622 3215 c-70 -20 -98 -35 -154 -85 -86 -75 -144 -242 -108 -310
13 -25 89 -61 182 -86 85 -23 261 -23 346 0 93 25 169 61 182 86 21 38 8 130
-28 203 -76 154 -258 238 -420 192z m188 -168 c45 -23 115 -108 107 -131 -6
-18 -127 -45 -202 -45 -75 0 -196 27 -202 45 -2 6 11 33 29 59 62 92 171 121
268 72z"/>
<path d="M2260 3113 c-54 -20 -69 -92 -27 -131 23 -22 25 -22 464 -22 430 0
441 0 467 21 46 36 32 108 -25 128 -33 11 -849 15 -879 4z"/>
<path d="M1632 2559 c-123 -62 -151 -240 -54 -342 40 -43 78 -58 137 -58 59 0
97 15 137 58 63 66 75 164 32 252 -49 98 -159 138 -252 90z m106 -151 c17 -17
15 -73 -3 -88 -34 -28 -70 22 -53 72 10 29 36 36 56 16z"/>
<path d="M2230 2310 c-12 -12 -20 -33 -20 -55 0 -22 8 -43 20 -55 20 -20 33
-20 760 -20 l739 0 21 22 c27 30 26 79 -3 106 l-23 22 -737 0 c-724 0 -737 0
-757 -20z"/>
<path d="M1593 2082 c-138 -49 -242 -190 -243 -329 0 -65 15 -82 96 -112 111
-42 182 -53 299 -48 127 5 253 40 306 84 31 26 31 29 27 93 -6 85 -35 147 -99
215 -74 78 -140 108 -248 112 -65 3 -99 -1 -138 -15z m172 -143 c65 -18 131
-78 149 -135 6 -19 0 -23 -56 -39 -37 -10 -97 -18 -143 -18 -46 0 -106 8 -143
18 -56 16 -62 20 -56 39 17 55 73 107 142 132 46 16 57 17 107 3z"/>
<path d="M2232 1967 c-29 -31 -29 -87 -1 -113 20 -18 44 -19 448 -22 234 -1
436 0 449 3 63 16 84 96 36 134 -26 21 -37 21 -469 21 l-442 0 -21 -23z"/>
<path d="M1635 1436 c-101 -45 -147 -193 -92 -297 13 -24 43 -57 66 -74 36
-26 52 -30 105 -30 52 0 70 5 105 28 133 88 113 322 -32 376 -39 15 -116 13
-152 -3z m103 -148 c13 -13 16 -56 6 -82 -3 -9 -17 -16 -30 -16 -17 0 -26 7
-31 28 -16 59 20 105 55 70z"/>
<path d="M2236 1189 c-20 -16 -26 -29 -26 -59 0 -30 6 -43 26 -59 26 -21 33
-21 756 -21 l729 0 24 25 c16 15 25 36 25 55 0 19 -9 40 -25 55 l-24 25 -729
0 c-723 0 -730 0 -756 -21z"/>
<path d="M1620 965 c-154 -43 -276 -198 -268 -343 4 -66 19 -80 123 -117 141
-49 279 -55 418 -19 84 22 164 59 176 82 29 53 0 179 -59 261 -85 116 -251
174 -390 136z m196 -171 c39 -20 108 -107 101 -127 -6 -18 -80 -38 -163 -44
-82 -6 -227 17 -240 38 -8 14 42 95 74 117 65 46 156 52 228 16z"/>
<path d="M2250 852 c-31 -15 -35 -22 -38 -59 -2 -32 2 -46 19 -62 22 -21 30
-21 469 -21 l447 0 21 23 c23 25 28 66 12 97 -20 37 -60 40 -484 40 -371 0
-414 -2 -446 -18z"/>
</g>
</svg>
