<?xml version="1.0" standalone="no"?>
<!DOCTYPE svg PUBLIC "-//W3C//DTD SVG 20010904//EN"
 "http://www.w3.org/TR/2001/REC-SVG-20010904/DTD/svg10.dtd">
<svg version="1.0" xmlns="http://www.w3.org/2000/svg"
 width="512.000000pt" height="512.000000pt" viewBox="0 0 512.000000 512.000000"
 preserveAspectRatio="xMidYMid meet">

<g transform="translate(0.000000,512.000000) scale(0.100000,-0.100000)"
fill="#000000" stroke="none">
<path d="M559 4805 c-219 -44 -418 -210 -508 -423 -52 -125 -51 -80 -51 -1828
0 -1830 -5 -1706 77 -1874 39 -79 60 -109 132 -180 92 -92 169 -139 296 -182
l70 -23 1750 -3 c1243 -2 1758 1 1776 8 26 11 49 47 49 76 0 8 -11 26 -25 39
l-24 25 -1723 0 c-1895 0 -1794 -3 -1926 62 -81 40 -185 139 -230 220 -96 169
-94 418 5 587 62 106 169 193 291 239 57 21 92 26 227 31 165 7 198 15 237 58
49 54 48 36 48 918 l0 825 304 0 c338 0 339 0 352 67 5 26 1 37 -19 57 l-26
26 -306 0 -305 0 0 135 c0 147 -8 178 -49 195 -30 12 -73 1 -88 -22 -4 -7 -10
-483 -13 -1058 l-5 -1045 -145 -6 c-80 -3 -167 -11 -194 -18 -118 -29 -230
-92 -324 -184 l-62 -62 2 1385 3 1385 23 59 c64 170 187 292 350 348 57 19 88
22 207 23 l140 0 5 -290 c3 -159 9 -296 13 -303 15 -23 58 -34 88 -22 46 19
49 41 49 341 0 229 -3 286 -15 316 -39 92 -87 113 -260 112 -71 -1 -160 -7
-196 -14z"/>
<path d="M4255 4485 c-24 -8 -56 -33 -80 -59 -22 -25 -211 -237 -420 -470
l-380 -425 -732 0 c-719 -1 -733 -1 -753 -21 -30 -30 -30 -73 1 -105 19 -19
36 -20 680 -25 l660 -5 -166 -185 c-92 -102 -172 -197 -180 -211 -7 -14 -16
-43 -18 -65 -3 -21 -31 -109 -63 -194 -70 -187 -73 -219 -20 -267 57 -53 87
-47 276 47 88 44 169 80 180 80 12 0 33 6 48 14 15 8 182 188 372 400 l345
385 480 -2 480 -2 0 -1465 0 -1465 -305 -5 c-168 -3 -306 -7 -308 -8 -2 -1 -9
-16 -16 -33 -17 -40 -11 -64 22 -89 23 -19 41 -20 321 -20 266 0 300 2 336 19
48 22 69 44 90 94 13 32 15 207 15 1511 0 1018 -3 1483 -11 1503 -11 31 -53
78 -84 96 -14 8 -149 14 -449 17 l-429 5 243 270 c133 149 249 284 256 302 35
82 13 125 -130 253 -110 99 -171 140 -206 139 -8 0 -33 -6 -55 -14z m133 -212
c41 -38 85 -77 99 -88 l24 -20 -44 -50 -44 -50 -54 47 c-30 26 -76 67 -104 92
l-50 44 45 46 c24 25 46 46 48 46 3 0 38 -30 80 -67z m-244 -162 c16 -18 -4
-42 -520 -617 -295 -330 -543 -606 -550 -614 -12 -13 -17 -12 -36 7 l-21 22
24 28 c84 100 1072 1193 1078 1193 4 0 16 -8 25 -19z m170 -150 c5 -8 -1075
-1221 -1094 -1229 -3 -1 -15 7 -25 18 -18 20 -18 21 2 43 1023 1141 1074 1197
1093 1187 10 -6 21 -14 24 -19z m-1299 -1252 c19 -17 35 -35 35 -40 0 -8 -58
-41 -105 -59 l-24 -9 19 52 c24 69 31 87 36 87 2 0 19 -14 39 -31z"/>
<path d="M1326 2899 c-33 -26 -36 -79 -6 -109 17 -17 33 -20 110 -20 105 0
130 15 130 74 0 56 -35 76 -130 76 -63 0 -82 -4 -104 -21z"/>
<path d="M1789 2907 c-31 -24 -42 -56 -28 -88 17 -42 36 -49 132 -49 74 0 86
3 105 23 31 33 29 80 -4 106 -22 17 -41 21 -108 21 -48 -1 -87 -6 -97 -13z"/>
<path d="M2252 2913 c-21 -8 -43 -61 -36 -88 11 -43 40 -55 134 -55 77 0 89 2
108 23 31 33 29 80 -4 106 -22 18 -40 21 -108 20 -44 0 -87 -3 -94 -6z"/>
<path d="M3862 2720 c-143 -38 -263 -123 -342 -243 -42 -64 -90 -196 -90 -248
l0 -29 -184 0 c-170 0 -185 -1 -210 -21 l-26 -20 0 -464 0 -464 26 -20 c26
-21 37 -21 474 -21 437 0 448 0 474 21 l26 20 0 175 c0 131 3 175 13 178 6 2
43 8 82 14 164 25 331 149 408 302 118 236 73 497 -118 679 -148 140 -341 191
-533 141z m243 -145 c215 -56 353 -264 317 -476 -32 -184 -186 -339 -358 -356
l-54 -6 0 211 0 211 -26 20 c-25 20 -40 21 -217 21 l-190 0 7 43 c4 23 19 69
35 102 87 185 289 281 486 230z m-661 -560 c13 -68 83 -188 145 -250 69 -68
166 -131 229 -148 l42 -11 0 -133 0 -133 -350 0 -350 0 0 355 0 355 139 0 139
0 6 -35z m416 -110 c0 -162 5 -156 -75 -107 -80 49 -152 134 -180 212 l-14 40
134 0 135 0 0 -145z"/>
<path d="M1320 2680 c-30 -30 -27 -83 6 -109 26 -20 38 -21 334 -21 296 0 308
1 334 21 34 27 36 79 4 109 -21 19 -34 20 -340 20 -305 0 -319 -1 -338 -20z"/>
<path d="M1322 2464 c-30 -21 -31 -83 -1 -110 20 -18 40 -19 339 -19 299 0
319 1 339 19 27 25 28 79 1 106 -19 19 -33 20 -338 20 -271 0 -321 -2 -340
-16z"/>
<path d="M1327 2250 c-34 -27 -37 -80 -7 -110 19 -19 33 -20 510 -20 477 0
491 1 510 20 25 25 26 71 1 101 l-19 24 -484 3 c-479 3 -485 2 -511 -18z"/>
<path d="M1322 2030 c-14 -14 -22 -33 -22 -55 0 -22 8 -41 22 -55 21 -20 32
-20 564 -20 532 0 542 0 568 21 36 28 36 80 0 108 -26 21 -36 21 -568 21 -532
0 -543 0 -564 -20z"/>
<path d="M1321 1681 c-25 -25 -34 -90 -29 -202 6 -125 15 -133 149 -137 119
-5 163 2 190 29 17 17 19 34 19 152 0 180 3 177 -178 177 -117 0 -134 -2 -151
-19z m179 -161 c0 -25 -4 -30 -25 -30 -21 0 -25 5 -25 30 0 25 4 30 25 30 21
0 25 -5 25 -30z"/>
<path d="M1815 1675 c-24 -23 -25 -30 -25 -144 0 -70 5 -131 12 -146 16 -36
66 -48 192 -43 105 3 108 4 133 32 24 28 24 33 21 158 -4 171 -1 168 -180 168
-124 0 -130 -1 -153 -25z m183 -152 c-2 -22 -9 -29 -30 -31 -25 -3 -28 0 -28
27 0 28 3 31 31 31 27 0 30 -3 27 -27z"/>
<path d="M2312 1677 c-20 -21 -22 -34 -22 -154 0 -182 -4 -178 175 -178 179 0
175 -5 175 179 0 178 2 176 -176 176 -123 0 -132 -1 -152 -23z m178 -157 c0
-25 -4 -30 -25 -30 -21 0 -25 5 -25 30 0 25 4 30 25 30 21 0 25 -5 25 -30z"/>
<path d="M4232 1514 c-30 -21 -31 -83 -1 -110 18 -16 37 -19 136 -19 109 0
116 1 134 24 25 30 24 76 -1 101 -18 18 -33 20 -133 20 -86 0 -118 -4 -135
-16z"/>
<path d="M4232 1320 c-32 -30 -30 -82 4 -109 23 -18 41 -21 129 -21 88 0 106
3 129 21 34 27 36 77 3 107 -21 20 -34 22 -133 22 -97 0 -113 -2 -132 -20z"/>
<path d="M1315 1150 c-20 -22 -32 -166 -21 -245 12 -79 25 -85 179 -85 180 0
177 -3 177 178 0 178 6 172 -178 172 -125 0 -141 -2 -157 -20z m185 -155 c0
-20 -5 -25 -25 -25 -20 0 -25 5 -25 25 0 20 5 25 25 25 20 0 25 -5 25 -25z"/>
<path d="M1811 1144 c-19 -24 -21 -40 -21 -149 0 -109 2 -125 21 -149 20 -26
22 -26 155 -26 130 0 136 1 159 25 24 23 25 30 25 148 0 111 -2 127 -21 151
-20 26 -21 26 -159 26 -138 0 -139 0 -159 -26z m189 -149 c0 -21 -5 -25 -30
-25 -25 0 -30 4 -30 25 0 21 5 25 30 25 25 0 30 -4 30 -25z"/>
<path d="M2310 1150 c-18 -18 -20 -33 -20 -155 0 -181 -6 -175 175 -175 181 0
175 -6 175 175 0 181 6 175 -175 175 -122 0 -137 -2 -155 -20z m180 -155 c0
-20 -5 -25 -25 -25 -20 0 -25 5 -25 25 0 20 5 25 25 25 20 0 25 -5 25 -25z"/>
</g>
</svg>
