<?xml version="1.0" standalone="no"?>
<!DOCTYPE svg PUBLIC "-//W3C//DTD SVG 20010904//EN"
 "http://www.w3.org/TR/2001/REC-SVG-20010904/DTD/svg10.dtd">
<svg version="1.0" xmlns="http://www.w3.org/2000/svg"
 width="512.000000pt" height="512.000000pt" viewBox="0 0 512.000000 512.000000"
 preserveAspectRatio="xMidYMid meet">

<g transform="translate(0.000000,512.000000) scale(0.100000,-0.100000)"
fill="#000000" stroke="none">
<path d="M1672 5106 c-139 -34 -273 -141 -336 -270 -19 -39 -38 -88 -41 -108
l-7 -38 -70 0 c-76 0 -97 -8 -143 -51 l-30 -28 -390 -3 -390 -3 -62 -29 c-73
-33 -143 -103 -176 -173 l-22 -48 0 -1880 0 -1880 28 -57 c40 -82 120 -152
204 -178 63 -19 90 -20 938 -20 l872 0 5 -44 c12 -107 93 -216 197 -265 l56
-26 1280 0 1280 0 56 28 c67 32 142 109 172 175 l22 47 0 1150 0 1150 -26 56
c-48 103 -139 178 -234 194 -69 12 -73 14 -80 52 -37 199 -268 279 -424 147
-38 -32 -81 -115 -81 -156 l0 -28 -213 0 -212 0 -12 49 c-24 100 -97 174 -196
196 l-52 12 -5 644 -5 644 -28 53 c-37 70 -97 128 -166 161 l-56 26 -397 3
c-382 3 -398 4 -408 22 -18 33 -71 54 -150 60 l-74 5 -8 39 c-15 71 -71 169
-134 233 -124 126 -311 180 -482 139z m254 -186 c108 -47 189 -154 200 -262
12 -118 37 -138 174 -138 l90 0 0 -170 0 -170 -597 2 -598 3 -3 167 -2 166
106 4 c100 3 107 4 128 29 16 19 25 45 29 88 15 144 118 263 262 302 48 13
160 2 211 -21z m-906 -565 l0 -85 -262 0 c-325 -1 -355 -9 -399 -105 -18 -38
-19 -110 -19 -1690 0 -1580 1 -1652 19 -1690 10 -22 28 -48 39 -58 51 -46 53
-46 875 -47 l777 0 0 -85 0 -85 -867 0 c-826 0 -870 1 -909 19 -23 10 -54 36
-70 57 l-29 37 0 1852 0 1852 29 37 c56 74 66 76 464 76 l352 0 0 -85z m2313
55 c20 -13 45 -41 56 -61 21 -36 21 -50 21 -687 l0 -650 -34 -51 c-20 -29 -38
-70 -42 -96 l-6 -45 -44 0 -44 0 0 660 c0 724 3 691 -60 743 -17 15 -47 31
-68 37 -21 5 -148 10 -294 10 l-258 0 0 85 0 86 368 -3 369 -3 36 -25z m-2268
-336 c9 -14 35 -34 58 -45 40 -18 75 -19 670 -19 686 0 664 -2 721 59 l30 31
263 0 263 0 0 -640 0 -640 -84 0 -84 0 -6 45 c-10 61 -61 133 -120 170 -44 27
-58 30 -131 30 -73 0 -87 -3 -130 -30 -59 -37 -100 -92 -117 -160 -15 -57 -22
-65 -63 -65 -83 0 -213 -100 -258 -198 -22 -47 -22 -50 -25 -904 l-2 -858
-770 0 -770 0 0 1618 c0 890 3 1622 7 1625 3 4 124 7 269 7 l262 0 17 -26z
m1640 -1200 c23 -25 25 -34 25 -135 0 -118 -9 -151 -47 -168 -39 -18 -63 -13
-94 18 -28 29 -29 32 -29 136 0 137 18 174 88 175 23 0 40 -8 57 -26z m926 13
c31 -24 39 -56 39 -162 0 -104 -1 -107 -29 -136 -31 -31 -59 -36 -94 -17 -42
22 -46 38 -47 161 0 112 1 119 25 142 27 27 79 33 106 12z m950 -16 c29 -29
29 -31 29 -141 0 -111 0 -112 -30 -142 -27 -26 -36 -30 -68 -25 -63 11 -72 32
-72 169 0 113 1 120 25 143 34 35 78 33 116 -4z m-1246 -277 c22 -98 87 -168
179 -194 148 -41 298 56 322 209 l7 41 211 -2 210 -3 8 -44 c21 -121 130 -211
257 -211 115 1 228 100 247 218 6 39 6 39 42 31 50 -11 83 -38 110 -89 20 -40
22 -59 22 -187 l0 -143 -1366 0 -1365 0 3 159 c3 143 5 162 24 188 29 39 82
73 113 73 23 0 28 -6 38 -49 47 -199 285 -268 428 -125 42 42 51 62 81 172 3
10 50 12 211 10 l207 -3 11 -51z m1615 -1414 c0 -709 -3 -877 -14 -903 -17
-43 -78 -95 -118 -102 -18 -3 -585 -4 -1259 -3 l-1225 3 -37 25 c-21 14 -46
43 -57 66 -19 39 -20 63 -20 912 l0 872 1365 0 1365 0 0 -870z"/>
<path d="M1735 4665 c-66 -65 9 -173 92 -133 15 7 34 26 41 41 40 83 -68 158
-133 92z"/>
<path d="M1322 3743 c-17 -7 -42 -57 -42 -83 0 -13 27 -49 67 -91 l66 -69 -66
-69 c-76 -78 -84 -110 -43 -157 18 -21 32 -28 60 -28 32 0 45 9 104 67 l67 67
67 -67 c59 -58 72 -67 104 -67 28 0 42 7 60 28 41 47 33 79 -43 157 l-66 69
66 69 c54 55 67 75 67 100 0 45 -38 81 -86 81 -31 0 -45 -9 -103 -64 l-66 -65
-67 65 c-55 54 -71 64 -99 63 -19 0 -40 -3 -47 -6z"/>
<path d="M2335 3647 c-60 -51 -21 -147 60 -147 33 0 25 -9 -253 -287 -561
-561 -955 -1044 -1259 -1544 -123 -201 -131 -224 -92 -273 16 -20 29 -26 58
-26 20 0 44 6 53 13 9 6 51 71 94 142 264 445 601 876 1071 1370 105 110 258
265 342 343 l151 144 0 -41 c0 -56 34 -95 85 -95 29 0 43 7 61 28 23 26 24 33
24 182 l0 156 -29 29 -29 29 -156 0 c-147 0 -156 -1 -181 -23z"/>
<path d="M894 3059 c-53 -15 -127 -71 -161 -122 -79 -118 -60 -282 44 -378 63
-58 120 -81 204 -81 117 0 219 64 271 171 34 69 32 187 -4 257 -34 64 -105
128 -165 148 -50 17 -139 20 -189 5z m157 -182 c40 -27 66 -89 55 -132 -4 -15
-22 -43 -41 -62 -29 -29 -40 -33 -83 -33 -107 0 -163 107 -104 198 35 54 116
68 173 29z"/>
<path d="M1395 1595 c-18 -17 -25 -35 -25 -61 0 -31 9 -46 64 -102 l65 -67
-65 -66 c-54 -56 -64 -73 -64 -102 0 -46 26 -76 72 -84 35 -5 41 -2 108 62
l70 68 69 -66 c78 -76 110 -84 157 -43 21 18 28 32 28 60 0 32 -9 45 -67 104
l-67 67 67 67 c58 59 67 72 67 104 0 28 -7 42 -28 60 -47 41 -79 33 -157 -43
l-69 -66 -69 66 c-79 77 -113 86 -156 42z"/>
<path d="M3502 1769 c-52 -26 -61 -38 -134 -193 -33 -69 -65 -123 -75 -127
-10 -3 -72 -14 -138 -24 -178 -26 -239 -70 -251 -182 -7 -68 14 -104 133 -231
l102 -109 -25 -149 c-22 -126 -24 -155 -14 -189 17 -58 44 -90 93 -114 83 -40
128 -27 362 104 l30 16 130 -70 c111 -60 137 -71 179 -71 101 0 176 76 176
177 0 26 -10 105 -22 176 l-21 128 111 112 c68 69 114 124 118 142 14 52 8
110 -15 151 -36 65 -75 84 -213 106 -68 10 -133 21 -146 24 -18 4 -36 32 -86
137 -35 73 -76 144 -92 159 -57 53 -130 62 -202 27z m159 -299 c34 -74 72
-145 83 -157 17 -18 48 -26 178 -47 86 -13 162 -27 168 -31 8 -5 -28 -48 -103
-124 -63 -64 -120 -126 -127 -139 -9 -18 -6 -56 16 -192 16 -93 25 -172 22
-176 -4 -3 -69 28 -146 70 -86 47 -150 76 -169 76 -19 0 -81 -28 -166 -76 -75
-41 -140 -73 -145 -70 -5 3 4 81 19 173 14 92 24 176 20 185 -3 10 -60 74
-125 143 -65 69 -116 128 -113 131 2 3 74 16 160 28 85 13 164 29 176 36 14 7
49 68 97 167 43 92 78 153 83 147 5 -5 37 -70 72 -144z"/>
</g>
</svg>
