<?xml version="1.0" standalone="no"?>
<!DOCTYPE svg PUBLIC "-//W3C//DTD SVG 20010904//EN"
 "http://www.w3.org/TR/2001/REC-SVG-20010904/DTD/svg10.dtd">
<svg version="1.0" xmlns="http://www.w3.org/2000/svg"
 width="512.000000pt" height="512.000000pt" viewBox="0 0 512.000000 512.000000"
 preserveAspectRatio="xMidYMid meet">

<g transform="translate(0.000000,512.000000) scale(0.100000,-0.100000)"
fill="#000000" stroke="none">
<path d="M3749 5067 c-163 -61 -208 -255 -88 -376 39 -38 112 -71 159 -71 47
0 120 33 159 71 137 137 52 369 -141 385 -31 2 -68 -1 -89 -9z m128 -127 c45
-27 62 -84 39 -132 -40 -83 -152 -83 -192 0 -14 29 -14 41 -5 74 13 43 58 78
101 78 14 0 39 -9 57 -20z"/>
<path d="M2023 5032 c-7 -4 -32 -64 -56 -132 l-43 -125 -122 -60 c-103 -50
-122 -63 -122 -82 0 -27 18 -39 130 -89 47 -20 92 -44 101 -53 9 -9 35 -71 59
-138 57 -165 77 -170 126 -35 15 42 36 100 46 128 l18 51 110 47 c172 76 172
87 5 171 l-119 60 -43 119 c-51 142 -61 157 -90 138z"/>
<path d="M4704 4930 c-31 -12 -72 -66 -80 -105 -8 -45 10 -95 46 -130 59 -56
169 -41 215 29 75 114 -52 258 -181 206z"/>
<path d="M2912 4532 c-102 -37 -171 -113 -198 -221 -19 -78 -17 -90 62 -372 4
-14 -10 -13 -95 11 -133 37 -187 44 -257 31 -113 -21 -177 -61 -312 -194 -68
-67 -140 -148 -159 -180 -23 -37 -41 -56 -50 -53 -102 39 -164 51 -278 51
-107 0 -125 -3 -165 -24 -70 -37 -146 -98 -173 -139 -31 -48 -1263 -2888
-1278 -2948 -7 -26 -9 -73 -6 -111 21 -224 241 -384 452 -330 33 9 353 141
710 295 358 154 1000 430 1428 615 427 184 796 347 819 363 61 42 104 115 128
214 11 47 20 108 20 137 0 221 -171 571 -449 918 -92 116 -358 392 -470 489
-52 45 -55 50 -82 149 -16 56 -29 107 -29 113 0 8 34 1 93 -18 162 -54 285
-48 409 19 25 14 105 84 177 157 105 106 136 145 161 197 35 76 52 161 44 228
-9 72 -113 421 -140 467 -70 123 -230 183 -362 136z m143 -196 c18 -8 38 -23
44 -33 5 -11 32 -96 60 -190 74 -248 70 -300 -33 -410 l-54 -58 -30 100 c-69
224 -141 497 -136 513 14 43 31 66 59 78 39 17 49 17 90 0z m-362 -598 c95
-26 151 -46 156 -57 17 -33 54 -172 47 -178 -3 -4 -32 -8 -64 -10 -48 -3 -83
5 -217 49 l-159 53 -27 88 -27 87 22 5 c75 16 75 15 269 -37z m-430 -200 c48
-153 137 -484 137 -507 0 -116 -163 -139 -204 -29 -34 92 -106 353 -106 383 0
56 30 121 81 178 28 32 54 57 59 57 4 0 19 -37 33 -82z m-460 -163 c56 -20 81
-33 87 -49 4 -11 29 -95 55 -186 26 -91 56 -188 66 -216 43 -115 156 -194 279
-194 98 0 155 23 223 92 l59 58 137 -138 c118 -120 333 -371 362 -424 7 -14 3
-20 -19 -32 -149 -77 -162 -295 -24 -391 59 -40 160 -48 225 -16 24 12 46 21
50 21 11 0 48 -138 53 -202 6 -73 -14 -124 -56 -145 -34 -17 -130 -16 -200 2
-370 96 -922 535 -1294 1029 -226 301 -354 612 -313 759 4 15 22 37 40 48 27
17 43 20 112 15 49 -3 110 -15 158 -31z m-364 -590 c123 -230 322 -487 566
-730 316 -317 642 -547 928 -655 85 -33 87 -34 60 -46 -16 -6 -598 -257 -1295
-557 -696 -300 -1283 -549 -1303 -553 -101 -19 -209 88 -192 191 3 19 256 612
563 1319 l557 1286 37 -88 c19 -48 55 -123 79 -167z m1771 -612 c90 -53 54
-193 -50 -193 -52 0 -76 13 -95 50 -25 49 -19 88 19 126 39 39 80 45 126 17z"/>
<path d="M1262 2365 c-38 -32 -85 -147 -77 -186 9 -39 59 -79 99 -79 47 0 75
25 107 97 43 97 38 148 -21 178 -42 22 -74 19 -108 -10z"/>
<path d="M1081 1943 c-20 -19 -52 -79 -95 -178 -80 -185 -82 -194 -61 -235 33
-63 131 -74 167 -17 26 41 148 333 148 355 0 55 -48 102 -104 102 -14 0 -39
-12 -55 -27z"/>
<path d="M3675 4355 c-31 -30 -32 -66 -2 -101 46 -54 130 -23 130 47 0 23 -8
39 -27 56 -35 30 -71 29 -101 -2z"/>
<path d="M4349 4286 c-90 -25 -151 -68 -280 -196 -107 -106 -131 -137 -165
-204 -38 -78 -39 -82 -38 -185 1 -92 5 -118 32 -195 18 -49 30 -91 28 -93 -2
-2 -61 13 -132 33 -209 61 -310 47 -412 -57 -136 -139 -96 -390 78 -479 20
-10 122 -44 229 -75 157 -47 207 -57 266 -57 152 0 241 49 412 225 121 126
165 197 184 302 13 72 7 129 -28 253 -14 51 -23 95 -20 98 3 3 63 -11 133 -30
72 -21 151 -36 181 -36 112 0 222 70 273 175 35 71 35 189 1 259 -31 62 -90
122 -145 146 -22 10 -128 44 -234 74 -206 60 -270 67 -363 42z m346 -245 c198
-59 220 -74 220 -147 0 -39 -5 -50 -33 -75 -19 -17 -43 -29 -60 -29 -24 0
-365 92 -545 147 l-58 18 53 51 c114 111 156 114 423 35z m-494 -290 l65 -21
44 -153 c44 -152 56 -255 33 -278 -7 -7 -37 -2 -95 16 l-85 26 -52 162 c-51
162 -60 213 -41 261 8 22 13 24 37 16 15 -4 58 -18 94 -29z m-432 -507 c202
-55 403 -114 414 -121 14 -9 -85 -104 -128 -124 -64 -30 -130 -24 -304 26
-195 57 -207 62 -231 93 -24 30 -26 89 -4 121 13 19 63 49 83 51 3 0 79 -21
170 -46z"/>
<path d="M4834 2943 c-7 -2 -27 -47 -45 -100 l-34 -96 -85 -40 c-47 -21 -88
-44 -92 -50 -13 -21 9 -39 92 -76 l82 -36 35 -95 c18 -52 38 -99 43 -104 14
-14 37 10 51 52 46 144 44 141 135 183 83 38 107 60 86 81 -6 6 -43 25 -82 43
-40 18 -78 39 -85 46 -7 8 -25 51 -40 97 -29 84 -41 103 -61 95z"/>
<path d="M4110 2327 c-19 -6 -54 -30 -77 -53 -145 -145 -45 -385 159 -384 124
1 228 103 228 224 0 80 -60 173 -134 207 -46 21 -122 23 -176 6z m152 -136
c28 -25 33 -36 33 -76 0 -40 -5 -51 -33 -76 -60 -54 -150 -30 -171 46 -28 103
92 177 171 106z"/>
</g>
</svg>
