<svg width="24" height="24" viewBox="0 0 24 24" fill="none" xmlns="http://www.w3.org/2000/svg">
<path d="M16.125 12.375H13.125V9.375H10.875V12.375H7.875V14.625H10.875V17.625H13.125V14.625H16.125V12.375Z" stroke="black" stroke-opacity="0.6" stroke-miterlimit="10" stroke-linecap="round" stroke-linejoin="round"/>
<path d="M21 5.625H3C1.75736 5.625 0.75 6.63236 0.75 7.875V19.125C0.75 20.3676 1.75736 21.375 3 21.375H21C22.2426 21.375 23.25 20.3676 23.25 19.125V7.875C23.25 6.63236 22.2426 5.625 21 5.625Z" stroke="black" stroke-opacity="0.6" stroke-miterlimit="10" stroke-linecap="round" stroke-linejoin="round"/>
<path d="M8.625 5.625V4.125C8.625 3.72718 8.78304 3.34564 9.06434 3.06434C9.34564 2.78304 9.72718 2.625 10.125 2.625H13.875C14.2728 2.625 14.6544 2.78304 14.9357 3.06434C15.217 3.34564 15.375 3.72718 15.375 4.125V5.625" stroke="black" stroke-opacity="0.6" stroke-miterlimit="10" stroke-linecap="round" stroke-linejoin="round"/>
</svg>
