<svg width="24" height="24" viewBox="0 0 24 24" fill="none" xmlns="http://www.w3.org/2000/svg">
<g clip-path="url(#clip0_2389_8659)">
<path d="M21.75 5.625H2.25C1.65326 5.625 1.08097 5.86205 0.65901 6.28401C0.237053 6.70597 0 7.27826 0 7.875L0 19.875C0 20.4717 0.237053 21.044 0.65901 21.466C1.08097 21.8879 1.65326 22.125 2.25 22.125H21.75C22.3467 22.125 22.919 21.8879 23.341 21.466C23.7629 21.044 24 20.4717 24 19.875V7.875C24 7.27826 23.7629 6.70597 23.341 6.28401C22.919 5.86205 22.3467 5.625 21.75 5.625ZM16.125 15H13.125V18H10.875V15H7.875V12.75H10.875V9.75H13.125V12.75H16.125V15Z" fill="#2196F3"/>
<path d="M9 4.875V3.75C9 3.55109 9.07902 3.36032 9.21967 3.21967C9.36032 3.07902 9.55109 3 9.75 3H14.25C14.4489 3 14.6397 3.07902 14.7803 3.21967C14.921 3.36032 15 3.55109 15 3.75V4.875H16.5V3.75C16.4993 3.15348 16.262 2.58158 15.8402 2.15978C15.4184 1.73797 14.8465 1.50069 14.25 1.5H9.75C9.15348 1.50069 8.58158 1.73797 8.15978 2.15978C7.73797 2.58158 7.50069 3.15348 7.5 3.75V4.875H9Z" fill="#2196F3"/>
</g>
<defs>
<clipPath id="clip0_2389_8659">
<rect width="24" height="24" fill="white"/>
</clipPath>
</defs>
</svg>
