<svg width="24" height="24" viewBox="0 0 24 24" fill="none" xmlns="http://www.w3.org/2000/svg">
<g clip-path="url(#clip0_2389_8412)">
<path d="M22.875 2.625H1.125C0.826905 2.62589 0.541274 2.7447 0.330488 2.95549C0.119703 3.16627 0.000890284 3.45191 0 3.75L0 21C0.000890284 21.2981 0.119703 21.5837 0.330488 21.7945C0.541274 22.0053 0.826905 22.1241 1.125 22.125H22.875C23.1731 22.1241 23.4587 22.0053 23.6695 21.7945C23.8803 21.5837 23.9991 21.2981 24 21V3.75C23.9991 3.45191 23.8803 3.16627 23.6695 2.95549C23.4587 2.7447 23.1731 2.62589 22.875 2.625ZM21.75 20.625H16.125C16.0255 20.625 15.9302 20.5855 15.8598 20.5152C15.7895 20.4448 15.75 20.3495 15.75 20.25C15.75 20.1505 15.7895 20.0552 15.8598 19.9848C15.9302 19.9145 16.0255 19.875 16.125 19.875H21.75C21.8495 19.875 21.9448 19.9145 22.0152 19.9848C22.0855 20.0552 22.125 20.1505 22.125 20.25C22.125 20.3495 22.0855 20.4448 22.0152 20.5152C21.9448 20.5855 21.8495 20.625 21.75 20.625ZM22.125 18.375H1.875V4.5H22.125V18.375Z" fill="#2196F3"/>
<path d="M6.375 9.37502C7.56262 8.65277 8.25 7.93052 8.25 7.20827C8.23541 6.97374 8.12865 6.7545 7.95301 6.59839C7.77737 6.44229 7.54712 6.36199 7.3125 6.37502C7.11968 6.36931 6.9292 6.41847 6.76323 6.51679C6.59727 6.61511 6.46263 6.75854 6.375 6.93039C6.28737 6.75854 6.15273 6.61511 5.98677 6.51679C5.8208 6.41847 5.63032 6.36931 5.4375 6.37502C5.20288 6.36199 4.97263 6.44229 4.79699 6.59839C4.62135 6.7545 4.51459 6.97374 4.5 7.20827C4.5 7.93052 5.18738 8.65277 6.375 9.37502ZM7.24537 13.2184L8.2245 11.8073L9.4995 13.5915C9.57283 13.6928 9.67012 13.7744 9.78266 13.829C9.89521 13.8836 10.0195 13.9094 10.1445 13.9043C10.2696 13.8987 10.3913 13.8618 10.4984 13.7969C10.6056 13.732 10.6947 13.6413 10.7576 13.533L12.6634 10.2656L14.6985 15.2081C14.7535 15.3412 14.8455 15.4556 14.9637 15.5379C15.0818 15.6202 15.221 15.6669 15.3649 15.6724H15.3919C15.5311 15.6724 15.6677 15.6337 15.7862 15.5605C15.9047 15.4873 16.0004 15.3826 16.0627 15.258L17.2226 13.125H21.375V12H16.9909C16.8515 11.9996 16.7149 12.0382 16.5963 12.1115C16.4778 12.1847 16.382 12.2896 16.32 12.4144L15.4245 14.0175L13.4145 9.13689C13.3614 9.00745 13.2731 8.89545 13.1597 8.81355C13.0462 8.73166 12.9121 8.68313 12.7725 8.67345C12.6329 8.66378 12.4934 8.69334 12.3698 8.75881C12.2461 8.82427 12.1432 8.92302 12.0728 9.04389L10.0774 12.4654L8.85 10.7494C8.78255 10.6552 8.6942 10.5779 8.59186 10.5236C8.48952 10.4692 8.37599 10.4394 8.26017 10.4363C8.14435 10.4332 8.02939 10.457 7.92431 10.5058C7.81922 10.5546 7.72687 10.627 7.6545 10.7175L6.47962 12.375H2.625V13.5H6.66C6.77249 13.5002 6.88357 13.475 6.98494 13.4262C7.08631 13.3775 7.17534 13.3064 7.24537 13.2184ZM17.25 9.37502C17.5484 9.37502 17.8345 9.25649 18.0455 9.04551C18.2565 8.83453 18.375 8.54839 18.375 8.25002C18.375 7.95165 18.2565 7.6655 18.0455 7.45452C17.8345 7.24354 17.5484 7.12502 17.25 7.12502C17.1997 7.12661 17.1496 7.13162 17.1 7.14002C17.149 7.03568 17.2234 6.94531 17.3163 6.87717C17.4093 6.80904 17.5179 6.76532 17.6321 6.75002C17.7316 6.74907 17.8266 6.70866 17.8962 6.63766C17.9659 6.56667 18.0045 6.47091 18.0036 6.37145C18.0026 6.272 17.9622 6.17699 17.8912 6.10733C17.8202 6.03767 17.7245 5.99907 17.625 6.00002C17.61 6.00002 16.125 6.02589 16.125 8.25002C16.125 8.54839 16.2435 8.83453 16.4545 9.04551C16.6655 9.25649 16.9516 9.37502 17.25 9.37502ZM17.25 7.87502C17.3242 7.87502 17.3967 7.89701 17.4583 7.93822C17.52 7.97942 17.5681 8.03799 17.5965 8.10651C17.6248 8.17503 17.6323 8.25043 17.6178 8.32318C17.6033 8.39592 17.5676 8.46274 17.5152 8.51518C17.4627 8.56763 17.3959 8.60334 17.3232 8.61781C17.2504 8.63228 17.175 8.62485 17.1065 8.59647C17.038 8.56809 16.9794 8.52002 16.9382 8.45836C16.897 8.39669 16.875 8.32418 16.875 8.25002C16.875 8.15056 16.9145 8.05518 16.9848 7.98485C17.0552 7.91453 17.1505 7.87502 17.25 7.87502ZM19.5 9.37502C19.5995 9.37502 19.6948 9.33551 19.7652 9.26518C19.8355 9.19486 19.875 9.09947 19.875 9.00002V6.37502C19.875 6.27556 19.8355 6.18018 19.7652 6.10985C19.6948 6.03953 19.5995 6.00002 19.5 6.00002C19.4005 6.00002 19.3052 6.03953 19.2348 6.10985C19.1645 6.18018 19.125 6.27556 19.125 6.37502V9.00002C19.125 9.09947 19.1645 9.19486 19.2348 9.26518C19.3052 9.33551 19.4005 9.37502 19.5 9.37502Z" fill="#2196F3"/>
</g>
<defs>
<clipPath id="clip0_2389_8412">
<rect width="24" height="24" fill="white"/>
</clipPath>
</defs>
</svg>
