<svg width="24" height="24" viewBox="0 0 24 24" fill="none" xmlns="http://www.w3.org/2000/svg">
<path d="M2.625 12.7504H6.66C6.6881 12.7504 6.71584 12.744 6.74115 12.7318C6.76647 12.7196 6.78871 12.7019 6.80625 12.6799L8.09512 11.0674C8.11322 11.0446 8.13639 11.0263 8.16278 11.014C8.18918 11.0017 8.21808 10.9957 8.24719 10.9965C8.2763 10.9973 8.30483 11.0048 8.33051 11.0186C8.35619 11.0323 8.37831 11.0519 8.39512 11.0756L9.95737 13.263C9.97558 13.2885 9.99988 13.309 10.0281 13.3227C10.0562 13.3364 10.0874 13.3428 10.1187 13.3414C10.15 13.3399 10.1804 13.3306 10.2072 13.3144C10.234 13.2982 10.2562 13.2755 10.272 13.2484L12.5595 9.32627C12.5771 9.2961 12.6029 9.27146 12.6337 9.25513C12.6646 9.2388 12.6995 9.23143 12.7343 9.23385C12.7692 9.23627 12.8027 9.24838 12.831 9.26881C12.8594 9.28925 12.8814 9.31721 12.8948 9.34952L15.2197 14.9929C15.2334 15.0262 15.2564 15.0549 15.286 15.0755C15.3155 15.0961 15.3504 15.1077 15.3864 15.109C15.4224 15.1103 15.458 15.1012 15.489 15.0828C15.5199 15.0644 15.5449 15.0375 15.561 15.0053L16.8251 12.4774C16.8408 12.4469 16.8645 12.4212 16.8937 12.4032C16.923 12.3852 16.9566 12.3756 16.9909 12.3754H21.375" stroke="black" stroke-opacity="0.6" stroke-miterlimit="10" stroke-linecap="round" stroke-linejoin="round"/>
<path d="M22.125 2.625H1.875C1.25368 2.625 0.75 3.12868 0.75 3.75V20.25C0.75 20.8713 1.25368 21.375 1.875 21.375H22.125C22.7463 21.375 23.25 20.8713 23.25 20.25V3.75C23.25 3.12868 22.7463 2.625 22.125 2.625Z" stroke="black" stroke-opacity="0.6" stroke-miterlimit="10" stroke-linecap="round" stroke-linejoin="round"/>
<path d="M21.375 19.5H15.75M2.625 4.5H21.375V17.625H2.625V4.5Z" stroke="black" stroke-opacity="0.6" stroke-miterlimit="10" stroke-linecap="round" stroke-linejoin="round"/>
<path d="M17.625 6.37539C17.625 6.37539 16.5 6.37539 16.5 8.25039M7.3125 6.37539C7.11968 6.36968 6.9292 6.41885 6.76323 6.51717C6.59727 6.61549 6.46263 6.75892 6.375 6.93077C6.28737 6.75892 6.15273 6.61549 5.98677 6.51717C5.8208 6.41885 5.63032 6.36968 5.4375 6.37539C5.20288 6.36236 4.97263 6.44266 4.79699 6.59877C4.62135 6.75488 4.51459 6.97411 4.5 7.20864C4.5 7.93089 5.18737 8.65314 6.375 9.37539C7.56263 8.65314 8.25 7.93089 8.25 7.20864C8.23541 6.97411 8.12865 6.75488 7.95301 6.59877C7.77737 6.44266 7.54712 6.36236 7.3125 6.37539Z" stroke="black" stroke-opacity="0.6" stroke-miterlimit="10" stroke-linecap="round" stroke-linejoin="round"/>
<path d="M17.25 9C17.6642 9 18 8.66421 18 8.25C18 7.83579 17.6642 7.5 17.25 7.5C16.8358 7.5 16.5 7.83579 16.5 8.25C16.5 8.66421 16.8358 9 17.25 9Z" stroke="black" stroke-opacity="0.6" stroke-miterlimit="10" stroke-linecap="round" stroke-linejoin="round"/>
<path d="M19.5 6.375V9" stroke="black" stroke-opacity="0.6" stroke-miterlimit="10" stroke-linecap="round" stroke-linejoin="round"/>
</svg>
