<svg width="24" height="24" viewBox="0 0 24 24" fill="none" xmlns="http://www.w3.org/2000/svg">
<g clip-path="url(#clip0_2389_7693)">
<path d="M13.89 13.6653C15.1029 12.8548 15.9667 11.6178 16.3099 10.1999C17.331 10.1879 17.5684 8.7412 17.5684 8.42282C17.5684 8.10445 17.6081 6.84782 16.59 6.82982V6.37982L7.14339 6.0127V6.82832C6.11514 6.83807 6.15601 8.10332 6.15601 8.42282C6.15601 8.74232 6.39451 10.2014 7.42314 10.2014C7.76131 11.583 8.58998 12.7945 9.75489 13.6106M15.5648 15.6749C14.5331 16.9094 13.7348 17.2499 12 17.2499C10.1903 17.2499 9.20139 16.7759 8.17239 15.4499" stroke="black" stroke-opacity="0.6" stroke-miterlimit="10" stroke-linecap="round" stroke-linejoin="round"/>
<path d="M9.375 13.5C9.375 14.7682 8.18325 15.5599 7.14337 16.0095L7.78087 19.125H12.3281C13.3351 19.125 14.3009 19.525 15.0129 20.2371C15.725 20.9491 16.125 21.9149 16.125 22.9219V23.25H23.25V22.2514C23.25 19.3346 21.375 17.625 18.375 16.5C17.2305 16.0706 14.25 16.125 14.25 13.5" stroke="black" stroke-opacity="0.6" stroke-miterlimit="10" stroke-linecap="round" stroke-linejoin="round"/>
<path d="M4.51125 16.8188L3.75 23.25M5.625 16.5C2.74162 17.0955 0.75 19.1348 0.75 22.0789V23.25H8.625L7.14337 16.0095C6.6538 16.2204 6.14542 16.3846 5.625 16.5Z" stroke="black" stroke-opacity="0.6" stroke-miterlimit="10" stroke-linecap="round" stroke-linejoin="round"/>
<path d="M7.8945 2.649L16.5 4.48088M16.125 22.9219C16.125 21.9149 15.725 20.9491 15.0129 20.2371C14.3009 19.525 13.3351 19.125 12.3281 19.125H7.78087L8.625 23.25H16.125V22.9219ZM16.59 5.61C16.59 2.1 14.2372 0.75 12 0.75H11.625C9.38887 0.75 7.14337 2.1 7.14337 5.61V6.01163L16.59 6.37875V5.61Z" stroke="black" stroke-opacity="0.6" stroke-miterlimit="10" stroke-linecap="round" stroke-linejoin="round"/>
</g>
<defs>
<clipPath id="clip0_2389_7693">
<rect width="24" height="24" fill="white"/>
</clipPath>
</defs>
</svg>
