<svg width="24" height="24" viewBox="0 0 24 24" fill="none" xmlns="http://www.w3.org/2000/svg">
<g clip-path="url(#clip0_2389_8286)">
<path d="M0 22.0789V24H3.40613L4.05 16.5911C1.57838 17.5987 0 19.6665 0 22.0789ZM12.3281 19.5H8.21737L9.2175 24H15.75V23.2969C15.75 21.3097 14.1187 19.5 12.3281 19.5ZM5.55 16.1329C5.3025 16.1839 5.0625 16.2476 4.82775 16.3174L4.15912 24H8.44913L6.62925 15.81C6.27724 15.942 5.91666 16.0499 5.55 16.1329Z" fill="#2196F3"/>
<path d="M18.5073 16.1486C18.1908 16.0432 17.8674 15.9596 17.5394 15.8985C15.9202 15.5509 14.677 15.1545 14.6298 13.59C15.566 12.785 16.2501 11.7269 16.6 10.5428C17.6962 10.3073 17.944 8.81063 17.944 8.38875C17.9489 7.11675 17.4734 6.64575 16.9657 6.50475V5.61C16.9643 5.26248 16.9384 4.91549 16.888 4.57163L7.44629 2.562C6.97759 3.50837 6.74509 4.55419 6.76866 5.61V6.50438C6.29729 6.639 5.77604 7.08825 5.78129 8.42175C5.78129 8.81663 6.03104 10.3211 7.13429 10.5469C7.46919 11.6868 8.11541 12.7106 9.00029 13.5034C9.00029 14.2058 8.53679 14.745 7.95029 15.1478C7.94766 15.1496 7.94466 15.15 7.94204 15.1519C7.93941 15.1538 7.93904 15.156 7.93716 15.1575C7.74308 15.2885 7.54022 15.406 7.33004 15.5093L8.05116 18.75H12.3284C14.5503 18.75 16.5003 20.8748 16.5003 23.2969V24H24.0003V22.2514C24.0003 19.5311 22.2033 17.535 18.5073 16.1486ZM12.0003 16.875C10.4628 16.875 9.58604 16.5169 8.71266 15.5085C9.20615 15.1257 9.55453 14.5862 9.70041 13.9789C9.78476 13.9907 9.87061 13.9735 9.94385 13.93C10.0171 13.8865 10.0733 13.8194 10.1034 13.7397C10.1334 13.66 10.1354 13.5725 10.1091 13.4915C10.0827 13.4105 10.0296 13.3409 9.95841 13.2941C8.87305 12.5256 8.1009 11.3917 7.78341 10.1003L7.70841 9.82538H7.42304C6.70829 9.82538 6.53091 8.59688 6.53091 8.385C6.52679 7.34175 6.85829 7.20525 7.14741 7.20225L7.51866 7.1985V6.40125L16.2153 6.73875V7.19663L16.5835 7.20338C16.87 7.20825 17.1978 7.347 17.1937 8.42138C17.1937 8.595 17.017 9.81563 16.3057 9.8235L16.0237 9.82688L15.9487 10.0991C15.6281 11.4243 14.8242 12.5819 13.6945 13.3451C13.6246 13.3877 13.5706 13.452 13.5406 13.5282C13.5107 13.6043 13.5065 13.6882 13.5287 13.767C13.5509 13.8458 13.5982 13.9152 13.6635 13.9645C13.7288 14.0139 13.8084 14.0405 13.8903 14.0404C13.9004 14.0404 13.9109 14.037 13.921 14.0363C13.9711 14.3813 14.0925 14.7122 14.2774 15.0078C14.4623 15.3035 14.7067 15.5574 14.995 15.7534C14.1753 16.6335 13.4808 16.875 12.0003 16.875ZM12.0003 1.50087e-06H11.6253C10.8963 -0.000583259 10.1774 0.169712 9.52614 0.497223C8.87489 0.824734 8.30949 1.30034 7.87529 1.88588L16.729 3.771C16.4764 2.70398 15.8732 1.75254 15.0159 1.06887C14.1586 0.385213 13.0968 0.00885119 12.0003 1.50087e-06Z" fill="#2196F3"/>
</g>
<defs>
<clipPath id="clip0_2389_8286">
<rect width="24" height="24" fill="white"/>
</clipPath>
</defs>
</svg>
