<?xml version="1.0" standalone="no"?>
<!DOCTYPE svg PUBLIC "-//W3C//DTD SVG 20010904//EN"
 "http://www.w3.org/TR/2001/REC-SVG-20010904/DTD/svg10.dtd">
<svg version="1.0" xmlns="http://www.w3.org/2000/svg"
 width="512.000000pt" height="512.000000pt" viewBox="0 0 512.000000 512.000000"
 preserveAspectRatio="xMidYMid meet">

<g transform="translate(0.000000,512.000000) scale(0.100000,-0.100000)"
fill="#000000" stroke="none">
<path d="M2473 4806 c-149 -49 -231 -167 -157 -225 40 -31 68 -26 123 24 54
47 98 62 156 51 21 -4 56 -25 86 -51 55 -50 83 -55 123 -24 90 71 -54 224
-221 235 -43 2 -84 -1 -110 -10z"/>
<path d="M2380 4390 c-563 -79 -1025 -458 -1199 -985 -64 -195 -63 -185 -71
-845 -6 -575 -8 -609 -28 -683 -29 -107 -90 -218 -167 -307 -104 -119 -110
-137 -110 -315 0 -138 2 -154 24 -195 32 -61 86 -116 146 -148 l50 -27 1535 0
1535 0 50 27 c60 32 114 87 146 148 22 41 24 57 24 195 0 178 -6 196 -110 315
-77 89 -137 200 -167 307 -20 74 -22 107 -28 683 -8 660 -7 651 -71 843 -59
179 -147 334 -275 488 -195 234 -498 413 -812 479 -111 24 -368 34 -472 20z
m430 -174 c507 -109 879 -468 1012 -981 20 -75 22 -117 28 -690 7 -580 8 -614
29 -694 38 -150 114 -290 218 -401 55 -61 63 -84 63 -196 0 -116 -19 -163 -80
-194 -39 -20 -56 -20 -1521 -20 l-1481 0 -40 22 c-60 34 -78 78 -78 192 0 114
7 134 69 201 99 109 175 250 212 397 21 79 22 115 29 693 6 573 8 615 28 690
52 200 129 358 248 511 206 265 526 444 874 488 70 9 317 -3 390 -18z"/>
<path d="M2152 620 c-51 -48 -35 -102 50 -170 211 -170 501 -170 716 -1 84 67
101 124 50 171 -35 33 -71 26 -130 -26 -28 -26 -81 -61 -117 -78 -59 -28 -75
-31 -161 -31 -86 0 -102 3 -161 31 -36 17 -89 52 -117 78 -59 52 -95 59 -130
26z"/>
</g>
</svg>
