<?xml version="1.0" standalone="no"?>
<!DOCTYPE svg PUBLIC "-//W3C//DTD SVG 20010904//EN"
 "http://www.w3.org/TR/2001/REC-SVG-20010904/DTD/svg10.dtd">
<svg version="1.0" xmlns="http://www.w3.org/2000/svg"
 width="512.000000pt" height="512.000000pt" viewBox="0 0 512.000000 512.000000"
 preserveAspectRatio="xMidYMid meet">

<g transform="translate(0.000000,512.000000) scale(0.100000,-0.100000)"
fill="#000000" stroke="none">
<path d="M2014 4939 c-16 -18 -20 -40 -22 -135 -4 -127 4 -115 -87 -129 -87
-15 -172 -82 -214 -173 l-24 -50 -356 -4 c-333 -4 -360 -5 -414 -25 -114 -43
-193 -122 -236 -236 l-21 -58 0 -1824 c0 -1643 2 -1829 16 -1872 37 -112 121
-200 231 -245 l58 -23 1585 -3 c1779 -3 1676 -7 1787 68 68 45 104 89 141 168
l27 57 0 1850 0 1850 -27 57 c-29 63 -95 139 -148 173 -89 56 -108 58 -496 63
l-361 4 -24 50 c-42 91 -127 158 -214 173 -94 15 -85 1 -85 134 0 102 -3 120
-18 134 -17 15 -69 17 -549 17 -526 0 -530 0 -549 -21z m964 -244 c-7 -155 -5
-158 125 -165 83 -5 99 -9 131 -33 58 -45 66 -70 66 -212 l0 -125 -740 0 -740
0 0 125 c0 142 8 167 66 212 32 24 48 28 131 33 129 7 133 12 133 166 l0 114
416 0 417 0 -5 -115z m-1318 -524 c0 -102 3 -122 19 -142 l19 -24 862 0 862 0
19 24 c16 20 19 40 19 143 l0 119 353 -3 352 -3 48 -28 c60 -35 102 -93 116
-158 8 -34 11 -593 11 -1803 0 -1981 6 -1824 -79 -1906 -27 -26 -63 -51 -87
-58 -55 -16 -3158 -18 -3217 -1 -47 13 -111 69 -140 123 l-22 41 0 1810 0
1810 22 40 c28 52 68 89 123 114 42 19 65 21 383 21 l337 0 0 -119z"/>
<path d="M1584 3810 c-249 -36 -456 -226 -519 -475 -19 -76 -19 -212 1 -295
54 -230 247 -416 484 -466 282 -60 583 95 700 359 51 114 65 279 35 405 -56
239 -263 433 -500 468 -97 15 -123 15 -201 4z m156 -156 c0 -4 -32 -110 -71
-237 -68 -221 -70 -232 -56 -261 9 -17 84 -105 168 -195 l153 -164 -23 -18
c-40 -33 -146 -59 -236 -59 -143 0 -258 50 -350 152 -235 261 -112 681 226
772 54 15 189 22 189 10z m229 -94 c133 -105 201 -279 173 -442 -13 -72 -54
-179 -77 -198 -9 -7 -48 30 -150 141 l-138 150 59 195 c33 110 64 194 70 194
7 0 35 -18 63 -40z"/>
<path d="M2751 3723 c-34 -29 -37 -74 -8 -109 l25 -29 597 0 597 0 19 24 c28
35 25 85 -7 110 -26 21 -35 21 -614 21 -545 0 -589 -1 -609 -17z"/>
<path d="M2764 3320 c-11 -4 -27 -22 -34 -39 -16 -40 1 -85 39 -100 18 -8 199
-11 608 -9 555 3 582 4 602 22 32 29 29 88 -5 115 -26 21 -35 21 -608 20 -319
0 -590 -4 -602 -9z"/>
<path d="M3706 2979 c-89 -22 -156 -91 -177 -183 l-11 -52 -191 -67 -191 -67
-26 24 c-91 85 -235 85 -324 -1 -46 -45 -66 -83 -75 -141 l-6 -45 -172 -67
-172 -67 -22 23 c-66 70 -196 86 -284 35 -65 -37 -103 -93 -118 -169 l-11 -60
-179 -102 -180 -101 -31 34 c-120 131 -334 94 -402 -69 -31 -73 -12 -179 43
-243 118 -138 347 -96 406 74 11 33 31 46 212 149 l200 113 40 -28 c137 -97
326 -25 368 140 7 29 20 57 28 61 8 4 85 35 172 69 l159 61 32 -25 c151 -115
357 -37 391 148 4 21 15 41 24 46 9 4 93 34 187 66 l172 59 36 -28 c53 -40 99
-56 163 -56 134 0 233 103 233 244 0 58 -18 101 -60 150 -59 66 -150 96 -234
75z m116 -179 c25 -26 29 -36 24 -63 -17 -90 -129 -103 -155 -17 -15 52 -14
58 14 85 34 35 78 33 117 -5z m-813 -286 c54 -69 -8 -161 -89 -132 -34 11 -65
68 -54 100 19 60 106 79 143 32z m-797 -275 c29 -15 50 -72 39 -103 -22 -57
-94 -74 -136 -31 -68 67 13 179 97 134z m-802 -357 c21 -17 26 -42 21 -109 -1
-15 -53 -43 -80 -43 -30 0 -70 41 -77 77 -5 27 -1 37 24 63 35 35 78 40 112
12z"/>
<path d="M3547 2308 c-9 -7 -21 -26 -27 -41 -15 -41 -14 -1623 1 -1666 7 -19
22 -36 36 -42 13 -5 112 -9 219 -9 194 0 195 0 219 25 l25 24 0 836 0 836 -25
24 c-24 25 -25 25 -228 25 -147 0 -208 -3 -220 -12z m313 -873 l0 -725 -95 0
-95 0 0 725 0 725 95 0 95 0 0 -725z"/>
<path d="M2721 1974 c-21 -26 -21 -34 -21 -694 0 -660 0 -668 21 -694 l20 -26
210 0 c196 0 210 1 229 20 20 20 20 33 20 700 0 667 0 680 -20 700 -19 19 -33
20 -229 20 l-210 0 -20 -26z m329 -694 l0 -571 -97 3 -98 3 -3 555 c-1 305 0
561 3 568 3 8 33 12 100 12 l95 0 0 -570z"/>
<path d="M1975 1743 c-11 -3 -28 -12 -37 -21 -17 -14 -18 -54 -18 -569 0 -540
0 -553 20 -573 19 -19 33 -20 229 -20 l210 0 20 26 c21 26 21 36 21 566 0 333
-4 546 -10 558 -17 32 -66 40 -244 39 -94 -1 -180 -4 -191 -6z m293 -590 l-3
-438 -97 -3 -98 -3 0 441 0 440 100 0 100 0 -2 -437z"/>
<path d="M1154 1430 c-18 -6 -36 -21 -42 -35 -9 -18 -12 -138 -12 -406 l0
-380 25 -24 c24 -25 25 -25 228 -25 187 0 207 2 228 19 l24 19 0 396 0 395
-23 23 c-22 22 -30 23 -210 25 -103 1 -201 -2 -218 -7z m296 -435 l0 -285 -95
0 -95 0 0 285 0 285 95 0 95 0 0 -285z"/>
</g>
</svg>
