<?xml version="1.0" standalone="no"?>
<!DOCTYPE svg PUBLIC "-//W3C//DTD SVG 20010904//EN"
 "http://www.w3.org/TR/2001/REC-SVG-20010904/DTD/svg10.dtd">
<svg version="1.0" xmlns="http://www.w3.org/2000/svg"
 width="512.000000pt" height="512.000000pt" viewBox="0 0 512.000000 512.000000"
 preserveAspectRatio="xMidYMid meet">

<g transform="translate(0.000000,512.000000) scale(0.100000,-0.100000)"
fill="#000000" stroke="none">
<path d="M1222 4457 c-18 -7 -48 -25 -67 -40 -71 -57 -79 -79 -150 -422 -36
-176 -69 -328 -71 -337 -5 -17 -31 -18 -374 -18 l-368 0 -53 -28 c-60 -31
-113 -93 -129 -150 -14 -51 -14 -2583 0 -2634 17 -59 69 -120 129 -150 l55
-28 1875 0 c1794 0 1878 1 1916 19 59 26 101 66 125 116 12 25 27 45 32 45 6
0 57 -10 114 -22 91 -19 110 -20 159 -9 75 17 133 62 167 131 21 43 81 317
284 1295 274 1326 268 1289 225 1373 -24 47 -91 107 -135 121 -26 9 -777 165
-2791 582 -159 33 -342 71 -405 84 -429 91 -470 96 -538 72z m1885 -477 c983
-204 1800 -375 1816 -381 31 -13 61 -51 70 -89 5 -21 -53 -344 -64 -355 -3 -2
-157 28 -344 66 -187 38 -364 74 -392 80 l-53 10 0 53 c0 117 -50 204 -142
250 l-52 26 -704 0 -704 0 -416 85 c-762 157 -996 206 -1000 210 -6 6 58 305
74 342 14 35 66 73 101 73 12 0 826 -167 1810 -370z m-1621 -250 c214 -44 394
-82 399 -84 6 -3 -178 -5 -409 -5 l-418 -1 7 38 c12 67 27 132 29 132 2 0 178
-36 392 -80z m2483 -244 c17 -17 36 -46 41 -65 13 -49 13 -2503 0 -2552 -5
-19 -24 -48 -41 -65 l-30 -29 -1855 -3 c-2086 -2 -1908 -9 -1945 72 -18 39
-19 96 -19 1301 0 1203 1 1262 19 1301 37 81 -142 74 1943 71 l1857 -2 30 -29z
m860 -442 l73 -16 -6 -36 c-3 -21 -20 -105 -37 -187 l-31 -151 -344 66 -344
65 0 201 0 200 308 -63 c169 -34 340 -70 381 -79z m-344 -450 c165 -31 304
-60 308 -64 10 -9 -299 -1503 -320 -1548 -19 -39 -63 -65 -112 -64 -20 1 -76
10 -126 20 l-90 19 -3 853 -2 852 22 -5 c13 -3 158 -31 323 -63z"/>
<path d="M2670 3200 l0 -90 60 0 60 0 0 90 0 90 -60 0 -60 0 0 -90z"/>
<path d="M2920 3200 l0 -90 60 0 60 0 0 90 0 90 -60 0 -60 0 0 -90z"/>
<path d="M3220 3200 l0 -90 60 0 60 0 0 90 0 90 -60 0 -60 0 0 -90z"/>
<path d="M3470 3200 l0 -90 60 0 60 0 0 90 0 90 -60 0 -60 0 0 -90z"/>
<path d="M593 3125 c-63 -27 -73 -60 -73 -236 0 -143 2 -158 21 -183 40 -51
63 -56 257 -56 170 0 181 1 213 23 53 36 59 56 59 222 0 234 -13 245 -277 245
-121 -1 -177 -5 -200 -15z m355 -232 l3 -123 -156 0 -155 0 0 118 c0 65 3 122
7 126 4 3 72 5 152 4 l146 -3 3 -122z"/>
<path d="M352 1468 l3 -63 90 0 90 0 0 60 0 60 -93 3 -93 3 3 -63z"/>
<path d="M652 1468 l3 -63 88 -3 87 -3 0 66 0 65 -90 0 -91 0 3 -62z"/>
<path d="M952 1468 l3 -63 90 0 90 0 3 63 3 62 -96 0 -96 0 3 -62z"/>
<path d="M1252 1468 l3 -63 90 0 90 0 0 60 0 60 -93 3 -93 3 3 -63z"/>
<path d="M1554 1516 c-3 -7 -4 -35 -2 -62 l3 -49 90 0 90 0 3 63 3 62 -91 0
c-68 0 -92 -3 -96 -14z"/>
<path d="M350 1060 l0 -60 695 0 695 0 0 60 0 60 -695 0 -695 0 0 -60z"/>
</g>
</svg>
