<svg width="24" height="24" viewBox="0 0 24 24" fill="none" xmlns="http://www.w3.org/2000/svg">
<g clip-path="url(#clip0_2389_8898)">
<path d="M18.315 3.43494C17.678 2.79934 16.8148 2.44238 15.915 2.44238C15.0151 2.44238 14.152 2.79934 13.515 3.43494L11.835 5.11494" stroke="black" stroke-opacity="0.6" stroke-miterlimit="10" stroke-linecap="round" stroke-linejoin="round"/>
<path d="M17.6836 11.2666L19.5151 9.43506C20.4662 8.47836 21.0001 7.18412 21.0001 5.83506C21.0001 4.48599 20.4662 3.19175 19.5151 2.23506C18.5584 1.28389 17.2641 0.75 15.9151 0.75C14.566 0.75 13.2718 1.28389 12.3151 2.23506L2.23506 12.3151C1.28389 13.2718 0.75 14.566 0.75 15.9151C0.75 17.2641 1.28389 18.5584 2.23506 19.5151C3.19175 20.4662 4.48599 21.0001 5.83506 21.0001C7.18412 21.0001 8.47836 20.4662 9.43506 19.5151L11.2501 17.7001M7.27506 7.27506L13.0077 13.0077" stroke="black" stroke-opacity="0.6" stroke-miterlimit="10" stroke-linecap="round" stroke-linejoin="round"/>
<path d="M17.25 23.25C20.5637 23.25 23.25 20.5637 23.25 17.25C23.25 13.9363 20.5637 11.25 17.25 11.25C13.9363 11.25 11.25 13.9363 11.25 17.25C11.25 20.5637 13.9363 23.25 17.25 23.25Z" stroke="black" stroke-opacity="0.6" stroke-linecap="round" stroke-linejoin="round"/>
<path d="M15 17.2471L16.8735 19.1221L19.872 15.7471" stroke="black" stroke-opacity="0.6" stroke-linecap="round" stroke-linejoin="round"/>
</g>
<defs>
<clipPath id="clip0_2389_8898">
<rect width="24" height="24" fill="white"/>
</clipPath>
</defs>
</svg>
