<svg width="24" height="24" viewBox="0 0 24 24" fill="none" xmlns="http://www.w3.org/2000/svg">
<g clip-path="url(#clip0_2389_2191)">
<path d="M10.5002 17.6252C10.5002 17.5416 10.5099 17.4602 10.5129 17.3773L8.90532 18.9849C8.09117 19.7991 6.98693 20.2566 5.83552 20.2566C4.6841 20.2566 3.57983 19.7993 2.76563 18.9851C1.95144 18.171 1.494 17.0667 1.49397 15.9153C1.49393 14.7639 1.9513 13.6596 2.76545 12.8454L7.2752 8.3357L12.0891 13.1496C12.9324 12.0957 14.0601 11.3056 15.3386 10.8729C16.6171 10.4401 17.9929 10.3829 19.3029 10.7079L20.0454 9.96545C21.1409 8.87004 21.7563 7.38434 21.7563 5.8352C21.7563 4.28605 21.1409 2.80036 20.0454 1.70495C19.5031 1.16255 18.8591 0.732305 18.1505 0.438765C17.4418 0.145224 16.6823 -0.00585937 15.9152 -0.00585938C14.3661 -0.00585937 12.8804 0.609536 11.7849 1.70495L1.70495 11.7849C0.609536 12.8804 -0.00585937 14.3661 -0.00585938 15.9152C-0.00585937 17.4643 0.609536 18.95 1.70495 20.0454C2.80036 21.1409 4.28605 21.7563 5.8352 21.7563C7.38434 21.7563 8.87004 21.1409 9.96545 20.0454L10.7079 19.3029C10.5721 18.754 10.5023 18.1907 10.5002 17.6252ZM12.2574 4.00707L12.9849 3.27995C13.7626 2.50384 14.8165 2.06795 15.9152 2.06795C17.0139 2.06795 18.0677 2.50384 18.8454 3.27995C18.9821 3.4214 19.0577 3.61085 19.056 3.8075C19.0542 4.00415 18.9754 4.19225 18.8363 4.33131C18.6973 4.47037 18.5091 4.54924 18.3125 4.55095C18.1159 4.55266 17.9264 4.47707 17.7849 4.34045C17.2885 3.84554 16.6162 3.56763 15.9152 3.56763C15.2142 3.56763 14.5419 3.84554 14.0454 4.34045L13.3179 5.06795C13.2483 5.13758 13.1655 5.19281 13.0745 5.23047C12.9835 5.26814 12.8859 5.28751 12.7874 5.28747C12.6889 5.28744 12.5914 5.268 12.5004 5.23027C12.4094 5.19254 12.3267 5.13725 12.2571 5.06757C12.1874 4.99789 12.1322 4.91517 12.0945 4.82415C12.0569 4.73312 12.0375 4.63557 12.0375 4.53706C12.0376 4.43855 12.057 4.34101 12.0947 4.25001C12.1325 4.15901 12.1878 4.07633 12.2574 4.0067V4.00707Z" fill="#2196F3"/>
<path d="M17.625 11.25C16.3641 11.25 15.1316 11.6239 14.0832 12.3244C13.0349 13.0249 12.2178 14.0205 11.7353 15.1854C11.2528 16.3503 11.1265 17.6321 11.3725 18.8687C11.6185 20.1053 12.2256 21.2412 13.1172 22.1328C14.0088 23.0244 15.1447 23.6315 16.3813 23.8775C17.6179 24.1235 18.8997 23.9972 20.0646 23.5147C21.2295 23.0322 22.2251 22.2151 22.9256 21.1668C23.6261 20.1184 24 18.8859 24 17.625C23.9981 15.9348 23.3259 14.3144 22.1307 13.1193C20.9356 11.9241 19.3152 11.2519 17.625 11.25ZM20.8076 16.6204L17.8076 19.9954C17.7397 20.0718 17.6569 20.1336 17.5642 20.1769C17.4715 20.2202 17.371 20.244 17.2688 20.247H17.25C17.1515 20.247 17.0539 20.2276 16.9628 20.1899C16.8718 20.1522 16.7891 20.0969 16.7194 20.0272L14.8444 18.1522C14.7747 18.0826 14.7195 17.9999 14.6819 17.9088C14.6442 17.8178 14.6248 17.7202 14.6249 17.6217C14.6249 17.5232 14.6443 17.4257 14.6821 17.3347C14.7198 17.2437 14.7751 17.161 14.8448 17.0914C14.9144 17.0217 14.9972 16.9665 15.0882 16.9288C15.1792 16.8912 15.2768 16.8718 15.3753 16.8718C15.4738 16.8719 15.5713 16.8913 15.6623 16.9291C15.7533 16.9668 15.836 17.0221 15.9056 17.0917L17.2181 18.4042L19.6875 15.6244C19.8207 15.4799 20.0053 15.3935 20.2015 15.3838C20.3978 15.374 20.59 15.4416 20.7369 15.5721C20.8838 15.7026 20.9737 15.8855 20.9871 16.0816C21.0005 16.2776 20.9365 16.4711 20.8088 16.6204H20.8076Z" fill="#2196F3"/>
</g>
<defs>
<clipPath id="clip0_2389_2191">
<rect width="24" height="24" fill="white"/>
</clipPath>
</defs>
</svg>
