<?xml version="1.0" standalone="no"?>
<!DOCTYPE svg PUBLIC "-//W3C//DTD SVG 20010904//EN"
 "http://www.w3.org/TR/2001/REC-SVG-20010904/DTD/svg10.dtd">
<svg version="1.0" xmlns="http://www.w3.org/2000/svg"
 width="512.000000pt" height="512.000000pt" viewBox="0 0 512.000000 512.000000"
 preserveAspectRatio="xMidYMid meet">

<g transform="translate(0.000000,512.000000) scale(0.100000,-0.100000)"
fill="#000000" stroke="none">
<path d="M2441 5104 c-80 -21 -145 -60 -206 -125 -218 -229 -153 -591 131
-726 67 -32 90 -38 167 -41 110 -6 194 15 275 68 151 97 233 281 203 454 -46
269 -309 440 -570 370z m244 -168 c65 -30 138 -111 161 -178 46 -141 -20 -299
-154 -365 -47 -23 -70 -28 -132 -28 -123 0 -215 57 -271 168 -30 58 -37 159
-15 225 23 67 96 148 161 178 70 33 180 33 250 0z"/>
<path d="M2365 4160 c-232 -61 -415 -210 -524 -427 -45 -91 -71 -195 -78 -315
-6 -104 -6 -106 20 -132 l26 -26 751 0 751 0 26 26 c26 26 26 28 20 132 -7
120 -33 224 -78 315 -110 220 -293 368 -527 428 -101 26 -288 25 -387 -1z
m340 -152 c70 -15 180 -67 245 -117 130 -98 223 -256 245 -418 l7 -53 -641 0
c-604 0 -641 1 -641 18 1 47 33 161 64 225 131 270 423 410 721 345z"/>
<path d="M1198 3220 c-148 -156 -256 -312 -348 -502 -99 -205 -177 -481 -154
-545 14 -39 57 -58 95 -43 38 16 44 28 70 145 66 307 225 604 447 834 71 74
79 105 37 146 -43 44 -80 35 -147 -35z"/>
<path d="M3785 3255 c-43 -43 -34 -75 44 -160 222 -239 377 -536 436 -837 18
-91 37 -123 80 -134 31 -8 72 17 85 52 12 31 -17 173 -66 321 -85 262 -269
562 -447 731 -64 59 -94 66 -132 27z"/>
<path d="M2090 2944 c-129 -53 -243 -103 -252 -112 -27 -23 -22 -72 18 -171
l35 -89 -56 -55 -57 -55 -99 44 c-102 47 -132 49 -162 16 -24 -28 -207 -470
-207 -501 0 -44 26 -65 133 -112 l98 -42 -3 -80 -3 -81 -95 -38 c-96 -38 -130
-64 -130 -99 0 -28 186 -488 206 -510 26 -29 75 -23 170 21 l87 40 55 -55 55
-55 -42 -99 c-22 -55 -41 -107 -41 -116 0 -38 59 -73 286 -168 128 -53 238
-97 246 -97 33 0 65 42 103 134 l40 97 79 -3 80 -3 38 -95 c39 -96 64 -130
100 -130 32 0 489 192 509 214 27 28 24 54 -16 153 -19 48 -35 92 -35 98 0 6
24 34 53 63 l53 53 91 -41 c104 -46 141 -50 170 -17 24 27 213 470 213 501 0
39 -27 61 -124 101 l-97 40 3 83 3 83 95 40 c101 41 120 57 120 99 0 27 -168
455 -194 495 -26 40 -58 39 -168 -5 l-102 -40 -55 55 -54 54 42 100 c22 55 41
107 41 115 0 39 -50 68 -284 167 -294 124 -280 126 -346 -31 l-44 -101 -80 3
-81 3 -40 98 c-41 100 -62 127 -99 127 -12 -1 -127 -44 -256 -96z m250 -180
c18 -47 43 -92 54 -100 16 -11 56 -14 172 -14 180 0 179 -1 225 110 17 41 34
79 38 83 7 6 284 -103 299 -118 3 -2 -12 -42 -32 -89 -20 -46 -36 -94 -36
-105 0 -13 43 -64 114 -136 132 -133 129 -132 249 -84 65 27 80 30 88 18 10
-16 107 -257 111 -277 2 -8 -30 -27 -82 -48 -47 -20 -91 -42 -99 -49 -11 -10
-14 -51 -15 -171 -2 -188 -3 -186 119 -239 48 -21 79 -40 77 -47 -6 -24 -114
-273 -121 -281 -4 -4 -45 8 -90 28 -46 19 -93 35 -105 35 -30 0 -256 -221
-256 -251 0 -11 16 -59 35 -106 20 -47 35 -87 33 -88 -2 -2 -70 -30 -153 -63
l-150 -60 -33 82 c-50 123 -48 122 -234 121 -108 0 -160 -4 -171 -13 -8 -7
-29 -47 -47 -90 -19 -42 -37 -81 -41 -86 -5 -5 -72 18 -157 53 l-150 63 39 93
c30 72 37 99 30 117 -5 13 -57 71 -116 130 -76 77 -114 108 -131 108 -21 0
-62 -14 -156 -54 l-36 -15 -57 142 c-32 78 -59 147 -62 153 -2 6 37 28 87 49
52 22 96 47 102 58 6 11 10 85 11 174 0 182 4 174 -118 224 -44 17 -81 33 -83
34 -4 4 118 287 128 298 4 5 45 -7 91 -27 45 -20 93 -36 105 -36 26 0 254 220
254 245 0 8 -16 54 -35 102 -19 48 -32 90 -28 94 10 10 275 118 289 119 6 0
26 -39 44 -86z"/>
<path d="M2425 2424 c-38 -8 -108 -34 -155 -56 -68 -33 -100 -57 -170 -127
-133 -134 -190 -270 -190 -456 0 -186 56 -321 190 -456 70 -71 100 -94 170
-127 195 -93 385 -93 580 0 111 53 237 176 289 283 89 180 95 380 19 560 -72
171 -245 321 -428 370 -85 23 -223 27 -305 9z m258 -159 c161 -42 293 -163
347 -319 90 -263 -53 -547 -320 -636 -86 -29 -246 -25 -329 9 -344 139 -428
581 -157 828 127 116 298 160 459 118z"/>
<path d="M681 1844 c-80 -21 -145 -60 -206 -125 -218 -229 -153 -591 131 -726
67 -32 90 -38 167 -41 110 -6 194 15 275 68 151 97 233 281 203 454 -46 269
-309 440 -570 370z m245 -168 c107 -50 165 -136 172 -257 4 -67 1 -83 -23
-138 -52 -114 -147 -175 -275 -176 -62 0 -85 5 -132 28 -99 49 -158 137 -166
248 -6 89 16 154 75 219 69 77 117 98 228 99 54 1 82 -5 121 -23z"/>
<path d="M4215 1846 c-182 -46 -319 -198 -345 -382 -23 -172 53 -345 195 -439
151 -100 354 -102 506 -4 148 94 230 279 201 452 -45 265 -301 437 -557 373z
m231 -170 c107 -50 165 -136 172 -257 4 -67 1 -83 -23 -138 -52 -114 -147
-175 -275 -176 -62 0 -85 5 -132 28 -133 65 -197 213 -154 359 20 71 91 152
161 184 71 33 180 33 251 0z"/>
<path d="M605 900 c-232 -61 -415 -210 -524 -427 -45 -91 -71 -195 -78 -315
-6 -104 -6 -106 20 -132 l26 -26 751 0 751 0 26 26 c26 26 26 28 20 132 -7
120 -33 224 -78 315 -110 220 -293 368 -527 428 -101 26 -288 25 -387 -1z
m340 -152 c70 -15 180 -67 245 -117 130 -98 223 -256 245 -418 l7 -53 -641 0
c-616 0 -641 1 -641 18 0 11 9 53 20 96 30 117 82 209 170 297 164 165 368
226 595 177z"/>
<path d="M4160 905 c-250 -56 -452 -214 -560 -439 -51 -107 -69 -179 -77 -308
-6 -105 -6 -106 20 -132 l26 -26 751 0 751 0 26 26 c25 25 26 28 20 127 -7
126 -28 208 -77 313 -98 205 -294 369 -515 429 -84 23 -283 29 -365 10z m346
-136 c246 -75 434 -300 452 -541 l5 -68 -643 0 -643 0 7 61 c26 228 166 422
374 518 138 63 303 74 448 30z"/>
<path d="M3181 273 c-203 -84 -416 -118 -684 -110 -209 7 -313 25 -497 86 -67
23 -132 41 -144 41 -50 0 -85 -81 -53 -123 28 -37 292 -118 482 -148 105 -17
447 -17 548 0 124 20 263 56 390 101 99 36 120 47 132 71 21 40 19 57 -14 90
-37 36 -54 35 -160 -8z"/>
</g>
</svg>
