<?xml version="1.0" standalone="no"?>
<!DOCTYPE svg PUBLIC "-//W3C//DTD SVG 20010904//EN"
 "http://www.w3.org/TR/2001/REC-SVG-20010904/DTD/svg10.dtd">
<svg version="1.0" xmlns="http://www.w3.org/2000/svg"
 width="512.000000pt" height="512.000000pt" viewBox="0 0 512.000000 512.000000"
 preserveAspectRatio="xMidYMid meet">

<g transform="translate(0.000000,512.000000) scale(0.100000,-0.100000)"
fill="#000000" stroke="none">
<path d="M1699 4944 c-63 -19 -141 -90 -168 -154 l-22 -50 -165 0 c-95 0 -174
-4 -185 -10 -18 -10 -19 -23 -19 -208 0 -141 3 -201 12 -210 9 -9 166 -12 645
-12 615 0 633 1 643 19 6 12 10 96 10 204 0 165 -2 186 -18 200 -16 14 -44 17
-188 17 l-169 0 -19 47 c-55 133 -212 202 -357 157z m146 -169 c30 -30 32 -64
4 -99 -26 -33 -79 -36 -109 -6 -30 30 -27 83 6 109 35 28 69 26 99 -4z"/>
<path d="M441 4630 c-46 -11 -82 -39 -108 -86 l-23 -39 0 -1606 0 -1606 23
-43 c16 -30 37 -51 67 -67 l43 -23 749 0 749 0 -64 74 c-36 41 -79 95 -96 120
l-32 46 -587 0 c-444 0 -591 3 -600 12 -9 9 -12 354 -12 1490 0 1450 0 1477
19 1488 12 6 100 10 216 10 l196 0 -3 118 -3 117 -250 2 c-137 0 -265 -3 -284
-7z"/>
<path d="M2610 4520 l0 -120 199 0 c195 0 200 -1 215 -22 14 -20 16 -89 16
-553 l0 -530 98 -28 c53 -15 107 -31 120 -34 l23 -5 -3 638 c-3 703 0 668 -65
728 -41 38 -103 46 -363 46 l-240 0 0 -120z"/>
<path d="M899 4001 c-24 -19 -24 -19 -24 -255 0 -213 2 -237 18 -253 16 -16
40 -18 253 -18 236 0 236 0 255 24 17 21 19 42 19 248 l0 224 -25 24 -24 25
-224 0 c-206 0 -227 -2 -248 -19z m394 -102 c26 -12 47 -47 47 -79 0 -26 -157
-219 -187 -231 -40 -15 -68 0 -137 71 -74 76 -81 101 -43 146 30 34 76 36 119
4 l31 -23 33 39 c18 22 33 42 34 46 0 9 51 37 67 38 7 0 23 -5 36 -11z"/>
<path d="M1705 3955 c-16 -15 -25 -36 -25 -55 0 -19 9 -40 25 -55 l24 -25 506
0 506 0 24 25 c16 15 25 36 25 55 0 19 -9 40 -25 55 l-24 25 -506 0 -506 0
-24 -25z"/>
<path d="M1705 3645 c-16 -15 -25 -36 -25 -55 0 -19 9 -40 25 -55 l24 -25 496
0 c416 0 501 2 524 15 48 24 56 81 16 120 l-24 25 -506 0 -506 0 -24 -25z"/>
<path d="M2692 3150 c-447 -45 -830 -373 -941 -805 -100 -389 16 -792 307
-1067 226 -212 548 -323 848 -289 221 25 381 91 586 240 18 13 31 3 183 -149
l164 -163 -20 -25 c-22 -28 -24 -67 -6 -99 7 -12 152 -157 322 -322 316 -307
338 -324 393 -307 30 10 270 260 278 289 15 61 15 61 -527 584 -130 126 -153
137 -212 105 l-39 -22 -168 163 -168 162 19 30 c42 63 109 213 133 297 156
546 -138 1123 -672 1318 -142 52 -327 75 -480 60z m295 -236 c324 -72 575
-319 655 -642 30 -122 30 -295 -1 -412 -80 -308 -323 -551 -631 -631 -117 -31
-290 -31 -412 -1 -567 140 -837 784 -540 1287 62 105 192 235 297 297 191 113
421 150 632 102z"/>
<path d="M3253 2491 c-52 -24 -85 -82 -82 -145 2 -39 -6 -55 -101 -194 -78
-114 -109 -152 -124 -152 -27 0 -152 218 -155 269 -4 75 -68 131 -149 131 -75
0 -142 -71 -142 -150 0 -31 -11 -46 -88 -123 -84 -83 -89 -87 -132 -87 -85 0
-142 -59 -142 -148 0 -51 20 -84 72 -119 83 -57 201 1 217 104 4 31 23 56 102
136 130 131 130 131 213 -15 46 -81 65 -124 65 -150 1 -55 31 -99 85 -126 55
-28 104 -23 149 15 41 35 60 76 58 126 -2 38 7 56 99 194 99 148 102 151 144
158 80 14 138 103 117 179 -13 46 -46 86 -85 102 -44 19 -71 17 -121 -5z"/>
<path d="M894 3129 c-18 -19 -19 -39 -19 -254 0 -182 3 -235 14 -248 12 -15
43 -17 257 -17 240 0 243 0 258 22 13 19 16 60 16 244 0 209 -1 223 -21 248
l-20 26 -233 0 c-224 0 -234 -1 -252 -21z m421 -114 c43 -42 34 -72 -55 -181
-116 -143 -142 -148 -243 -46 -73 74 -82 109 -39 152 37 37 58 38 107 4 l38
-26 26 34 c73 94 118 112 166 63z"/>
<path d="M1705 3085 c-30 -29 -32 -74 -6 -106 17 -22 29 -24 115 -27 l97 -4
45 39 c25 21 71 57 101 81 l55 42 -192 0 c-189 0 -191 0 -215 -25z"/>
<path d="M894 2266 c-18 -14 -19 -28 -19 -256 0 -228 1 -242 19 -256 16 -11
68 -14 257 -14 208 0 238 2 250 17 11 13 14 67 14 255 0 226 -1 240 -19 254
-16 11 -67 14 -251 14 -184 0 -235 -3 -251 -14z m421 -121 c44 -43 35 -69 -63
-190 -80 -99 -88 -105 -130 -105 -26 0 -44 11 -89 52 -87 83 -101 130 -53 178
28 28 72 25 109 -6 l31 -26 27 34 c59 71 81 88 113 88 20 0 40 -9 55 -25z"/>
</g>
</svg>
