<svg width="24" height="24" viewBox="0 0 24 24" fill="none" xmlns="http://www.w3.org/2000/svg">
<g clip-path="url(#clip0_2389_9136)">
<path d="M23.8902 23.3714L19.2263 18.7079L19.7649 18.1694C19.9061 18.0279 19.9854 17.8362 19.9854 17.6363C19.9854 17.4364 19.9061 17.2447 19.7649 17.1033L18.743 16.0814C18.8475 15.6967 18.8484 15.2912 18.7456 14.9061C18.6427 14.521 18.4397 14.17 18.1572 13.8888L9.2116 4.94275L7.60173 3.33288L8.40798 2.52663C8.47628 2.4559 8.51408 2.36118 8.51323 2.26285C8.51237 2.16453 8.47294 2.07048 8.40341 2.00095C8.33388 1.93142 8.23982 1.89198 8.1415 1.89113C8.04318 1.89027 7.94845 1.92807 7.87773 1.99638L6.80673 3.06738L5.99973 3.87401L3.5836 1.45788L4.38985 0.65163C4.45816 0.580904 4.49596 0.486179 4.4951 0.387855C4.49425 0.289531 4.45481 0.195476 4.38528 0.125948C4.31575 0.0564202 4.2217 0.0169819 4.12338 0.0161275C4.02505 0.0152731 3.93033 0.0530709 3.8596 0.12138L3.05335 0.92763L0.91585 3.06513L0.1096 3.87138C0.0737839 3.90597 0.0452156 3.94735 0.0255622 3.9931C0.00590887 4.03885 -0.00443597 4.08806 -0.00486865 4.13785C-0.00530133 4.18765 0.00418681 4.23703 0.0230421 4.28311C0.0418975 4.3292 0.0697424 4.37107 0.104952 4.40628C0.140162 4.44149 0.182031 4.46933 0.228118 4.48819C0.274204 4.50704 0.323583 4.51653 0.373376 4.5161C0.423168 4.51567 0.472375 4.50532 0.518127 4.48567C0.563878 4.46601 0.605258 4.43745 0.63985 4.40163L1.4461 3.59538L3.86223 6.0115L3.05635 6.81738L1.9846 7.88913C1.94878 7.92372 1.92022 7.9651 1.90056 8.01085C1.88091 8.0566 1.87056 8.10581 1.87013 8.1556C1.8697 8.2054 1.87919 8.25478 1.89804 8.30086C1.9169 8.34695 1.94474 8.38882 1.97995 8.42403C2.01516 8.45924 2.05703 8.48708 2.10312 8.50594C2.1492 8.52479 2.19858 8.53428 2.24838 8.53385C2.29817 8.53342 2.34738 8.52307 2.39313 8.50342C2.43888 8.48376 2.48026 8.4552 2.51485 8.41938L3.3211 7.61313L9.75235 14.0444L13.8773 18.1694C14.1586 18.4518 14.5097 18.6547 14.8948 18.7575C15.2799 18.8603 15.6854 18.8594 16.07 18.7548L17.0915 19.7766C17.2329 19.9178 17.4247 19.9972 17.6245 19.9972C17.8244 19.9972 18.0161 19.9178 18.1576 19.7766L18.6961 19.2374L23.3596 23.9016C23.4303 23.9699 23.5251 24.0077 23.6234 24.0069C23.7217 24.006 23.8158 23.9666 23.8853 23.8971C23.9548 23.8275 23.9942 23.7335 23.9951 23.6352C23.996 23.5368 23.9585 23.4421 23.8902 23.3714ZM4.39248 6.54175L5.46123 5.473L7.07148 3.86238L8.41623 5.20713L7.50273 6.12063C7.46691 6.15522 7.43834 6.1966 7.41869 6.24235C7.39903 6.2881 7.38869 6.33731 7.38826 6.3871C7.38782 6.4369 7.39731 6.48628 7.41617 6.53236C7.43502 6.57845 7.46287 6.62032 7.49808 6.65553C7.53329 6.69074 7.57516 6.71858 7.62124 6.73744C7.66733 6.75629 7.71671 6.76578 7.7665 6.76535C7.81629 6.76492 7.8655 6.75457 7.91125 6.73492C7.957 6.71526 7.99838 6.6867 8.03298 6.65088L8.9461 5.73738L10.0231 6.81438L8.5741 8.26338C8.53828 8.29797 8.50972 8.33935 8.49006 8.3851C8.47041 8.43085 8.46006 8.48006 8.45963 8.52985C8.4592 8.57965 8.46869 8.62903 8.48754 8.67511C8.5064 8.7212 8.53424 8.76307 8.56945 8.79828C8.60466 8.83349 8.64653 8.86133 8.69262 8.88019C8.7387 8.89904 8.78808 8.90853 8.83788 8.9081C8.88767 8.90767 8.93688 8.89732 8.98263 8.87767C9.02838 8.85801 9.06976 8.82945 9.10435 8.79363L10.5534 7.34463L11.6304 8.42163L10.7169 9.33738C10.681 9.37197 10.6525 9.41335 10.6328 9.4591C10.6132 9.50486 10.6028 9.55406 10.6024 9.60385C10.6019 9.65365 10.6114 9.70303 10.6303 9.74911C10.6491 9.7952 10.677 9.83707 10.7122 9.87228C10.7474 9.90749 10.7893 9.93533 10.8354 9.95419C10.8815 9.97304 10.9308 9.98253 10.9806 9.9821C11.0304 9.98167 11.0796 9.97132 11.1254 9.95167C11.1711 9.93201 11.2125 9.90345 11.2471 9.86763L12.1606 8.95413L13.2372 10.0293L10.0175 13.249L3.85173 7.0825L4.39248 6.54175ZM17.6221 19.2464L16.7918 18.4158C16.8968 18.342 16.9954 18.2596 17.0866 18.1694L18.158 17.098C18.2479 17.007 18.3301 16.9087 18.4036 16.804L19.235 17.6391L17.6221 19.2464Z" fill="#2196F3"/>
</g>
<defs>
<clipPath id="clip0_2389_9136">
<rect width="24" height="24" fill="white"/>
</clipPath>
</defs>
</svg>
