<svg width="24" height="24" viewBox="0 0 24 24" fill="none" xmlns="http://www.w3.org/2000/svg">
<g clip-path="url(#clip0_2389_8893)">
<path d="M18.5186 18.7081L23.0723 23.2617M15.9964 18.3286L17.1795 19.5117C17.2147 19.5469 17.2565 19.5749 17.3024 19.5939C17.3484 19.613 17.3977 19.6228 17.4475 19.6228C17.4972 19.6228 17.5465 19.613 17.5925 19.5939C17.6384 19.5749 17.6802 19.5469 17.7154 19.5117L19.3226 17.9045C19.3578 17.8693 19.3858 17.8275 19.4048 17.7816C19.4239 17.7356 19.4337 17.6863 19.4337 17.6365C19.4337 17.5868 19.4239 17.5375 19.4048 17.4915C19.3858 17.4455 19.3578 17.4038 19.3226 17.3686L18.1399 16.1858M0.572266 4.51172L4.32227 0.761719M4.59002 6.38672L1.64364 3.44034M3.25089 1.83309L6.19727 4.77947" stroke="black" stroke-opacity="0.6" stroke-miterlimit="10" stroke-linecap="round" stroke-linejoin="round"/>
<path d="M7.96502 6.76172L9.14364 5.58309M9.03677 8.90447L10.7509 7.19034M11.1795 9.97584L12.3581 8.79722M13.8581 13.7258L15.5723 12.0117M16.0009 14.7972L17.1795 13.6186M2.44727 8.52947L8.34002 2.63672M3.51864 7.45809L13.965 17.9045C14.3202 18.2597 14.802 18.4592 15.3043 18.4592C15.8067 18.4592 16.2884 18.2597 16.6436 17.9045L17.715 16.8331C18.0702 16.4779 18.2698 15.9961 18.2698 15.4938C18.2698 14.9914 18.0702 14.5097 17.715 14.1545L7.26864 3.70809M10.215 14.1545L13.965 10.4045" stroke="black" stroke-opacity="0.6" stroke-miterlimit="10" stroke-linecap="round" stroke-linejoin="round"/>
</g>
<defs>
<clipPath id="clip0_2389_8893">
<rect width="24" height="24" fill="white"/>
</clipPath>
</defs>
</svg>
