<?xml version="1.0" standalone="no"?>
<!DOCTYPE svg PUBLIC "-//W3C//DTD SVG 20010904//EN"
 "http://www.w3.org/TR/2001/REC-SVG-20010904/DTD/svg10.dtd">
<svg version="1.0" xmlns="http://www.w3.org/2000/svg"
 width="512.000000pt" height="512.000000pt" viewBox="0 0 512.000000 512.000000"
 preserveAspectRatio="xMidYMid meet">

<g transform="translate(0.000000,512.000000) scale(0.100000,-0.100000)"
fill="#000000" stroke="none">
<path d="M492 4700 c-52 -12 -109 -56 -139 -107 l-28 -48 0 -245 c0 -313 1
-315 153 -354 161 -41 282 -174 314 -343 23 -122 -24 -267 -117 -359 -60 -60
-126 -97 -219 -120 -80 -20 -121 -59 -131 -127 -4 -24 -5 -138 -3 -253 3 -192
5 -212 25 -250 28 -53 82 -100 130 -113 25 -7 353 -11 980 -11 843 0 943 2
957 16 19 18 20 38 6 65 -10 19 -32 19 -951 19 -1030 0 -992 -2 -1024 59 -13
26 -15 66 -13 257 l3 226 65 18 c224 59 381 247 397 475 17 252 -148 475 -402
544 l-60 16 -3 233 -2 234 34 34 34 34 2062 0 2062 0 34 -34 34 -34 -2 -234
-3 -233 -60 -16 c-241 -65 -404 -273 -405 -514 0 -232 179 -457 406 -508 l59
-14 3 -226 c2 -192 0 -232 -13 -258 -32 -60 -12 -59 -838 -59 -750 0 -754 0
-773 -21 -17 -19 -17 -23 -3 -47 l15 -27 763 -3 c509 -1 776 1 802 8 49 13
104 61 132 114 20 38 22 58 25 250 2 115 1 229 -3 253 -10 68 -51 107 -131
127 -93 23 -159 60 -219 120 -93 93 -140 236 -117 359 32 170 153 302 314 343
152 39 153 41 153 355 l0 246 -30 49 c-19 30 -49 60 -79 79 l-49 30 -2056 2
c-1131 0 -2071 -2 -2089 -7z"/>
<path d="M3102 4468 c-8 -8 -12 -46 -12 -103 0 -80 3 -94 21 -111 19 -17 23
-17 47 -3 26 14 27 19 30 106 2 73 0 94 -13 107 -19 19 -56 21 -73 4z"/>
<path d="M3506 4270 c-41 -13 -74 -48 -86 -89 -13 -47 -13 -236 0 -283 6 -20
24 -48 41 -62 l31 -26 270 0 270 0 33 33 c41 41 49 84 44 235 -4 117 -15 146
-66 179 -24 16 -57 18 -268 20 -132 1 -253 -2 -269 -7z m494 -230 l0 -130
-240 0 -240 0 0 130 0 130 240 0 240 0 0 -130z"/>
<path d="M1276 4144 c-9 -8 -16 -24 -16 -34 0 -10 7 -26 16 -34 13 -14 59 -16
348 -16 355 0 356 0 356 50 0 50 -1 50 -356 50 -289 0 -335 -2 -348 -16z"/>
<path d="M3112 4034 c-21 -15 -22 -21 -22 -189 0 -168 1 -174 22 -189 29 -20
34 -20 58 4 18 18 20 33 20 185 0 152 -2 167 -20 185 -24 24 -29 24 -58 4z"/>
<path d="M1276 3644 c-19 -18 -21 -55 -4 -72 17 -17 1029 -17 1046 0 19 19 15
66 -7 78 -13 6 -194 10 -520 10 -441 0 -501 -2 -515 -16z"/>
<path d="M3107 3432 c-14 -16 -17 -44 -17 -188 0 -119 4 -174 12 -182 19 -19
66 -15 78 7 6 11 10 90 10 185 0 159 -1 165 -22 180 -29 21 -41 20 -61 -2z"/>
<path d="M1368 3140 c-73 -22 -118 -84 -118 -163 0 -49 26 -96 73 -131 28 -21
39 -21 540 -24 330 -2 525 1 547 7 48 14 97 67 108 116 16 75 -13 141 -79 180
-33 19 -54 20 -539 22 -278 1 -517 -2 -532 -7z m1036 -116 c24 -23 20 -70 -6
-88 -20 -14 -85 -16 -515 -16 -480 0 -494 1 -513 20 -24 24 -26 57 -3 82 15
17 44 18 519 18 444 0 504 -2 518 -16z"/>
<path d="M3486 3004 c-9 -8 -16 -24 -16 -34 0 -46 19 -50 234 -50 216 0 226 2
226 50 0 48 -10 50 -226 50 -171 0 -205 -2 -218 -16z"/>
<path d="M3107 2837 c-15 -10 -17 -27 -15 -112 3 -98 3 -100 30 -109 22 -8 32
-6 48 9 17 16 20 30 20 105 0 71 -3 90 -18 103 -22 20 -42 21 -65 4z"/>
<path d="M2625 2704 c-44 -23 -93 -73 -115 -119 -37 -76 -29 -130 55 -361 107
-293 106 -290 113 -519 8 -227 7 -226 116 -361 74 -92 114 -161 152 -262 38
-101 60 -123 99 -98 32 21 31 37 -6 139 -34 97 -92 195 -173 295 -81 101 -86
115 -85 289 0 102 -5 173 -16 228 -15 70 -76 255 -151 454 -13 35 -24 80 -24
100 0 75 69 139 138 127 41 -6 68 -28 93 -78 25 -48 155 -349 180 -413 21 -58
83 -125 137 -151 58 -28 150 -30 206 -6 40 18 46 25 46 50 0 47 -21 57 -84 42
-70 -16 -115 -7 -159 33 -30 26 -54 73 -132 259 -53 124 -109 246 -125 271
-56 84 -184 123 -265 81z"/>
<path d="M3776 2267 c-15 -11 -26 -57 -51 -208 -18 -107 -45 -264 -60 -349
-33 -190 -26 -324 18 -352 19 -12 55 -9 64 5 4 6 8 75 8 152 0 122 6 175 48
410 56 310 57 323 32 341 -24 17 -36 17 -59 1z"/>
<path d="M1674 1139 c-249 -90 -274 -109 -223 -160 23 -23 5 -28 243 58 233
83 242 87 248 110 7 27 -7 59 -30 65 -11 3 -117 -30 -238 -73z"/>
<path d="M3465 1069 c-314 -109 -437 -156 -455 -175 -40 -39 -34 -102 24 -264
56 -155 81 -195 132 -209 32 -9 76 4 467 136 259 87 441 154 455 166 12 11 27
38 32 58 9 33 5 56 -40 195 -28 87 -55 165 -60 175 -17 31 -71 69 -98 69 -15
-1 -220 -68 -457 -151z m515 -115 c27 -82 46 -152 42 -155 -4 -3 -191 -68
-415 -144 -346 -117 -411 -136 -422 -124 -14 15 -111 287 -104 293 14 13 836
292 842 286 4 -4 30 -74 57 -156z"/>
<path d="M1892 918 c-238 -227 -342 -331 -342 -344 0 -19 36 -54 56 -54 28 0
454 412 454 439 0 25 -26 51 -52 51 -11 0 -60 -38 -116 -92z"/>
<path d="M2170 872 c-17 -14 -23 -45 -41 -195 -22 -187 -21 -199 21 -210 11
-3 29 2 40 11 17 14 24 44 42 194 22 187 21 200 -22 211 -11 3 -29 -2 -40 -11z"/>
</g>
</svg>
