<?xml version="1.0" standalone="no"?>
<!DOCTYPE svg PUBLIC "-//W3C//DTD SVG 20010904//EN"
 "http://www.w3.org/TR/2001/REC-SVG-20010904/DTD/svg10.dtd">
<svg version="1.0" xmlns="http://www.w3.org/2000/svg"
 width="512.000000pt" height="512.000000pt" viewBox="0 0 512.000000 512.000000"
 preserveAspectRatio="xMidYMid meet">

<g transform="translate(0.000000,512.000000) scale(0.100000,-0.100000)"
fill="#000000" stroke="none">
<path d="M25 5095 l-25 -24 0 -1478 c1 -1588 -2 -1501 51 -1522 30 -11 83 8
93 34 3 9 6 658 6 1441 l0 1424 1590 0 1590 0 0 -268 c0 -268 0 -269 23 -290
31 -29 72 -28 102 3 l25 24 0 316 0 316 -25 24 -24 25 -1691 0 -1691 0 -24
-25z"/>
<path d="M779 4681 c-101 -33 -100 -31 -97 -416 l3 -325 33 -32 32 -33 148 -3
c166 -4 205 4 258 50 61 54 76 97 72 202 -2 74 -7 97 -24 120 l-21 29 24 44
c23 39 25 53 21 137 -3 86 -6 98 -33 137 -18 26 -50 53 -79 68 -45 23 -63 26
-180 28 -72 1 -143 -1 -157 -6z m283 -168 c13 -12 18 -30 18 -68 0 -83 -10
-89 -139 -93 l-111 -4 0 91 0 91 107 0 c85 0 110 -3 125 -17z m-4 -329 c18
-13 22 -25 22 -74 0 -82 -13 -90 -147 -90 l-103 0 0 90 0 90 103 0 c77 0 108
-4 125 -16z"/>
<path d="M1400 4683 c-8 -3 -23 -12 -32 -21 -17 -14 -18 -45 -18 -384 0 -355
1 -369 20 -388 25 -25 71 -26 101 -1 l24 19 3 360 3 360 -23 25 c-25 27 -54
38 -78 30z"/>
<path d="M1654 4675 c-17 -7 -34 -20 -38 -30 -3 -9 -6 -177 -6 -374 l0 -358
23 -21 c23 -21 31 -22 255 -22 219 0 233 1 252 20 30 30 27 83 -6 109 -25 19
-40 21 -200 21 l-174 0 0 308 c-1 236 -4 311 -14 324 -21 28 -58 38 -92 23z"/>
<path d="M2290 4677 c-48 -24 -50 -39 -50 -393 0 -341 4 -385 40 -404 11 -6
118 -10 249 -10 l230 0 20 26 c28 35 26 69 -4 99 -24 25 -27 25 -199 25 l-175
0 -3 310 c-3 294 -4 310 -23 329 -28 27 -56 33 -85 18z"/>
<path d="M3350 4160 c-20 -20 -20 -33 -20 -630 l0 -609 -572 -3 -573 -3 -55
-26 c-65 -31 -129 -92 -155 -148 l-18 -41 -633 -2 -633 -3 -22 -22 c-29 -29
-29 -77 0 -106 l22 -22 624 -3 625 -3 0 -224 0 -225 -621 0 c-378 0 -627 -4
-638 -10 -10 -5 -24 -22 -30 -39 -10 -24 -10 -34 3 -59 8 -16 23 -32 31 -36 9
-3 295 -6 635 -6 l619 0 3 -477 3 -478 28 -57 c34 -70 101 -131 173 -158 53
-19 76 -20 619 -20 l565 0 0 -247 0 -247 -158 157 c-87 86 -166 157 -176 157
-34 0 -63 -24 -244 -203 l-182 -182 -190 190 c-175 175 -192 189 -225 189 -33
0 -50 -14 -225 -189 l-190 -190 -182 182 c-101 99 -193 186 -206 192 -12 7
-33 9 -45 6 -12 -4 -106 -91 -209 -193 l-188 -187 -182 182 c-181 179 -210
203 -244 203 -10 0 -89 -71 -176 -157 l-158 -157 0 780 0 781 -23 21 c-33 31
-80 29 -106 -4 -21 -27 -21 -32 -21 -906 l0 -879 25 -24 c49 -50 62 -42 272
167 l193 192 193 -192 c161 -160 198 -192 222 -192 24 0 61 32 222 192 l193
192 193 -192 c173 -172 197 -192 227 -192 29 0 53 20 227 192 l193 192 193
-192 c161 -160 198 -192 222 -192 24 0 61 32 222 192 l193 192 193 -192 c210
-209 223 -217 272 -167 l25 24 0 351 0 350 690 0 c680 0 690 0 747 21 68 26
138 91 173 164 l25 50 0 840 c0 805 -1 842 -19 890 -26 66 -103 147 -169 176
-49 22 -66 24 -292 27 -233 3 -241 3 -268 -18 -34 -27 -37 -80 -7 -110 19 -19
34 -20 238 -20 274 -1 310 -12 353 -105 18 -38 19 -85 19 -825 0 -485 -4 -799
-10 -820 -11 -41 -61 -94 -103 -109 -19 -8 -437 -11 -1331 -11 l-1303 0 -43
23 c-30 16 -51 37 -67 67 l-23 44 2 811 3 812 28 36 c59 77 -19 71 1035 77
920 5 944 5 958 24 23 33 18 82 -12 105 -26 20 -38 21 -325 21 l-299 0 0 604
c0 595 0 604 -21 630 -26 33 -79 36 -109 6z"/>
<path d="M677 3289 c-45 -26 -39 -106 9 -128 18 -8 211 -11 678 -11 608 0 655
1 675 18 11 9 24 31 27 49 5 26 1 37 -19 57 l-26 26 -663 0 c-445 -1 -669 -4
-681 -11z"/>
<path d="M2241 3274 c-28 -35 -26 -69 4 -99 l24 -25 255 0 c250 0 255 0 280
23 36 32 39 74 6 107 -19 19 -33 20 -284 20 l-265 0 -20 -26z"/>
<path d="M2329 2655 c-57 -18 -113 -77 -129 -135 -7 -26 -10 -117 -8 -243 3
-232 11 -258 87 -312 l43 -30 291 -3 c318 -4 346 0 402 49 60 53 67 86 63 335
l-3 221 -28 40 c-15 22 -46 50 -70 64 -41 24 -46 24 -322 26 -222 2 -290 -1
-326 -12z m589 -157 c8 -8 12 -67 12 -199 0 -157 -3 -190 -16 -203 -13 -14
-53 -16 -279 -16 -261 0 -264 0 -279 22 -13 18 -16 55 -16 196 0 100 4 181 10
193 10 18 24 19 283 19 199 0 276 -3 285 -12z"/>
<path d="M2240 1770 c-30 -30 -27 -83 6 -109 25 -20 39 -21 230 -21 111 0 210
3 219 6 24 10 46 60 39 89 -13 51 -31 55 -261 55 -200 0 -214 -1 -233 -20z"/>
<path d="M2889 1771 c-17 -13 -23 -29 -23 -56 0 -27 6 -43 23 -56 21 -17 43
-19 231 -19 195 0 209 1 234 21 34 27 36 79 4 109 -20 19 -34 20 -234 20 -192
0 -214 -2 -235 -19z"/>
<path d="M3531 1764 c-28 -35 -26 -69 4 -99 24 -25 24 -25 235 -25 211 0 211
0 235 25 14 13 25 36 25 50 0 14 -11 37 -25 50 -24 25 -24 25 -239 25 l-215 0
-20 -26z"/>
<path d="M4180 1770 c-30 -30 -27 -83 6 -109 25 -20 39 -21 230 -21 111 0 210
3 219 6 24 10 46 60 39 89 -13 51 -31 55 -261 55 -200 0 -214 -1 -233 -20z"/>
<path d="M4226 1524 c-33 -10 -64 -31 -97 -64 -134 -134 -86 -356 94 -425 55
-21 145 -17 195 7 29 15 35 15 65 0 49 -25 139 -28 194 -7 95 37 173 144 173
239 0 110 -80 220 -181 250 -69 21 -108 20 -169 -3 -49 -19 -51 -19 -100 0
-59 22 -107 23 -174 3z m129 -148 c44 -19 70 -70 61 -118 -20 -108 -175 -115
-207 -10 -15 50 8 103 54 126 40 19 49 20 92 2z m280 -2 c20 -9 40 -30 50 -51
24 -49 7 -106 -38 -134 -37 -23 -94 -22 -88 1 11 40 12 132 3 159 -15 43 14
53 73 25z"/>
<path d="M2270 1363 c-52 -20 -68 -85 -30 -123 18 -18 33 -20 175 -20 142 0
157 2 175 20 27 27 26 81 -1 106 -18 17 -39 19 -163 21 -77 1 -148 0 -156 -4z"/>
<path d="M2723 1360 c-45 -18 -57 -86 -23 -120 18 -18 33 -20 178 -20 143 0
161 2 176 19 25 27 24 78 -3 104 -20 20 -32 22 -164 24 -78 1 -152 -2 -164 -7z"/>
<path d="M3185 1358 c-49 -26 -60 -79 -25 -116 20 -21 29 -22 180 -22 l159 0
20 26 c28 36 26 60 -8 95 l-29 29 -139 0 c-80 0 -146 -5 -158 -12z"/>
</g>
</svg>
