<svg width="24" height="22" viewBox="0 0 24 22" fill="none" xmlns="http://www.w3.org/2000/svg">
<path d="M18.6649 21.5504C17.4842 21.5504 16.5303 20.5149 16.5303 19.2332C16.5303 17.9516 17.4842 16.916 18.6649 16.916C19.8456 16.916 20.7995 17.9516 20.7995 19.2332C20.7995 20.5149 19.8456 21.5504 18.6649 21.5504ZM18.6649 17.8388C17.9565 17.8388 17.3709 18.4642 17.3709 19.2435C17.3709 20.0125 17.9471 20.6482 18.6649 20.6482C19.3733 20.6482 19.9589 20.0227 19.9589 19.2435C19.9495 18.4642 19.3733 17.8388 18.6649 17.8388Z" fill="black" fill-opacity="0.6"/>
<path d="M18.6633 17.8387C18.4272 17.8387 18.2383 17.6337 18.2383 17.3773V9.84127C18.2383 9.58495 18.4272 9.37988 18.6633 9.37988C18.8994 9.37988 19.0883 9.58495 19.0883 9.84127V17.3773C19.0883 17.6337 18.8994 17.8387 18.6633 17.8387Z" fill="black" fill-opacity="0.6"/>
<path d="M19.7883 10.303H17.5309C16.8886 10.303 16.3691 9.7391 16.3691 9.04189V8.14987C16.3691 7.89354 16.558 7.68848 16.7942 7.68848H20.5251C20.7612 7.68848 20.9501 7.89354 20.9501 8.14987V9.04189C20.9501 9.7391 20.4306 10.303 19.7883 10.303ZM17.2192 8.61126V9.04189C17.2192 9.22644 17.3609 9.38025 17.5309 9.38025H19.7883C19.9584 9.38025 20.1 9.22644 20.1 9.04189V8.61126H17.2192Z" fill="black" fill-opacity="0.6"/>
<path d="M22.5271 8.61049H1.46402C0.651726 8.61049 0 7.89277 0 7.02125V5.43201C0 4.55024 0.661171 3.84277 1.46402 3.84277H22.5271C23.3393 3.84277 23.9911 4.56049 23.9911 5.43201V7.02125C24.0005 7.89277 23.3393 8.61049 22.5271 8.61049ZM1.47347 4.75529C1.13343 4.75529 0.850077 5.0629 0.850077 5.43201V7.02125C0.850077 7.39036 1.13343 7.69794 1.47347 7.69794H22.5365C22.8765 7.69794 23.1599 7.39036 23.1599 7.02125V5.43201C23.1599 5.0629 22.8765 4.75529 22.5365 4.75529H1.47347Z" fill="black" fill-opacity="0.6"/>
<path d="M0.425039 5.89365C0.188906 5.89365 0 5.68859 0 5.43226V2.74594C0 1.4848 0.944521 0.449219 2.11574 0.449219H5.82775C6.98952 0.449219 7.9435 1.47455 7.9435 2.74594V4.29415C7.9435 4.55048 7.75459 4.75554 7.51846 4.75554C7.28233 4.75554 7.09342 4.55048 7.09342 4.29415V2.74594C7.09342 1.98721 6.5267 1.372 5.82775 1.372H2.11574C1.41679 1.372 0.850077 1.98721 0.850077 2.74594V5.43226C0.850077 5.67833 0.661171 5.89365 0.425039 5.89365Z" fill="black" fill-opacity="0.6"/>
<path d="M23.5749 5.89371C23.3388 5.89371 23.1499 5.68865 23.1499 5.43232V3.73029C23.1499 2.97156 22.5832 2.35638 21.8842 2.35638H7.31957C7.08344 2.35638 6.89453 2.15131 6.89453 1.89499C6.89453 1.63866 7.08344 1.43359 7.31957 1.43359H21.8842C23.046 1.43359 24 2.4589 24 3.73029V5.43232C24 5.6784 23.8111 5.89371 23.5749 5.89371Z" fill="black" fill-opacity="0.6"/>
<path d="M5.33777 21.5504C4.15711 21.5504 3.20312 20.5149 3.20312 19.2332C3.20312 17.9516 4.15711 16.916 5.33777 16.916C6.51844 16.916 7.47241 17.9516 7.47241 19.2332C7.47241 20.5149 6.51844 21.5504 5.33777 21.5504ZM5.33777 17.8388C4.62938 17.8388 4.04376 18.4642 4.04376 19.2435C4.04376 20.0125 4.61993 20.6482 5.33777 20.6482C6.04617 20.6482 6.63177 20.0227 6.63177 19.2435C6.63177 18.4642 6.04617 17.8388 5.33777 17.8388Z" fill="black" fill-opacity="0.6"/>
<path d="M5.33617 17.8387C5.10004 17.8387 4.91113 17.6337 4.91113 17.3773V9.84127C4.91113 9.58495 5.10004 9.37988 5.33617 9.37988C5.5723 9.37988 5.76121 9.58495 5.76121 9.84127V17.3773C5.76121 17.6337 5.5723 17.8387 5.33617 17.8387Z" fill="black" fill-opacity="0.6"/>
<path d="M6.46021 10.303H4.20279C3.56051 10.303 3.04102 9.7391 3.04102 9.04189V8.14987C3.04102 7.89354 3.22992 7.68848 3.46605 7.68848H7.19695C7.43308 7.68848 7.62199 7.89354 7.62199 8.14987V9.04189C7.62199 9.7391 7.10249 10.303 6.46021 10.303ZM3.89109 8.61126V9.04189C3.89109 9.22644 4.03278 9.38025 4.20279 9.38025H6.46021C6.63023 9.38025 6.77191 9.22644 6.77191 9.04189V8.61126H3.89109Z" fill="black" fill-opacity="0.6"/>
<path d="M18.6646 16.3101C18.6268 16.3101 18.589 16.2999 18.5512 16.2896L5.22391 12.1883C4.99722 12.1166 4.86499 11.8705 4.93111 11.6244C4.99722 11.3783 5.22391 11.2348 5.4506 11.3066L18.7779 15.4078C19.0046 15.4796 19.1368 15.7257 19.0707 15.9718C19.0141 16.1768 18.844 16.3101 18.6646 16.3101Z" fill="black" fill-opacity="0.6"/>
<path d="M5.33726 16.3101C5.14835 16.3101 4.98778 16.1768 4.93111 15.9718C4.86499 15.7257 4.99722 15.4796 5.22391 15.4078L18.5512 11.3066C18.7779 11.2348 19.0141 11.3783 19.0707 11.6244C19.1368 11.8705 19.0046 12.1268 18.7779 12.1883L5.4506 16.2896C5.41282 16.2999 5.37504 16.3101 5.33726 16.3101Z" fill="black" fill-opacity="0.6"/>
</svg>
