<svg width="24" height="24" viewBox="0 0 24 24" fill="none" xmlns="http://www.w3.org/2000/svg">
<path d="M11.8125 16.725C11.8125 17.325 11.8125 18.225 14.85 18.825C17.8875 19.425 18.375 22.125 18.375 22.125H0.375C0.375 22.125 0.375 19.5 3.9 18.825C7.425 18.15 6.9375 17.325 6.9375 16.725V16.125C6.17358 15.4176 5.62722 14.507 5.3625 13.5C4.425 13.5 4.2375 11.5875 4.2375 11.325C4.2375 11.0625 4.2 9.90001 5.1375 9.90001C4.5 7.50001 4.6125 5.28751 6.3 5.28751C10.3125 2.51251 15.6 5.06251 13.65 9.90001C14.5875 9.90001 14.55 11.025 14.55 11.325C14.55 11.625 14.325 13.5 13.425 13.5C13.1603 14.507 12.6139 15.4176 11.85 16.125V16.725" fill="#2196F3"/>
<path d="M23.625 8.625C23.625 8.42609 23.546 8.23532 23.4053 8.09467C23.2647 7.95402 23.0739 7.875 22.875 7.875H16.875C16.6761 7.875 16.4853 7.95402 16.3447 8.09467C16.204 8.23532 16.125 8.42609 16.125 8.625C16.125 8.82391 16.204 9.01468 16.3447 9.15533C16.4853 9.29598 16.6761 9.375 16.875 9.375H22.875C23.0739 9.375 23.2647 9.29598 23.4053 9.15533C23.546 9.01468 23.625 8.82391 23.625 8.625ZM22.875 4.875H16.875C16.6761 4.875 16.4853 4.95402 16.3447 5.09467C16.204 5.23532 16.125 5.42609 16.125 5.625C16.125 5.82391 16.204 6.01468 16.3447 6.15533C16.4853 6.29598 16.6761 6.375 16.875 6.375H22.875C23.0739 6.375 23.2647 6.29598 23.4053 6.15533C23.546 6.01468 23.625 5.82391 23.625 5.625C23.625 5.42609 23.546 5.23532 23.4053 5.09467C23.2647 4.95402 23.0739 4.875 22.875 4.875ZM15.375 3.375H22.875C23.0739 3.375 23.2647 3.29598 23.4053 3.15533C23.546 3.01468 23.625 2.82391 23.625 2.625C23.625 2.42609 23.546 2.23532 23.4053 2.09467C23.2647 1.95402 23.0739 1.875 22.875 1.875H15.375C15.1761 1.875 14.9853 1.95402 14.8447 2.09467C14.704 2.23532 14.625 2.42609 14.625 2.625C14.625 2.82391 14.704 3.01468 14.8447 3.15533C14.9853 3.29598 15.1761 3.375 15.375 3.375Z" fill="#2196F3"/>
</svg>
