<svg width="24" height="24" viewBox="0 0 24 24" fill="none" xmlns="http://www.w3.org/2000/svg">
<mask id="path-1-inside-1_2389_8868" fill="white">
<path d="M11.8125 16.725C11.8125 17.325 11.8125 18.225 14.85 18.825C17.8875 19.425 18.375 22.125 18.375 22.125H0.375C0.375 22.125 0.375 19.5 3.9 18.825C7.425 18.15 6.9375 17.325 6.9375 16.725V16.125C6.17358 15.4176 5.62722 14.507 5.3625 13.5C4.425 13.5 4.2375 11.5875 4.2375 11.325C4.2375 11.0625 4.2 9.9 5.1375 9.9C4.5 7.5 4.6125 5.2875 6.3 5.2875C10.3125 2.5125 15.6 5.0625 13.65 9.9C14.5875 9.9 14.55 11.025 14.55 11.325C14.55 11.625 14.325 13.5 13.425 13.5C13.1603 14.507 12.6139 15.4176 11.85 16.125V16.725"/>
</mask>
<path d="M18.375 22.125V23.125H19.5717L19.3591 21.9473L18.375 22.125ZM0.375 22.125H-0.625V23.125H0.375V22.125ZM6.9375 16.125H7.9375V15.6881L7.61697 15.3913L6.9375 16.125ZM5.3625 13.5L6.32964 13.2457L6.13358 12.5H5.3625V13.5ZM5.1375 9.9V10.9H6.4378L6.10398 9.64328L5.1375 9.9ZM6.3 5.2875V6.2875H6.61211L6.86881 6.10997L6.3 5.2875ZM13.65 9.9L12.7225 9.52613L12.1687 10.9H13.65V9.9ZM13.425 13.5V12.5H12.6539L12.4579 13.2457L13.425 13.5ZM11.85 16.125L11.1705 15.3913L10.85 15.6881V16.125H11.85ZM10.8125 16.725C10.8125 17.0656 10.8033 17.8088 11.4895 18.4865C12.0858 19.0754 13.0898 19.4966 14.6562 19.806L15.0438 17.844C13.5727 17.5534 13.058 17.2246 12.8949 17.0635C12.8217 16.9912 12.8125 16.9844 12.8125 16.725H10.8125ZM14.6562 19.806C15.8713 20.0461 16.5399 20.6871 16.9203 21.2559C17.1157 21.5481 17.2373 21.8264 17.309 22.0282C17.3445 22.1284 17.3669 22.2074 17.3796 22.2566C17.3859 22.2811 17.3897 22.298 17.3914 22.3061C17.3923 22.3101 17.3927 22.312 17.3926 22.3115C17.3925 22.3112 17.3923 22.3104 17.3921 22.3089C17.3919 22.3082 17.3918 22.3073 17.3916 22.3063C17.3915 22.3057 17.3914 22.3052 17.3913 22.3046C17.3912 22.3043 17.3911 22.3038 17.3911 22.3037C17.391 22.3032 17.3909 22.3027 18.375 22.125C19.3591 21.9473 19.359 21.9468 19.3589 21.9463C19.3589 21.9461 19.3588 21.9455 19.3587 21.9452C19.3586 21.9444 19.3584 21.9436 19.3583 21.9428C19.3579 21.9411 19.3576 21.9392 19.3572 21.9372C19.3564 21.9331 19.3555 21.9284 19.3545 21.923C19.3523 21.9122 19.3496 21.8988 19.3461 21.883C19.3393 21.8512 19.3296 21.8095 19.3167 21.759C19.2908 21.6583 19.2514 21.5216 19.1938 21.3593C19.0791 21.0361 18.889 20.6019 18.5828 20.1441C17.9601 19.2129 16.8662 18.2039 15.0438 17.844L14.6562 19.806ZM18.375 21.125H0.375V23.125H18.375V21.125ZM0.375 22.125C1.375 22.125 1.375 22.1256 1.375 22.1263C1.375 22.1265 1.375 22.1271 1.375 22.1275C1.37499 22.1283 1.37499 22.1291 1.37499 22.1298C1.37498 22.1313 1.37497 22.1326 1.37496 22.1337C1.37493 22.1361 1.3749 22.1378 1.37488 22.139C1.37482 22.1414 1.37479 22.1416 1.37488 22.1397C1.37505 22.1359 1.37567 22.1239 1.37748 22.1047C1.38111 22.0661 1.3894 22 1.40782 21.9141C1.44489 21.7414 1.52089 21.4985 1.67503 21.2394C1.96277 20.7558 2.59322 20.0934 4.08807 19.8072L3.71193 17.8428C1.68178 18.2316 0.54973 19.2192 -0.0437817 20.2168C-0.330262 20.6984 -0.474582 21.154 -0.547659 21.4945C-0.584317 21.6653 -0.603575 21.8095 -0.613709 21.9171C-0.618786 21.971 -0.621604 22.0161 -0.623156 22.051C-0.623932 22.0685 -0.624393 22.0835 -0.62466 22.0959C-0.624793 22.1021 -0.624878 22.1076 -0.62493 22.1125C-0.624956 22.1149 -0.624973 22.1171 -0.624984 22.1192C-0.62499 22.1203 -0.624994 22.1213 -0.624996 22.1222C-0.624997 22.1227 -0.624999 22.1234 -0.624999 22.1237C-0.625 22.1243 -0.625 22.125 0.375 22.125ZM4.08807 19.8072C5.00357 19.6318 5.70329 19.4388 6.23602 19.2238C6.76254 19.0113 7.19156 18.7514 7.4944 18.404C7.8256 18.0241 7.9379 17.6187 7.95712 17.2657C7.96566 17.1086 7.95537 16.9682 7.94843 16.8808C7.9398 16.7719 7.9375 16.7489 7.9375 16.725H5.9375C5.9375 16.8511 5.95044 16.9852 5.95469 17.0388C5.96065 17.114 5.9609 17.1418 5.96007 17.157C5.95959 17.1658 5.9596 17.1506 5.96896 17.1255C5.97904 17.0985 5.99023 17.0859 5.98685 17.0897C5.97094 17.108 5.8609 17.2184 5.48742 17.3692C5.12014 17.5174 4.55893 17.6807 3.71193 17.8428L4.08807 19.8072ZM7.9375 16.725V16.125H5.9375V16.725H7.9375ZM7.61697 15.3913C6.99258 14.8131 6.54601 14.0688 6.32964 13.2457L4.39536 13.7543C4.70844 14.9451 5.35459 16.0221 6.25803 16.8587L7.61697 15.3913ZM5.3625 12.5C5.5174 12.5 5.59011 12.5944 5.56649 12.5655C5.52937 12.5199 5.46504 12.406 5.40056 12.2052C5.33996 12.0165 5.29747 11.809 5.27052 11.6282C5.24216 11.4379 5.2375 11.3226 5.2375 11.325H3.2375C3.2375 11.5498 3.29755 12.1976 3.49632 12.8167C3.5959 13.1268 3.75422 13.5075 4.01593 13.8287C4.29114 14.1665 4.73885 14.5 5.3625 14.5V12.5ZM5.2375 11.325C5.2375 11.2428 5.23586 11.1664 5.24339 11.0677C5.25101 10.9678 5.26593 10.8863 5.28462 10.8303C5.3041 10.7718 5.30963 10.7945 5.26254 10.836C5.23654 10.8589 5.20457 10.8782 5.17184 10.8901C5.1401 10.9017 5.12497 10.9 5.1375 10.9V8.9C4.67699 8.9 4.26374 9.05038 3.9402 9.3355C3.63646 9.60318 3.47558 9.93285 3.38725 10.1978C3.21875 10.7034 3.2375 11.2304 3.2375 11.325H5.2375ZM6.10398 9.64328C5.80002 8.49893 5.71067 7.51544 5.82987 6.87739C5.88806 6.5659 5.97998 6.42318 6.03412 6.36744C6.06378 6.33691 6.11838 6.2875 6.3 6.2875V4.2875C5.63787 4.2875 5.04559 4.51466 4.59947 4.97397C4.17783 5.40806 3.96507 5.96848 3.86388 6.51011C3.66433 7.57831 3.83748 8.90107 4.17101 10.1567L6.10398 9.64328ZM6.86881 6.10997C8.59734 4.91453 10.5102 4.92457 11.7179 5.60905C12.3131 5.94642 12.738 6.44262 12.9373 7.05682C13.1364 7.67073 13.1389 8.49325 12.7225 9.52613L14.5775 10.2739C15.1361 8.88799 15.2089 7.57771 14.8397 6.43966C14.4706 5.30191 13.6884 4.42702 12.704 3.86908C10.7523 2.76293 8.01516 2.88547 5.73119 4.46503L6.86881 6.10997ZM13.65 10.9C13.6661 10.9 13.6541 10.9022 13.6246 10.8918C13.5939 10.8809 13.562 10.8626 13.5348 10.8392C13.484 10.7957 13.4866 10.7681 13.5043 10.8204C13.5216 10.8715 13.5364 10.9496 13.544 11.051C13.5516 11.1518 13.55 11.2327 13.55 11.325H15.55C15.55 11.2162 15.5694 10.6839 15.3988 10.1796C15.3087 9.91316 15.1449 9.58557 14.8375 9.3217C14.512 9.04231 14.1016 8.9 13.65 8.9V10.9ZM13.55 11.325C13.55 11.3247 13.5446 11.4394 13.5135 11.6322C13.4842 11.8138 13.4389 12.0209 13.3763 12.2088C13.3098 12.4085 13.2444 12.5228 13.2065 12.5691C13.1792 12.6024 13.2552 12.5 13.425 12.5V14.5C14.0448 14.5 14.4864 14.1632 14.7544 13.8356C15.0118 13.521 15.1715 13.1478 15.2737 12.8412C15.4768 12.2318 15.55 11.5812 15.55 11.325H13.55ZM12.4579 13.2457C12.2415 14.0688 11.7949 14.8131 11.1705 15.3913L12.5295 16.8587C13.4329 16.022 14.0791 14.9451 14.3921 13.7543L12.4579 13.2457ZM10.85 16.125V16.725H12.85V16.125H10.85Z" fill="black" fill-opacity="0.6" mask="url(#path-1-inside-1_2389_8868)"/>
<path d="M23.625 8.625C23.625 8.42609 23.546 8.23532 23.4053 8.09467C23.2647 7.95402 23.0739 7.875 22.875 7.875H16.875C16.6761 7.875 16.4853 7.95402 16.3447 8.09467C16.204 8.23532 16.125 8.42609 16.125 8.625C16.125 8.82391 16.204 9.01468 16.3447 9.15533C16.4853 9.29598 16.6761 9.375 16.875 9.375H22.875C23.0739 9.375 23.2647 9.29598 23.4053 9.15533C23.546 9.01468 23.625 8.82391 23.625 8.625ZM22.875 4.875H16.875C16.6761 4.875 16.4853 4.95402 16.3447 5.09467C16.204 5.23532 16.125 5.42609 16.125 5.625C16.125 5.82391 16.204 6.01468 16.3447 6.15533C16.4853 6.29598 16.6761 6.375 16.875 6.375H22.875C23.0739 6.375 23.2647 6.29598 23.4053 6.15533C23.546 6.01468 23.625 5.82391 23.625 5.625C23.625 5.42609 23.546 5.23532 23.4053 5.09467C23.2647 4.95402 23.0739 4.875 22.875 4.875ZM15.375 3.375H22.875C23.0739 3.375 23.2647 3.29598 23.4053 3.15533C23.546 3.01468 23.625 2.82391 23.625 2.625C23.625 2.42609 23.546 2.23532 23.4053 2.09467C23.2647 1.95402 23.0739 1.875 22.875 1.875H15.375C15.1761 1.875 14.9853 1.95402 14.8447 2.09467C14.704 2.23532 14.625 2.42609 14.625 2.625C14.625 2.82391 14.704 3.01468 14.8447 3.15533C14.9853 3.29598 15.1761 3.375 15.375 3.375Z" fill="black" fill-opacity="0.6"/>
</svg>
