<svg width="16" height="16" viewBox="0 0 16 16"  xmlns="http://www.w3.org/2000/svg">
<g clip-path="url(#clip0_2347_9615)">
<path d="M12.5001 12.75C10.0001 12.275 10.0001 11.5 10.0001 11V10.2C10.9001 9.375 11.5001 8.025 11.5001 6.5V4.1C11.5001 1.5 9.6501 0.5 8.0001 0.5C6.3501 0.5 4.5001 1.5 4.5001 4.1V6.5C4.5001 8.025 5.1001 9.375 6.0001 10.2V11C6.0001 11.5 6.0001 12.3 3.5001 12.75C2.8004 12.8737 2.15248 13.2003 1.63689 13.6893C1.12129 14.1782 0.760758 14.8078 0.600098 15.5H15.4001C15.2336 14.8107 14.8712 14.1843 14.3566 13.6963C13.842 13.2084 13.1973 12.8797 12.5001 12.75Z"/>
</g>
<defs>
<clipPath id="clip0_2347_9615">
<rect width="16" height="16" fill="white"/>
</clipPath>
</defs>
</svg>
