<?xml version="1.0" standalone="no"?>
<!DOCTYPE svg PUBLIC "-//W3C//DTD SVG 20010904//EN"
 "http://www.w3.org/TR/2001/REC-SVG-20010904/DTD/svg10.dtd">
<svg version="1.0" xmlns="http://www.w3.org/2000/svg"
 width="512.000000pt" height="512.000000pt" viewBox="0 0 512.000000 512.000000"
 preserveAspectRatio="xMidYMid meet">

<g transform="translate(0.000000,512.000000) scale(0.100000,-0.100000)"
fill="#000000" stroke="none">
<path d="M3770 4860 c-17 -32 -5 -52 60 -99 136 -100 275 -277 352 -452 66
-149 89 -260 95 -447 5 -148 7 -164 25 -173 14 -8 25 -6 43 5 32 21 41 111 26
256 -34 319 -162 585 -387 802 -126 121 -190 153 -214 108z"/>
<path d="M2259 4630 c-214 -25 -412 -118 -570 -267 l-74 -70 -45 15 c-25 8
-86 15 -140 15 -113 1 -202 -23 -295 -78 -200 -120 -336 -384 -322 -624 5 -79
3 -85 -24 -126 -64 -95 -94 -201 -93 -330 2 -151 61 -283 178 -394 l55 -51
-39 0 c-42 0 -70 -20 -70 -50 0 -37 38 -47 218 -60 235 -16 239 -12 146 165
-59 110 -81 133 -113 116 -31 -17 -32 -39 -6 -91 14 -27 25 -52 25 -55 0 -17
-112 57 -161 105 -93 92 -139 204 -139 338 0 73 25 172 57 220 l15 24 22 -31
c59 -79 167 -129 252 -116 24 3 65 21 91 38 185 126 70 388 -161 364 -29 -3
-76 -17 -105 -31 l-51 -26 0 56 c0 114 65 276 150 376 111 129 314 199 462
158 l37 -11 -29 -48 c-90 -146 -139 -313 -147 -503 -19 -418 184 -789 541
-992 l77 -44 -68 -6 c-552 -50 -1108 -113 -1174 -132 -132 -39 -202 -96 -255
-208 -61 -130 -66 -260 -24 -569 33 -232 60 -368 85 -416 51 -101 145 -163
255 -169 36 -2 608 48 1279 113 668 64 1222 115 1232 113 12 -2 73 -93 173
-255 l154 -252 -40 -123 c-48 -146 -51 -190 -17 -246 30 -51 144 -144 225
-182 165 -79 343 -65 520 41 70 43 180 149 228 220 99 149 122 375 56 551 -31
83 -173 294 -212 314 -63 33 -163 -4 -184 -68 -5 -16 -8 -17 -34 -3 -55 28
-128 11 -168 -40 -20 -25 -25 -27 -48 -17 -53 25 -150 8 -183 -31 -7 -10 -17
-17 -21 -17 -9 0 -95 139 -89 144 2 2 172 20 377 40 410 39 434 45 504 113
100 97 116 271 67 723 -31 288 -123 456 -287 522 -52 21 -73 23 -222 23 -158
0 -483 -24 -885 -66 -104 -10 -196 -19 -205 -19 -8 0 8 19 35 42 330 278 452
722 313 1148 -51 158 -169 344 -283 448 -227 208 -539 308 -846 272z m328
-109 c280 -58 517 -238 647 -491 86 -167 123 -338 113 -519 -21 -361 -210
-649 -523 -798 -81 -38 -90 -49 -80 -88 6 -22 12 -25 54 -25 26 0 169 13 317
30 420 46 1001 93 1080 87 144 -11 222 -61 279 -180 45 -92 62 -177 81 -412
18 -223 19 -345 4 -414 -15 -69 -57 -125 -111 -145 -36 -13 -713 -86 -802 -86
-16 0 -29 12 -46 42 -56 99 -132 155 -194 142 -87 -18 -133 -81 -122 -168 l6
-52 -1233 -117 c-879 -84 -1241 -115 -1263 -109 -71 22 -117 58 -147 117 -33
65 -97 513 -97 675 0 209 58 318 197 370 77 29 161 39 893 106 425 39 632 61
648 71 26 16 29 44 5 65 -10 8 -56 24 -103 37 -351 90 -623 387 -701 766 -18
87 -15 294 6 390 51 242 194 458 383 579 108 70 202 106 367 140 59 12 257 4
342 -13z m-1429 -941 c57 -26 79 -73 58 -123 -7 -19 -26 -44 -42 -56 -62 -49
-177 -9 -228 78 -18 31 -18 32 0 52 31 34 102 65 154 68 8 0 34 -8 58 -19z
m2314 -2048 c12 -15 88 -135 167 -265 141 -233 144 -237 177 -237 43 0 49 12
49 89 0 63 0 65 33 78 32 13 34 12 63 -18 16 -17 54 -69 85 -115 47 -72 59
-84 82 -84 64 0 67 43 12 144 -22 40 -40 82 -40 92 0 24 18 44 41 44 19 0 80
-64 103 -108 17 -33 50 -46 77 -31 27 14 32 49 14 91 -27 66 -16 118 25 118
22 0 151 -197 178 -273 47 -125 37 -284 -23 -405 -58 -116 -223 -259 -340
-295 -22 -6 -83 -12 -136 -12 -90 0 -99 2 -170 37 -40 20 -100 60 -131 88 -67
60 -71 78 -36 180 l21 64 16 -24 c85 -130 97 -145 122 -148 29 -3 59 20 59 47
0 9 -113 201 -251 426 -269 440 -289 474 -289 503 0 47 56 56 92 14z"/>
<path d="M2272 3835 c-16 -14 -32 -35 -35 -47 -9 -33 27 -379 42 -405 16 -32
66 -56 100 -48 25 5 231 176 274 226 23 28 22 80 -3 111 -26 34 -291 188 -323
188 -14 0 -39 -11 -55 -25z m201 -159 c53 -31 97 -58 97 -60 0 -6 -202 -177
-205 -174 -2 2 -9 55 -15 118 -5 63 -13 135 -16 159 l-6 44 24 -15 c12 -8 67
-41 121 -72z"/>
<path d="M3970 2454 c-50 -22 -89 -61 -116 -119 -38 -79 -29 -145 18 -145 10
0 18 -1 18 -2 0 -2 9 -93 20 -203 16 -161 23 -202 37 -212 23 -17 38 -16 58 4
14 14 16 30 10 110 -6 78 -5 93 7 93 31 0 140 -64 194 -112 50 -46 57 -50 79
-40 43 20 34 61 -27 118 -29 28 -71 60 -93 74 -22 13 -42 25 -44 27 -2 1 8 20
22 42 65 99 86 240 44 302 -47 71 -146 98 -227 63z m120 -89 c18 -9 31 -26 35
-44 12 -56 -33 -172 -81 -210 -45 -36 -51 -29 -58 72 -4 50 -9 109 -13 129 -5
36 -3 39 28 53 43 18 54 18 89 0z"/>
<path d="M3489 2344 c-15 -18 -19 -31 -111 -333 -65 -214 -66 -232 -19 -239
32 -5 48 13 67 73 l17 52 111 12 c161 16 151 18 191 -44 26 -41 41 -55 58 -55
28 0 47 17 47 44 0 18 -230 398 -287 474 -26 35 -53 41 -74 16z m115 -254 l46
-75 -47 -7 c-76 -10 -123 -9 -123 3 0 6 12 49 26 96 31 97 27 98 98 -17z"/>
<path d="M3131 2301 c-15 -15 -18 -29 -15 -58 11 -88 32 -318 29 -321 -1 -2
-67 76 -145 173 -78 96 -150 179 -159 184 -9 5 -26 5 -38 0 -29 -11 -29 -38 0
-341 24 -247 31 -267 80 -254 14 3 28 13 31 22 4 9 -1 88 -9 176 -9 87 -15
166 -13 175 2 11 56 -48 146 -159 79 -97 150 -179 158 -182 19 -7 50 8 57 28
3 7 -6 132 -20 277 -19 197 -29 268 -41 282 -20 22 -37 22 -61 -2z"/>
<path d="M2550 2245 c-18 -22 32 -551 54 -574 25 -24 70 -4 74 34 5 55 -46
525 -58 540 -16 19 -54 19 -70 0z"/>
<path d="M2155 2231 c-16 -4 -44 -15 -61 -24 -60 -31 -59 -28 -40 -250 24
-273 23 -268 95 -301 109 -48 207 -26 257 60 43 74 24 163 -45 212 l-36 26 22
45 c25 49 29 85 12 128 -29 76 -122 123 -204 104z m93 -107 c34 -23 30 -78 -8
-114 -29 -27 -77 -46 -88 -36 -3 3 -8 37 -11 76 -6 59 -4 73 9 80 24 15 73 12
98 -6z m37 -259 c43 -21 62 -57 47 -89 -17 -39 -55 -58 -96 -51 -53 10 -65 24
-72 87 -6 49 -4 57 12 61 38 10 77 7 109 -8z"/>
<path d="M1695 2164 c-110 -11 -133 -17 -147 -34 -10 -13 -15 -32 -13 -48 3
-15 11 -106 20 -202 20 -224 22 -238 45 -250 23 -12 317 15 337 32 18 14 16
53 -3 69 -13 10 -39 11 -137 2 -67 -6 -125 -9 -129 -6 -5 2 -8 24 -8 48 0 50
-5 48 133 60 60 6 70 10 80 32 8 17 8 29 0 41 -9 14 -29 17 -119 17 l-109 0
-6 65 c-3 36 -4 66 -3 68 1 2 46 7 100 13 152 14 164 17 176 44 9 20 8 29 -7
45 -21 23 -26 23 -210 4z"/>
<path d="M1336 2157 c-17 -12 -19 -29 -17 -168 l1 -154 -60 115 c-62 120 -87
150 -126 150 -49 0 -73 -38 -115 -179 -21 -74 -41 -136 -43 -138 -2 -2 -16 56
-32 128 -31 147 -47 176 -86 166 -14 -4 -29 -15 -32 -24 -11 -26 95 -484 116
-505 46 -46 66 -11 133 225 l59 207 34 -63 c18 -34 64 -123 102 -197 78 -156
89 -168 127 -151 l26 12 -6 277 c-7 265 -8 278 -28 295 -25 21 -30 21 -53 4z"/>
<path d="M3508 4589 c-11 -6 -18 -22 -18 -39 0 -24 8 -35 43 -56 206 -130 330
-354 330 -599 0 -107 6 -125 43 -125 38 0 54 35 54 121 0 145 -41 290 -118
424 -44 76 -180 212 -252 253 -62 36 -59 35 -82 21z"/>
</g>
</svg>
